<?xml version="1.0" encoding="utf-8"?>
<Project name="Benelux" themeId="0" version="65540" templateID="SimpleProjectTemplate">
  <MediaItems>
    <MediaItem id="1" filePath="C:\Benelux_fenykepek_2016\DSC01850.JPG" arWidth="3648" arHeight="2056" duration="0" songTitle="" songArtist="" songAlbum="" songCopyrightUrl="" songArtistUrl="" songAudioFileUrl="" stabilizationMode="0" mediaItemType="2" />
    <MediaItem id="2" filePath="C:\Benelux_fenykepek_2016\MAH01896.MP4" arWidth="1920" arHeight="1080" duration="15.960000000000001" songTitle="" songArtist="" songAlbum="" songCopyrightUrl="" songArtistUrl="" songAudioFileUrl="" stabilizationMode="0" mediaItemType="1" />
    <MediaItem id="3" filePath="C:\Benelux_fenykepek_2016\MAH01897.MP4" arWidth="1920" arHeight="1080" duration="21.719999999999999" songTitle="" songArtist="" songAlbum="" songCopyrightUrl="" songArtistUrl="" songAudioFileUrl="" stabilizationMode="0" mediaItemType="1" />
    <MediaItem id="4" filePath="C:\Benelux_fenykepek_2016\MAH01898.MP4" arWidth="1920" arHeight="1080" duration="44.280000000000001" songTitle="" songArtist="" songAlbum="" songCopyrightUrl="" songArtistUrl="" songAudioFileUrl="" stabilizationMode="0" mediaItemType="1" />
    <MediaItem id="5" filePath="C:\Benelux_fenykepek_2016\MAH01899.MP4" arWidth="1920" arHeight="1080" duration="17.879999999999999" songTitle="" songArtist="" songAlbum="" songCopyrightUrl="" songArtistUrl="" songAudioFileUrl="" stabilizationMode="0" mediaItemType="1" />
    <MediaItem id="6" filePath="C:\Benelux_fenykepek_2016\DSC01901.JPG" arWidth="2056" arHeight="3648" duration="0" songTitle="" songArtist="" songAlbum="" songCopyrightUrl="" songArtistUrl="" songAudioFileUrl="" stabilizationMode="0" mediaItemType="2" />
    <MediaItem id="7" filePath="C:\Benelux_fenykepek_2016\DSC01903.JPG" arWidth="2056" arHeight="3648" duration="0" songTitle="" songArtist="" songAlbum="" songCopyrightUrl="" songArtistUrl="" songAudioFileUrl="" stabilizationMode="0" mediaItemType="2" />
    <MediaItem id="8" filePath="C:\Benelux_fenykepek_2016\DSC01904.JPG" arWidth="1280" arHeight="721" duration="0" songTitle="" songArtist="" songAlbum="" songCopyrightUrl="" songArtistUrl="" songAudioFileUrl="" stabilizationMode="0" mediaItemType="2" />
    <MediaItem id="9" filePath="C:\Benelux_fenykepek_2016\DSC01979.JPG" arWidth="2056" arHeight="3648" duration="0" songTitle="" songArtist="" songAlbum="" songCopyrightUrl="" songArtistUrl="" songAudioFileUrl="" stabilizationMode="0" mediaItemType="2" />
    <MediaItem id="10" filePath="C:\Benelux_fenykepek_2016\MAH01906.MP4" arWidth="1920" arHeight="1080" duration="39.479999999999997" songTitle="" songArtist="" songAlbum="" songCopyrightUrl="" songArtistUrl="" songAudioFileUrl="" stabilizationMode="0" mediaItemType="1" />
    <MediaItem id="11" filePath="C:\Benelux_fenykepek_2016\DSC01851.JPG" arWidth="3648" arHeight="2056" duration="0" songTitle="" songArtist="" songAlbum="" songCopyrightUrl="" songArtistUrl="" songAudioFileUrl="" stabilizationMode="0" mediaItemType="2" />
    <MediaItem id="12" filePath="C:\Benelux_fenykepek_2016\MAH01907.MP4" arWidth="1920" arHeight="1080" duration="30.84" songTitle="" songArtist="" songAlbum="" songCopyrightUrl="" songArtistUrl="" songAudioFileUrl="" stabilizationMode="0" mediaItemType="1" />
    <MediaItem id="13" filePath="C:\Benelux_fenykepek_2016\DSC01854.JPG" arWidth="3648" arHeight="2056" duration="0" songTitle="" songArtist="" songAlbum="" songCopyrightUrl="" songArtistUrl="" songAudioFileUrl="" stabilizationMode="0" mediaItemType="2" />
    <MediaItem id="14" filePath="C:\Benelux_fenykepek_2016\DSC01908.JPG" arWidth="3648" arHeight="2056" duration="0" songTitle="" songArtist="" songAlbum="" songCopyrightUrl="" songArtistUrl="" songAudioFileUrl="" stabilizationMode="0" mediaItemType="2" />
    <MediaItem id="15" filePath="C:\Benelux_fenykepek_2016\DSC01856.JPG" arWidth="2056" arHeight="3648" duration="0" songTitle="" songArtist="" songAlbum="" songCopyrightUrl="" songArtistUrl="" songAudioFileUrl="" stabilizationMode="0" mediaItemType="2" />
    <MediaItem id="16" filePath="C:\Benelux_fenykepek_2016\DSC01857.JPG" arWidth="1280" arHeight="721" duration="0" songTitle="" songArtist="" songAlbum="" songCopyrightUrl="" songArtistUrl="" songAudioFileUrl="" stabilizationMode="0" mediaItemType="2" />
    <MediaItem id="17" filePath="C:\Benelux_fenykepek_2016\DSC01858.JPG" arWidth="1280" arHeight="721" duration="0" songTitle="" songArtist="" songAlbum="" songCopyrightUrl="" songArtistUrl="" songAudioFileUrl="" stabilizationMode="0" mediaItemType="2" />
    <MediaItem id="18" filePath="C:\Benelux_fenykepek_2016\DSC01859.JPG" arWidth="1280" arHeight="721" duration="0" songTitle="" songArtist="" songAlbum="" songCopyrightUrl="" songArtistUrl="" songAudioFileUrl="" stabilizationMode="0" mediaItemType="2" />
    <MediaItem id="19" filePath="C:\Benelux_fenykepek_2016\DSC01860.JPG" arWidth="3648" arHeight="2056" duration="0" songTitle="" songArtist="" songAlbum="" songCopyrightUrl="" songArtistUrl="" songAudioFileUrl="" stabilizationMode="0" mediaItemType="2" />
    <MediaItem id="20" filePath="C:\Benelux_fenykepek_2016\DSC01861.JPG" arWidth="3648" arHeight="2056" duration="0" songTitle="" songArtist="" songAlbum="" songCopyrightUrl="" songArtistUrl="" songAudioFileUrl="" stabilizationMode="0" mediaItemType="2" />
    <MediaItem id="21" filePath="C:\Benelux_fenykepek_2016\DSC01862.JPG" arWidth="721" arHeight="1280" duration="0" songTitle="" songArtist="" songAlbum="" songCopyrightUrl="" songArtistUrl="" songAudioFileUrl="" stabilizationMode="0" mediaItemType="2" />
    <MediaItem id="22" filePath="C:\Benelux_fenykepek_2016\DSC01909.JPG" arWidth="3648" arHeight="2056" duration="0" songTitle="" songArtist="" songAlbum="" songCopyrightUrl="" songArtistUrl="" songAudioFileUrl="" stabilizationMode="0" mediaItemType="2" />
    <MediaItem id="23" filePath="C:\Benelux_fenykepek_2016\DSC01864.JPG" arWidth="1280" arHeight="721" duration="0" songTitle="" songArtist="" songAlbum="" songCopyrightUrl="" songArtistUrl="" songAudioFileUrl="" stabilizationMode="0" mediaItemType="2" />
    <MediaItem id="24" filePath="C:\Benelux_fenykepek_2016\DSC01865.JPG" arWidth="1280" arHeight="721" duration="0" songTitle="" songArtist="" songAlbum="" songCopyrightUrl="" songArtistUrl="" songAudioFileUrl="" stabilizationMode="0" mediaItemType="2" />
    <MediaItem id="25" filePath="C:\Benelux_fenykepek_2016\DSC01866.JPG" arWidth="1280" arHeight="721" duration="0" songTitle="" songArtist="" songAlbum="" songCopyrightUrl="" songArtistUrl="" songAudioFileUrl="" stabilizationMode="0" mediaItemType="2" />
    <MediaItem id="26" filePath="C:\Benelux_fenykepek_2016\DSC01867.JPG" arWidth="2056" arHeight="3648" duration="0" songTitle="" songArtist="" songAlbum="" songCopyrightUrl="" songArtistUrl="" songAudioFileUrl="" stabilizationMode="0" mediaItemType="2" />
    <MediaItem id="27" filePath="C:\Benelux_fenykepek_2016\DSC01910.JPG" arWidth="2056" arHeight="3648" duration="0" songTitle="" songArtist="" songAlbum="" songCopyrightUrl="" songArtistUrl="" songAudioFileUrl="" stabilizationMode="0" mediaItemType="2" />
    <MediaItem id="28" filePath="C:\Benelux_fenykepek_2016\MAH01869.MP4" arWidth="1920" arHeight="1080" duration="32.280000000000001" songTitle="" songArtist="" songAlbum="" songCopyrightUrl="" songArtistUrl="" songAudioFileUrl="" stabilizationMode="0" mediaItemType="1" />
    <MediaItem id="29" filePath="C:\Benelux_fenykepek_2016\DSC01870.JPG" arWidth="3648" arHeight="2056" duration="0" songTitle="" songArtist="" songAlbum="" songCopyrightUrl="" songArtistUrl="" songAudioFileUrl="" stabilizationMode="0" mediaItemType="2" />
    <MediaItem id="30" filePath="C:\Benelux_fenykepek_2016\DSC01912.JPG" arWidth="2056" arHeight="3648" duration="0" songTitle="" songArtist="" songAlbum="" songCopyrightUrl="" songArtistUrl="" songAudioFileUrl="" stabilizationMode="0" mediaItemType="2" />
    <MediaItem id="31" filePath="C:\Benelux_fenykepek_2016\MAH01873.MP4" arWidth="1920" arHeight="1080" duration="27" songTitle="" songArtist="" songAlbum="" songCopyrightUrl="" songArtistUrl="" songAudioFileUrl="" stabilizationMode="0" mediaItemType="1" />
    <MediaItem id="32" filePath="C:\Benelux_fenykepek_2016\MAH01874.MP4" arWidth="1920" arHeight="1080" duration="53.880000000000003" songTitle="" songArtist="" songAlbum="" songCopyrightUrl="" songArtistUrl="" songAudioFileUrl="" stabilizationMode="0" mediaItemType="1" />
    <MediaItem id="33" filePath="C:\Benelux_fenykepek_2016\MAH01875.MP4" arWidth="1920" arHeight="1080" duration="20.280000000000001" songTitle="" songArtist="" songAlbum="" songCopyrightUrl="" songArtistUrl="" songAudioFileUrl="" stabilizationMode="0" mediaItemType="1" />
    <MediaItem id="34" filePath="C:\Benelux_fenykepek_2016\DSC01913.JPG" arWidth="3648" arHeight="2056" duration="0" songTitle="" songArtist="" songAlbum="" songCopyrightUrl="" songArtistUrl="" songAudioFileUrl="" stabilizationMode="0" mediaItemType="2" />
    <MediaItem id="35" filePath="C:\Benelux_fenykepek_2016\MAH01877.MP4" arWidth="1920" arHeight="1080" duration="42.359999999999999" songTitle="" songArtist="" songAlbum="" songCopyrightUrl="" songArtistUrl="" songAudioFileUrl="" stabilizationMode="0" mediaItemType="1" />
    <MediaItem id="36" filePath="C:\Benelux_fenykepek_2016\MAH01878.MP4" arWidth="1920" arHeight="1080" duration="39.479999999999997" songTitle="" songArtist="" songAlbum="" songCopyrightUrl="" songArtistUrl="" songAudioFileUrl="" stabilizationMode="0" mediaItemType="1" />
    <MediaItem id="37" filePath="C:\Benelux_fenykepek_2016\MAH01879.MP4" arWidth="1920" arHeight="1080" duration="29.399999999999999" songTitle="" songArtist="" songAlbum="" songCopyrightUrl="" songArtistUrl="" songAudioFileUrl="" stabilizationMode="0" mediaItemType="1" />
    <MediaItem id="38" filePath="C:\Benelux_fenykepek_2016\MAH01880.MP4" arWidth="1920" arHeight="1080" duration="77.879999999999995" songTitle="" songArtist="" songAlbum="" songCopyrightUrl="" songArtistUrl="" songAudioFileUrl="" stabilizationMode="0" mediaItemType="1" />
    <MediaItem id="39" filePath="C:\Benelux_fenykepek_2016\MAH01881.MP4" arWidth="1920" arHeight="1080" duration="49.079999999999998" songTitle="" songArtist="" songAlbum="" songCopyrightUrl="" songArtistUrl="" songAudioFileUrl="" stabilizationMode="0" mediaItemType="1" />
    <MediaItem id="40" filePath="C:\Benelux_fenykepek_2016\MAH01882.MP4" arWidth="1920" arHeight="1080" duration="39.960000000000001" songTitle="" songArtist="" songAlbum="" songCopyrightUrl="" songArtistUrl="" songAudioFileUrl="" stabilizationMode="0" mediaItemType="1" />
    <MediaItem id="41" filePath="C:\Benelux_fenykepek_2016\MAH01883.MP4" arWidth="1920" arHeight="1080" duration="15.48" songTitle="" songArtist="" songAlbum="" songCopyrightUrl="" songArtistUrl="" songAudioFileUrl="" stabilizationMode="0" mediaItemType="1" />
    <MediaItem id="42" filePath="C:\Benelux_fenykepek_2016\MAH01885.MP4" arWidth="1920" arHeight="1080" duration="27.48" songTitle="" songArtist="" songAlbum="" songCopyrightUrl="" songArtistUrl="" songAudioFileUrl="" stabilizationMode="0" mediaItemType="1" />
    <MediaItem id="43" filePath="C:\Benelux_fenykepek_2016\MAH01886.MP4" arWidth="1920" arHeight="1080" duration="90.840000000000003" songTitle="" songArtist="" songAlbum="" songCopyrightUrl="" songArtistUrl="" songAudioFileUrl="" stabilizationMode="0" mediaItemType="1" />
    <MediaItem id="44" filePath="C:\Benelux_fenykepek_2016\MAH01887.MP4" arWidth="1920" arHeight="1080" duration="37.559959999999997" songTitle="" songArtist="" songAlbum="" songCopyrightUrl="" songArtistUrl="" songAudioFileUrl="" stabilizationMode="0" mediaItemType="1" />
    <MediaItem id="45" filePath="C:\Benelux_fenykepek_2016\DSC01980.JPG" arWidth="3648" arHeight="2056" duration="0" songTitle="" songArtist="" songAlbum="" songCopyrightUrl="" songArtistUrl="" songAudioFileUrl="" stabilizationMode="0" mediaItemType="2" />
    <MediaItem id="46" filePath="C:\Benelux_fenykepek_2016\DSC01889.JPG" arWidth="3648" arHeight="2056" duration="0" songTitle="" songArtist="" songAlbum="" songCopyrightUrl="" songArtistUrl="" songAudioFileUrl="" stabilizationMode="0" mediaItemType="2" />
    <MediaItem id="47" filePath="C:\Benelux_fenykepek_2016\DSC01890.JPG" arWidth="3648" arHeight="2056" duration="0" songTitle="" songArtist="" songAlbum="" songCopyrightUrl="" songArtistUrl="" songAudioFileUrl="" stabilizationMode="0" mediaItemType="2" />
    <MediaItem id="48" filePath="C:\Benelux_fenykepek_2016\DSC01892.JPG" arWidth="3648" arHeight="2056" duration="0" songTitle="" songArtist="" songAlbum="" songCopyrightUrl="" songArtistUrl="" songAudioFileUrl="" stabilizationMode="0" mediaItemType="2" />
    <MediaItem id="49" filePath="C:\Benelux_fenykepek_2016\DSC01893.JPG" arWidth="3648" arHeight="2056" duration="0" songTitle="" songArtist="" songAlbum="" songCopyrightUrl="" songArtistUrl="" songAudioFileUrl="" stabilizationMode="0" mediaItemType="2" />
    <MediaItem id="50" filePath="C:\Benelux_fenykepek_2016\DSC01915.JPG" arWidth="3648" arHeight="2056" duration="0" songTitle="" songArtist="" songAlbum="" songCopyrightUrl="" songArtistUrl="" songAudioFileUrl="" stabilizationMode="0" mediaItemType="2" />
    <MediaItem id="51" filePath="C:\Benelux_fenykepek_2016\DSC01981.JPG" arWidth="3648" arHeight="2056" duration="0" songTitle="" songArtist="" songAlbum="" songCopyrightUrl="" songArtistUrl="" songAudioFileUrl="" stabilizationMode="0" mediaItemType="2" />
    <MediaItem id="52" filePath="C:\Benelux_fenykepek_2016\DSC01917.JPG" arWidth="3648" arHeight="2056" duration="0" songTitle="" songArtist="" songAlbum="" songCopyrightUrl="" songArtistUrl="" songAudioFileUrl="" stabilizationMode="0" mediaItemType="2" />
    <MediaItem id="53" filePath="C:\Benelux_fenykepek_2016\DSC02090.JPG" arWidth="1280" arHeight="721" duration="0" songTitle="" songArtist="" songAlbum="" songCopyrightUrl="" songArtistUrl="" songAudioFileUrl="" stabilizationMode="0" mediaItemType="2" />
    <MediaItem id="54" filePath="C:\Benelux_fenykepek_2016\DSC01920.JPG" arWidth="3648" arHeight="2056" duration="0" songTitle="" songArtist="" songAlbum="" songCopyrightUrl="" songArtistUrl="" songAudioFileUrl="" stabilizationMode="0" mediaItemType="2" />
    <MediaItem id="55" filePath="C:\Benelux_fenykepek_2016\DSC01983.JPG" arWidth="3648" arHeight="2056" duration="0" songTitle="" songArtist="" songAlbum="" songCopyrightUrl="" songArtistUrl="" songAudioFileUrl="" stabilizationMode="0" mediaItemType="2" />
    <MediaItem id="56" filePath="C:\Benelux_fenykepek_2016\DSC01922.JPG" arWidth="3648" arHeight="2056" duration="0" songTitle="" songArtist="" songAlbum="" songCopyrightUrl="" songArtistUrl="" songAudioFileUrl="" stabilizationMode="0" mediaItemType="2" />
    <MediaItem id="57" filePath="C:\Benelux_fenykepek_2016\DSC01923.JPG" arWidth="3648" arHeight="2056" duration="0" songTitle="" songArtist="" songAlbum="" songCopyrightUrl="" songArtistUrl="" songAudioFileUrl="" stabilizationMode="0" mediaItemType="2" />
    <MediaItem id="58" filePath="C:\Benelux_fenykepek_2016\DSC01924.JPG" arWidth="1280" arHeight="721" duration="0" songTitle="" songArtist="" songAlbum="" songCopyrightUrl="" songArtistUrl="" songAudioFileUrl="" stabilizationMode="0" mediaItemType="2" />
    <MediaItem id="59" filePath="C:\Benelux_fenykepek_2016\DSC01925.JPG" arWidth="1280" arHeight="721" duration="0" songTitle="" songArtist="" songAlbum="" songCopyrightUrl="" songArtistUrl="" songAudioFileUrl="" stabilizationMode="0" mediaItemType="2" />
    <MediaItem id="60" filePath="C:\Benelux_fenykepek_2016\DSC01928.JPG" arWidth="3648" arHeight="2056" duration="0" songTitle="" songArtist="" songAlbum="" songCopyrightUrl="" songArtistUrl="" songAudioFileUrl="" stabilizationMode="0" mediaItemType="2" />
    <MediaItem id="61" filePath="C:\Benelux_fenykepek_2016\DSC01984.JPG" arWidth="2056" arHeight="3648" duration="0" songTitle="" songArtist="" songAlbum="" songCopyrightUrl="" songArtistUrl="" songAudioFileUrl="" stabilizationMode="0" mediaItemType="2" />
    <MediaItem id="62" filePath="C:\Benelux_fenykepek_2016\DSC01930.JPG" arWidth="3648" arHeight="2056" duration="0" songTitle="" songArtist="" songAlbum="" songCopyrightUrl="" songArtistUrl="" songAudioFileUrl="" stabilizationMode="0" mediaItemType="2" />
    <MediaItem id="63" filePath="C:\Benelux_fenykepek_2016\DSC01932.JPG" arWidth="3648" arHeight="2056" duration="0" songTitle="" songArtist="" songAlbum="" songCopyrightUrl="" songArtistUrl="" songAudioFileUrl="" stabilizationMode="0" mediaItemType="2" />
    <MediaItem id="64" filePath="C:\Benelux_fenykepek_2016\DSC01933.JPG" arWidth="3648" arHeight="2056" duration="0" songTitle="" songArtist="" songAlbum="" songCopyrightUrl="" songArtistUrl="" songAudioFileUrl="" stabilizationMode="0" mediaItemType="2" />
    <MediaItem id="65" filePath="C:\Benelux_fenykepek_2016\DSC01935.JPG" arWidth="3648" arHeight="2056" duration="0" songTitle="" songArtist="" songAlbum="" songCopyrightUrl="" songArtistUrl="" songAudioFileUrl="" stabilizationMode="0" mediaItemType="2" />
    <MediaItem id="66" filePath="C:\Benelux_fenykepek_2016\MAH01936.MP4" arWidth="1920" arHeight="1080" duration="28.920000000000002" songTitle="" songArtist="" songAlbum="" songCopyrightUrl="" songArtistUrl="" songAudioFileUrl="" stabilizationMode="0" mediaItemType="1" />
    <MediaItem id="67" filePath="C:\Benelux_fenykepek_2016\DSC02091.JPG" arWidth="1280" arHeight="721" duration="0" songTitle="" songArtist="" songAlbum="" songCopyrightUrl="" songArtistUrl="" songAudioFileUrl="" stabilizationMode="0" mediaItemType="2" />
    <MediaItem id="68" filePath="C:\Benelux_fenykepek_2016\MAH01938.MP4" arWidth="1920" arHeight="1080" duration="27.48" songTitle="" songArtist="" songAlbum="" songCopyrightUrl="" songArtistUrl="" songAudioFileUrl="" stabilizationMode="0" mediaItemType="1" />
    <MediaItem id="69" filePath="C:\Benelux_fenykepek_2016\MAH01939.MP4" arWidth="1920" arHeight="1080" duration="45.239999900000001" songTitle="" songArtist="" songAlbum="" songCopyrightUrl="" songArtistUrl="" songAudioFileUrl="" stabilizationMode="0" mediaItemType="1" />
    <MediaItem id="70" filePath="C:\Benelux_fenykepek_2016\MAH01940.MP4" arWidth="1920" arHeight="1080" duration="76.920000000000002" songTitle="" songArtist="" songAlbum="" songCopyrightUrl="" songArtistUrl="" songAudioFileUrl="" stabilizationMode="0" mediaItemType="1" />
    <MediaItem id="71" filePath="C:\Benelux_fenykepek_2016\MAH01941.MP4" arWidth="1920" arHeight="1080" duration="48.119999999999997" songTitle="" songArtist="" songAlbum="" songCopyrightUrl="" songArtistUrl="" songAudioFileUrl="" stabilizationMode="0" mediaItemType="1" />
    <MediaItem id="72" filePath="C:\Benelux_fenykepek_2016\DSC02092.JPG" arWidth="3648" arHeight="2056" duration="0" songTitle="" songArtist="" songAlbum="" songCopyrightUrl="" songArtistUrl="" songAudioFileUrl="" stabilizationMode="0" mediaItemType="2" />
    <MediaItem id="73" filePath="C:\Benelux_fenykepek_2016\MAH01943.MP4" arWidth="1920" arHeight="1080" duration="30.84" songTitle="" songArtist="" songAlbum="" songCopyrightUrl="" songArtistUrl="" songAudioFileUrl="" stabilizationMode="0" mediaItemType="1" />
    <MediaItem id="74" filePath="C:\Benelux_fenykepek_2016\MAH01945.MP4" arWidth="1920" arHeight="1080" duration="22.68" songTitle="" songArtist="" songAlbum="" songCopyrightUrl="" songArtistUrl="" songAudioFileUrl="" stabilizationMode="0" mediaItemType="1" />
    <MediaItem id="75" filePath="C:\Benelux_fenykepek_2016\MAH01946.MP4" arWidth="1920" arHeight="1080" duration="20.280000000000001" songTitle="" songArtist="" songAlbum="" songCopyrightUrl="" songArtistUrl="" songAudioFileUrl="" stabilizationMode="0" mediaItemType="1" />
    <MediaItem id="76" filePath="C:\Benelux_fenykepek_2016\MAH01947.MP4" arWidth="1920" arHeight="1080" duration="71.159999999999997" songTitle="" songArtist="" songAlbum="" songCopyrightUrl="" songArtistUrl="" songAudioFileUrl="" stabilizationMode="0" mediaItemType="1" />
    <MediaItem id="77" filePath="C:\Benelux_fenykepek_2016\MAH01948.MP4" arWidth="1920" arHeight="1080" duration="57.719999999999999" songTitle="" songArtist="" songAlbum="" songCopyrightUrl="" songArtistUrl="" songAudioFileUrl="" stabilizationMode="0" mediaItemType="1" />
    <MediaItem id="78" filePath="C:\Benelux_fenykepek_2016\MAH01949.MP4" arWidth="1920" arHeight="1080" duration="51.960000000000001" songTitle="" songArtist="" songAlbum="" songCopyrightUrl="" songArtistUrl="" songAudioFileUrl="" stabilizationMode="0" mediaItemType="1" />
    <MediaItem id="79" filePath="C:\Benelux_fenykepek_2016\MAH01951.MP4" arWidth="1920" arHeight="1080" duration="122.04000000000001" songTitle="" songArtist="" songAlbum="" songCopyrightUrl="" songArtistUrl="" songAudioFileUrl="" stabilizationMode="0" mediaItemType="1" />
    <MediaItem id="80" filePath="C:\Benelux_fenykepek_2016\MAH01952.MP4" arWidth="1920" arHeight="1080" duration="44.280000000000001" songTitle="" songArtist="" songAlbum="" songCopyrightUrl="" songArtistUrl="" songAudioFileUrl="" stabilizationMode="0" mediaItemType="1" />
    <MediaItem id="81" filePath="C:\Benelux_fenykepek_2016\DSC01953.JPG" arWidth="3648" arHeight="2056" duration="0" songTitle="" songArtist="" songAlbum="" songCopyrightUrl="" songArtistUrl="" songAudioFileUrl="" stabilizationMode="0" mediaItemType="2" />
    <MediaItem id="82" filePath="C:\Benelux_fenykepek_2016\DSC01954.JPG" arWidth="3648" arHeight="2056" duration="0" songTitle="" songArtist="" songAlbum="" songCopyrightUrl="" songArtistUrl="" songAudioFileUrl="" stabilizationMode="0" mediaItemType="2" />
    <MediaItem id="83" filePath="C:\Benelux_fenykepek_2016\DSC01955.JPG" arWidth="1280" arHeight="721" duration="0" songTitle="" songArtist="" songAlbum="" songCopyrightUrl="" songArtistUrl="" songAudioFileUrl="" stabilizationMode="0" mediaItemType="2" />
    <MediaItem id="84" filePath="C:\Benelux_fenykepek_2016\DSC01956.JPG" arWidth="1280" arHeight="721" duration="0" songTitle="" songArtist="" songAlbum="" songCopyrightUrl="" songArtistUrl="" songAudioFileUrl="" stabilizationMode="0" mediaItemType="2" />
    <MediaItem id="85" filePath="C:\Benelux_fenykepek_2016\DSC01957.JPG" arWidth="721" arHeight="1280" duration="0" songTitle="" songArtist="" songAlbum="" songCopyrightUrl="" songArtistUrl="" songAudioFileUrl="" stabilizationMode="0" mediaItemType="2" />
    <MediaItem id="86" filePath="C:\Benelux_fenykepek_2016\DSC01958.JPG" arWidth="1280" arHeight="721" duration="0" songTitle="" songArtist="" songAlbum="" songCopyrightUrl="" songArtistUrl="" songAudioFileUrl="" stabilizationMode="0" mediaItemType="2" />
    <MediaItem id="87" filePath="C:\Benelux_fenykepek_2016\DSC02094.JPG" arWidth="3648" arHeight="2056" duration="0" songTitle="" songArtist="" songAlbum="" songCopyrightUrl="" songArtistUrl="" songAudioFileUrl="" stabilizationMode="0" mediaItemType="2" />
    <MediaItem id="88" filePath="C:\Benelux_fenykepek_2016\DSC02095.JPG" arWidth="3648" arHeight="2056" duration="0" songTitle="" songArtist="" songAlbum="" songCopyrightUrl="" songArtistUrl="" songAudioFileUrl="" stabilizationMode="0" mediaItemType="2" />
    <MediaItem id="89" filePath="C:\Benelux_fenykepek_2016\DSC01961.JPG" arWidth="721" arHeight="1280" duration="0" songTitle="" songArtist="" songAlbum="" songCopyrightUrl="" songArtistUrl="" songAudioFileUrl="" stabilizationMode="0" mediaItemType="2" />
    <MediaItem id="90" filePath="C:\Benelux_fenykepek_2016\MAH02096.MP4" arWidth="1920" arHeight="1080" duration="34.68" songTitle="" songArtist="" songAlbum="" songCopyrightUrl="" songArtistUrl="" songAudioFileUrl="" stabilizationMode="0" mediaItemType="1" />
    <MediaItem id="91" filePath="C:\Benelux_fenykepek_2016\DSC01963.JPG" arWidth="721" arHeight="1280" duration="0" songTitle="" songArtist="" songAlbum="" songCopyrightUrl="" songArtistUrl="" songAudioFileUrl="" stabilizationMode="0" mediaItemType="2" />
    <MediaItem id="92" filePath="C:\Benelux_fenykepek_2016\DSC01965.JPG" arWidth="1280" arHeight="721" duration="0" songTitle="" songArtist="" songAlbum="" songCopyrightUrl="" songArtistUrl="" songAudioFileUrl="" stabilizationMode="0" mediaItemType="2" />
    <MediaItem id="93" filePath="C:\Benelux_fenykepek_2016\DSC02097.JPG" arWidth="3648" arHeight="2056" duration="0" songTitle="" songArtist="" songAlbum="" songCopyrightUrl="" songArtistUrl="" songAudioFileUrl="" stabilizationMode="0" mediaItemType="2" />
    <MediaItem id="94" filePath="C:\Benelux_fenykepek_2016\DSC02098.JPG" arWidth="3648" arHeight="2056" duration="0" songTitle="" songArtist="" songAlbum="" songCopyrightUrl="" songArtistUrl="" songAudioFileUrl="" stabilizationMode="0" mediaItemType="2" />
    <MediaItem id="95" filePath="C:\Benelux_fenykepek_2016\MAH01968.MP4" arWidth="1920" arHeight="1080" duration="59.640000000000001" songTitle="" songArtist="" songAlbum="" songCopyrightUrl="" songArtistUrl="" songAudioFileUrl="" stabilizationMode="0" mediaItemType="1" />
    <MediaItem id="96" filePath="C:\Benelux_fenykepek_2016\MAH01969.MP4" arWidth="1920" arHeight="1080" duration="44.759999999999998" songTitle="" songArtist="" songAlbum="" songCopyrightUrl="" songArtistUrl="" songAudioFileUrl="" stabilizationMode="0" mediaItemType="1" />
    <MediaItem id="97" filePath="C:\Benelux_fenykepek_2016\MAH01970.MP4" arWidth="1920" arHeight="1080" duration="45.239999900000001" songTitle="" songArtist="" songAlbum="" songCopyrightUrl="" songArtistUrl="" songAudioFileUrl="" stabilizationMode="0" mediaItemType="1" />
    <MediaItem id="98" filePath="C:\Benelux_fenykepek_2016\DSC01971.JPG" arWidth="3648" arHeight="2056" duration="0" songTitle="" songArtist="" songAlbum="" songCopyrightUrl="" songArtistUrl="" songAudioFileUrl="" stabilizationMode="0" mediaItemType="2" />
    <MediaItem id="99" filePath="C:\Benelux_fenykepek_2016\DSC01972.JPG" arWidth="3648" arHeight="2056" duration="0" songTitle="" songArtist="" songAlbum="" songCopyrightUrl="" songArtistUrl="" songAudioFileUrl="" stabilizationMode="0" mediaItemType="2" />
    <MediaItem id="100" filePath="C:\Benelux_fenykepek_2016\MAH01973.MP4" arWidth="1920" arHeight="1080" duration="15.48" songTitle="" songArtist="" songAlbum="" songCopyrightUrl="" songArtistUrl="" songAudioFileUrl="" stabilizationMode="0" mediaItemType="1" />
    <MediaItem id="101" filePath="C:\Benelux_fenykepek_2016\DSC01974.JPG" arWidth="3648" arHeight="2056" duration="0" songTitle="" songArtist="" songAlbum="" songCopyrightUrl="" songArtistUrl="" songAudioFileUrl="" stabilizationMode="0" mediaItemType="2" />
    <MediaItem id="102" filePath="C:\Benelux_fenykepek_2016\DSC01975.JPG" arWidth="3648" arHeight="2056" duration="0" songTitle="" songArtist="" songAlbum="" songCopyrightUrl="" songArtistUrl="" songAudioFileUrl="" stabilizationMode="0" mediaItemType="2" />
    <MediaItem id="103" filePath="C:\Benelux_fenykepek_2016\DSC01976.JPG" arWidth="3648" arHeight="2056" duration="0" songTitle="" songArtist="" songAlbum="" songCopyrightUrl="" songArtistUrl="" songAudioFileUrl="" stabilizationMode="0" mediaItemType="2" />
    <MediaItem id="104" filePath="C:\Benelux_fenykepek_2016\DSC02099.JPG" arWidth="2056" arHeight="3648" duration="0" songTitle="" songArtist="" songAlbum="" songCopyrightUrl="" songArtistUrl="" songAudioFileUrl="" stabilizationMode="0" mediaItemType="2" />
    <MediaItem id="105" filePath="C:\Benelux_fenykepek_2016\20160730_180155.jpg" arWidth="3264" arHeight="1836" duration="0" songTitle="" songArtist="" songAlbum="" songCopyrightUrl="" songArtistUrl="" songAudioFileUrl="" stabilizationMode="0" mediaItemType="2" />
    <MediaItem id="106" filePath="C:\Benelux_fenykepek_2016\DSC01985.JPG" arWidth="2056" arHeight="3648" duration="0" songTitle="" songArtist="" songAlbum="" songCopyrightUrl="" songArtistUrl="" songAudioFileUrl="" stabilizationMode="0" mediaItemType="2" />
    <MediaItem id="107" filePath="C:\Benelux_fenykepek_2016\20160730_181641.jpg" arWidth="1152" arHeight="2048" duration="0" songTitle="" songArtist="" songAlbum="" songCopyrightUrl="" songArtistUrl="" songAudioFileUrl="" stabilizationMode="0" mediaItemType="2" />
    <MediaItem id="108" filePath="C:\Benelux_fenykepek_2016\DSC01986.JPG" arWidth="3648" arHeight="2056" duration="0" songTitle="" songArtist="" songAlbum="" songCopyrightUrl="" songArtistUrl="" songAudioFileUrl="" stabilizationMode="0" mediaItemType="2" />
    <MediaItem id="109" filePath="C:\Benelux_fenykepek_2016\20160730_181917.jpg" arWidth="1152" arHeight="2048" duration="0" songTitle="" songArtist="" songAlbum="" songCopyrightUrl="" songArtistUrl="" songAudioFileUrl="" stabilizationMode="0" mediaItemType="2" />
    <MediaItem id="110" filePath="C:\Benelux_fenykepek_2016\20160730_182206.jpg" arWidth="1152" arHeight="2048" duration="0" songTitle="" songArtist="" songAlbum="" songCopyrightUrl="" songArtistUrl="" songAudioFileUrl="" stabilizationMode="0" mediaItemType="2" />
    <MediaItem id="111" filePath="C:\Benelux_fenykepek_2016\20160730_183412.jpg" arWidth="2048" arHeight="1152" duration="0" songTitle="" songArtist="" songAlbum="" songCopyrightUrl="" songArtistUrl="" songAudioFileUrl="" stabilizationMode="0" mediaItemType="2" />
    <MediaItem id="112" filePath="C:\Benelux_fenykepek_2016\20160730_184528.jpg" arWidth="2048" arHeight="1152" duration="0" songTitle="" songArtist="" songAlbum="" songCopyrightUrl="" songArtistUrl="" songAudioFileUrl="" stabilizationMode="0" mediaItemType="2" />
    <MediaItem id="113" filePath="C:\Benelux_fenykepek_2016\MAH01988.MP4" arWidth="1920" arHeight="1080" duration="32.759999999999998" songTitle="" songArtist="" songAlbum="" songCopyrightUrl="" songArtistUrl="" songAudioFileUrl="" stabilizationMode="0" mediaItemType="1" />
    <MediaItem id="114" filePath="C:\Users\anya\Desktop\Benelux letöltések\the_nightwatch_by_rembrandt.jpg" arWidth="1080" arHeight="900" duration="0" songTitle="" songArtist="" songAlbum="" songCopyrightUrl="" songArtistUrl="" songAudioFileUrl="" stabilizationMode="0" mediaItemType="2" />
    <MediaItem id="115" filePath="C:\Users\anya\Desktop\Benelux letöltések\JanSteen Szt.miklós ünnepe.jpg" arWidth="512" arHeight="512" duration="0" songTitle="" songArtist="" songAlbum="" songCopyrightUrl="" songArtistUrl="" songAudioFileUrl="" stabilizationMode="0" mediaItemType="2" />
    <MediaItem id="116" filePath="C:\Users\anya\Desktop\Benelux letöltések\JanSteen. Boldog család.jpg" arWidth="512" arHeight="512" duration="0" songTitle="" songArtist="" songAlbum="" songCopyrightUrl="" songArtistUrl="" songAudioFileUrl="" stabilizationMode="0" mediaItemType="2" />
    <MediaItem id="117" filePath="C:\Users\anya\Desktop\Benelux letöltések\JanSteen_Beteg hölgy és az orvos.jpg" arWidth="512" arHeight="512" duration="0" songTitle="" songArtist="" songAlbum="" songCopyrightUrl="" songArtistUrl="" songAudioFileUrl="" stabilizationMode="0" mediaItemType="2" />
    <MediaItem id="118" filePath="C:\Benelux_fenykepek_2016\DSC01989.JPG" arWidth="2056" arHeight="3648" duration="0" songTitle="" songArtist="" songAlbum="" songCopyrightUrl="" songArtistUrl="" songAudioFileUrl="" stabilizationMode="0" mediaItemType="2" />
    <MediaItem id="119" filePath="C:\Users\anya\Desktop\Benelux letöltések\Johannes_Vermeer_-Milkmaid.jpg" arWidth="1024" arHeight="1148" duration="0" songTitle="" songArtist="" songAlbum="" songCopyrightUrl="" songArtistUrl="" songAudioFileUrl="" stabilizationMode="0" mediaItemType="2" />
    <MediaItem id="121" filePath="C:\Benelux_fenykepek_2016\MAH01991.MP4" arWidth="1920" arHeight="1080" duration="24.600000000000001" songTitle="" songArtist="" songAlbum="" songCopyrightUrl="" songArtistUrl="" songAudioFileUrl="" stabilizationMode="0" mediaItemType="1" />
    <MediaItem id="122" filePath="C:\Benelux_fenykepek_2016\DSC01992.JPG" arWidth="3648" arHeight="2056" duration="0" songTitle="" songArtist="" songAlbum="" songCopyrightUrl="" songArtistUrl="" songAudioFileUrl="" stabilizationMode="0" mediaItemType="2" />
    <MediaItem id="124" filePath="C:\Benelux_fenykepek_2016\DSC01994.JPG" arWidth="2056" arHeight="3648" duration="0" songTitle="" songArtist="" songAlbum="" songCopyrightUrl="" songArtistUrl="" songAudioFileUrl="" stabilizationMode="0" mediaItemType="2" />
    <MediaItem id="125" filePath="C:\Benelux_fenykepek_2016\DSC01995.JPG" arWidth="3648" arHeight="2056" duration="0" songTitle="" songArtist="" songAlbum="" songCopyrightUrl="" songArtistUrl="" songAudioFileUrl="" stabilizationMode="0" mediaItemType="2" />
    <MediaItem id="126" filePath="C:\Benelux_fenykepek_2016\DSC01996.JPG" arWidth="2056" arHeight="3648" duration="0" songTitle="" songArtist="" songAlbum="" songCopyrightUrl="" songArtistUrl="" songAudioFileUrl="" stabilizationMode="0" mediaItemType="2" />
    <MediaItem id="128" filePath="C:\Benelux_fenykepek_2016\MAH01998.MP4" arWidth="1920" arHeight="1080" duration="36.600000000000001" songTitle="" songArtist="" songAlbum="" songCopyrightUrl="" songArtistUrl="" songAudioFileUrl="" stabilizationMode="0" mediaItemType="1" />
    <MediaItem id="132" filePath="C:\Benelux_fenykepek_2016\DSC02002.JPG" arWidth="3648" arHeight="2056" duration="0" songTitle="" songArtist="" songAlbum="" songCopyrightUrl="" songArtistUrl="" songAudioFileUrl="" stabilizationMode="0" mediaItemType="2" />
    <MediaItem id="133" filePath="C:\Benelux_fenykepek_2016\DSC02004.JPG" arWidth="3648" arHeight="2056" duration="0" songTitle="" songArtist="" songAlbum="" songCopyrightUrl="" songArtistUrl="" songAudioFileUrl="" stabilizationMode="0" mediaItemType="2" />
    <MediaItem id="134" filePath="C:\Benelux_fenykepek_2016\DSC02005.JPG" arWidth="2056" arHeight="3648" duration="0" songTitle="" songArtist="" songAlbum="" songCopyrightUrl="" songArtistUrl="" songAudioFileUrl="" stabilizationMode="0" mediaItemType="2" />
    <MediaItem id="136" filePath="C:\Benelux_fenykepek_2016\DSC02007.JPG" arWidth="3648" arHeight="2056" duration="0" songTitle="" songArtist="" songAlbum="" songCopyrightUrl="" songArtistUrl="" songAudioFileUrl="" stabilizationMode="0" mediaItemType="2" />
    <MediaItem id="137" filePath="C:\Benelux_fenykepek_2016\DSC02010.JPG" arWidth="2056" arHeight="3648" duration="0" songTitle="" songArtist="" songAlbum="" songCopyrightUrl="" songArtistUrl="" songAudioFileUrl="" stabilizationMode="0" mediaItemType="2" />
    <MediaItem id="138" filePath="C:\Benelux_fenykepek_2016\DSC02012.JPG" arWidth="3648" arHeight="2056" duration="0" songTitle="" songArtist="" songAlbum="" songCopyrightUrl="" songArtistUrl="" songAudioFileUrl="" stabilizationMode="0" mediaItemType="2" />
    <MediaItem id="140" filePath="C:\Benelux_fenykepek_2016\DSC02014.JPG" arWidth="3648" arHeight="2056" duration="0" songTitle="" songArtist="" songAlbum="" songCopyrightUrl="" songArtistUrl="" songAudioFileUrl="" stabilizationMode="0" mediaItemType="2" />
    <MediaItem id="141" filePath="C:\Benelux_fenykepek_2016\DSC02015.JPG" arWidth="3648" arHeight="2056" duration="0" songTitle="" songArtist="" songAlbum="" songCopyrightUrl="" songArtistUrl="" songAudioFileUrl="" stabilizationMode="0" mediaItemType="2" />
    <MediaItem id="142" filePath="C:\Benelux_fenykepek_2016\DSC02016.JPG" arWidth="3648" arHeight="2056" duration="0" songTitle="" songArtist="" songAlbum="" songCopyrightUrl="" songArtistUrl="" songAudioFileUrl="" stabilizationMode="0" mediaItemType="2" />
    <MediaItem id="143" filePath="C:\Benelux_fenykepek_2016\DSC02017.JPG" arWidth="3648" arHeight="2056" duration="0" songTitle="" songArtist="" songAlbum="" songCopyrightUrl="" songArtistUrl="" songAudioFileUrl="" stabilizationMode="0" mediaItemType="2" />
    <MediaItem id="144" filePath="C:\Benelux_fenykepek_2016\DSC02018.JPG" arWidth="2056" arHeight="3648" duration="0" songTitle="" songArtist="" songAlbum="" songCopyrightUrl="" songArtistUrl="" songAudioFileUrl="" stabilizationMode="0" mediaItemType="2" />
    <MediaItem id="145" filePath="C:\Benelux_fenykepek_2016\DSC02019.JPG" arWidth="3648" arHeight="2056" duration="0" songTitle="" songArtist="" songAlbum="" songCopyrightUrl="" songArtistUrl="" songAudioFileUrl="" stabilizationMode="0" mediaItemType="2" />
    <MediaItem id="146" filePath="C:\Benelux_fenykepek_2016\DSC02020.JPG" arWidth="3648" arHeight="2056" duration="0" songTitle="" songArtist="" songAlbum="" songCopyrightUrl="" songArtistUrl="" songAudioFileUrl="" stabilizationMode="0" mediaItemType="2" />
    <MediaItem id="149" filePath="C:\Benelux_fenykepek_2016\DSC02023.JPG" arWidth="3648" arHeight="2056" duration="0" songTitle="" songArtist="" songAlbum="" songCopyrightUrl="" songArtistUrl="" songAudioFileUrl="" stabilizationMode="0" mediaItemType="2" />
    <MediaItem id="150" filePath="C:\Benelux_fenykepek_2016\DSC02024.JPG" arWidth="3648" arHeight="2056" duration="0" songTitle="" songArtist="" songAlbum="" songCopyrightUrl="" songArtistUrl="" songAudioFileUrl="" stabilizationMode="0" mediaItemType="2" />
    <MediaItem id="151" filePath="C:\Benelux_fenykepek_2016\DSC02025.JPG" arWidth="3648" arHeight="2056" duration="0" songTitle="" songArtist="" songAlbum="" songCopyrightUrl="" songArtistUrl="" songAudioFileUrl="" stabilizationMode="0" mediaItemType="2" />
    <MediaItem id="152" filePath="C:\Benelux_fenykepek_2016\DSC02026.JPG" arWidth="3648" arHeight="2056" duration="0" songTitle="" songArtist="" songAlbum="" songCopyrightUrl="" songArtistUrl="" songAudioFileUrl="" stabilizationMode="0" mediaItemType="2" />
    <MediaItem id="154" filePath="C:\Benelux_fenykepek_2016\DSC02028.JPG" arWidth="3648" arHeight="2056" duration="0" songTitle="" songArtist="" songAlbum="" songCopyrightUrl="" songArtistUrl="" songAudioFileUrl="" stabilizationMode="0" mediaItemType="2" />
    <MediaItem id="156" filePath="C:\Benelux_fenykepek_2016\DSC02031.JPG" arWidth="3648" arHeight="2056" duration="0" songTitle="" songArtist="" songAlbum="" songCopyrightUrl="" songArtistUrl="" songAudioFileUrl="" stabilizationMode="0" mediaItemType="2" />
    <MediaItem id="158" filePath="C:\Benelux_fenykepek_2016\DSC02033.JPG" arWidth="3648" arHeight="2056" duration="0" songTitle="" songArtist="" songAlbum="" songCopyrightUrl="" songArtistUrl="" songAudioFileUrl="" stabilizationMode="0" mediaItemType="2" />
    <MediaItem id="160" filePath="C:\Benelux_fenykepek_2016\DSC02035.JPG" arWidth="2056" arHeight="3648" duration="0" songTitle="" songArtist="" songAlbum="" songCopyrightUrl="" songArtistUrl="" songAudioFileUrl="" stabilizationMode="0" mediaItemType="2" />
    <MediaItem id="161" filePath="C:\Benelux_fenykepek_2016\DSC02036.JPG" arWidth="3648" arHeight="2056" duration="0" songTitle="" songArtist="" songAlbum="" songCopyrightUrl="" songArtistUrl="" songAudioFileUrl="" stabilizationMode="0" mediaItemType="2" />
    <MediaItem id="162" filePath="C:\Benelux_fenykepek_2016\DSC02038.JPG" arWidth="1280" arHeight="721" duration="0" songTitle="" songArtist="" songAlbum="" songCopyrightUrl="" songArtistUrl="" songAudioFileUrl="" stabilizationMode="0" mediaItemType="2" />
    <MediaItem id="163" filePath="C:\Benelux_fenykepek_2016\DSC02039.JPG" arWidth="2056" arHeight="3648" duration="0" songTitle="" songArtist="" songAlbum="" songCopyrightUrl="" songArtistUrl="" songAudioFileUrl="" stabilizationMode="0" mediaItemType="2" />
    <MediaItem id="164" filePath="C:\Benelux_fenykepek_2016\DSC02040.JPG" arWidth="2056" arHeight="3648" duration="0" songTitle="" songArtist="" songAlbum="" songCopyrightUrl="" songArtistUrl="" songAudioFileUrl="" stabilizationMode="0" mediaItemType="2" />
    <MediaItem id="165" filePath="C:\Benelux_fenykepek_2016\DSC02041.JPG" arWidth="3648" arHeight="2056" duration="0" songTitle="" songArtist="" songAlbum="" songCopyrightUrl="" songArtistUrl="" songAudioFileUrl="" stabilizationMode="0" mediaItemType="2" />
    <MediaItem id="166" filePath="C:\Benelux_fenykepek_2016\DSC02042.JPG" arWidth="3648" arHeight="2056" duration="0" songTitle="" songArtist="" songAlbum="" songCopyrightUrl="" songArtistUrl="" songAudioFileUrl="" stabilizationMode="0" mediaItemType="2" />
    <MediaItem id="167" filePath="C:\Benelux_fenykepek_2016\DSC02043.JPG" arWidth="3648" arHeight="2056" duration="0" songTitle="" songArtist="" songAlbum="" songCopyrightUrl="" songArtistUrl="" songAudioFileUrl="" stabilizationMode="0" mediaItemType="2" />
    <MediaItem id="168" filePath="C:\Benelux_fenykepek_2016\DSC02044.JPG" arWidth="3648" arHeight="2056" duration="0" songTitle="" songArtist="" songAlbum="" songCopyrightUrl="" songArtistUrl="" songAudioFileUrl="" stabilizationMode="0" mediaItemType="2" />
    <MediaItem id="171" filePath="C:\Benelux_fenykepek_2016\DSC02047.JPG" arWidth="3648" arHeight="2056" duration="0" songTitle="" songArtist="" songAlbum="" songCopyrightUrl="" songArtistUrl="" songAudioFileUrl="" stabilizationMode="0" mediaItemType="2" />
    <MediaItem id="172" filePath="C:\Benelux_fenykepek_2016\DSC02049.JPG" arWidth="3648" arHeight="2056" duration="0" songTitle="" songArtist="" songAlbum="" songCopyrightUrl="" songArtistUrl="" songAudioFileUrl="" stabilizationMode="0" mediaItemType="2" />
    <MediaItem id="173" filePath="C:\Benelux_fenykepek_2016\DSC02050.JPG" arWidth="3648" arHeight="2056" duration="0" songTitle="" songArtist="" songAlbum="" songCopyrightUrl="" songArtistUrl="" songAudioFileUrl="" stabilizationMode="0" mediaItemType="2" />
    <MediaItem id="174" filePath="C:\Benelux_fenykepek_2016\DSC02051.JPG" arWidth="2056" arHeight="3648" duration="0" songTitle="" songArtist="" songAlbum="" songCopyrightUrl="" songArtistUrl="" songAudioFileUrl="" stabilizationMode="0" mediaItemType="2" />
    <MediaItem id="175" filePath="C:\Benelux_fenykepek_2016\DSC02052.JPG" arWidth="1280" arHeight="721" duration="0" songTitle="" songArtist="" songAlbum="" songCopyrightUrl="" songArtistUrl="" songAudioFileUrl="" stabilizationMode="0" mediaItemType="2" />
    <MediaItem id="176" filePath="C:\Benelux_fenykepek_2016\DSC02053.JPG" arWidth="2056" arHeight="3648" duration="0" songTitle="" songArtist="" songAlbum="" songCopyrightUrl="" songArtistUrl="" songAudioFileUrl="" stabilizationMode="0" mediaItemType="2" />
    <MediaItem id="177" filePath="C:\Benelux_fenykepek_2016\DSC02054.JPG" arWidth="3648" arHeight="2056" duration="0" songTitle="" songArtist="" songAlbum="" songCopyrightUrl="" songArtistUrl="" songAudioFileUrl="" stabilizationMode="0" mediaItemType="2" />
    <MediaItem id="181" filePath="C:\Benelux_fenykepek_2016\MAH02060.MP4" arWidth="1920" arHeight="1080" duration="26.039999999999999" songTitle="" songArtist="" songAlbum="" songCopyrightUrl="" songArtistUrl="" songAudioFileUrl="" stabilizationMode="0" mediaItemType="1" />
    <MediaItem id="182" filePath="C:\Benelux_fenykepek_2016\DSC02061.JPG" arWidth="3648" arHeight="2056" duration="0" songTitle="" songArtist="" songAlbum="" songCopyrightUrl="" songArtistUrl="" songAudioFileUrl="" stabilizationMode="0" mediaItemType="2" />
    <MediaItem id="185" filePath="C:\Benelux_fenykepek_2016\DSC02064.JPG" arWidth="3648" arHeight="2056" duration="0" songTitle="" songArtist="" songAlbum="" songCopyrightUrl="" songArtistUrl="" songAudioFileUrl="" stabilizationMode="0" mediaItemType="2" />
    <MediaItem id="186" filePath="C:\Benelux_fenykepek_2016\DSC02065.JPG" arWidth="3648" arHeight="2056" duration="0" songTitle="" songArtist="" songAlbum="" songCopyrightUrl="" songArtistUrl="" songAudioFileUrl="" stabilizationMode="0" mediaItemType="2" />
    <MediaItem id="187" filePath="C:\Benelux_fenykepek_2016\DSC02066.JPG" arWidth="3648" arHeight="2056" duration="0" songTitle="" songArtist="" songAlbum="" songCopyrightUrl="" songArtistUrl="" songAudioFileUrl="" stabilizationMode="0" mediaItemType="2" />
    <MediaItem id="188" filePath="C:\Benelux_fenykepek_2016\DSC02067.JPG" arWidth="3648" arHeight="2056" duration="0" songTitle="" songArtist="" songAlbum="" songCopyrightUrl="" songArtistUrl="" songAudioFileUrl="" stabilizationMode="0" mediaItemType="2" />
    <MediaItem id="189" filePath="C:\Benelux_fenykepek_2016\DSC02068.JPG" arWidth="2056" arHeight="3648" duration="0" songTitle="" songArtist="" songAlbum="" songCopyrightUrl="" songArtistUrl="" songAudioFileUrl="" stabilizationMode="0" mediaItemType="2" />
    <MediaItem id="190" filePath="C:\Benelux_fenykepek_2016\DSC02069.JPG" arWidth="3648" arHeight="2056" duration="0" songTitle="" songArtist="" songAlbum="" songCopyrightUrl="" songArtistUrl="" songAudioFileUrl="" stabilizationMode="0" mediaItemType="2" />
    <MediaItem id="191" filePath="C:\Benelux_fenykepek_2016\DSC02070.JPG" arWidth="3648" arHeight="2056" duration="0" songTitle="" songArtist="" songAlbum="" songCopyrightUrl="" songArtistUrl="" songAudioFileUrl="" stabilizationMode="0" mediaItemType="2" />
    <MediaItem id="192" filePath="C:\Benelux_fenykepek_2016\DSC02071.JPG" arWidth="3648" arHeight="2056" duration="0" songTitle="" songArtist="" songAlbum="" songCopyrightUrl="" songArtistUrl="" songAudioFileUrl="" stabilizationMode="0" mediaItemType="2" />
    <MediaItem id="193" filePath="C:\Benelux_fenykepek_2016\DSC02072.JPG" arWidth="2056" arHeight="3648" duration="0" songTitle="" songArtist="" songAlbum="" songCopyrightUrl="" songArtistUrl="" songAudioFileUrl="" stabilizationMode="0" mediaItemType="2" />
    <MediaItem id="194" filePath="C:\Benelux_fenykepek_2016\MAH02073.MP4" arWidth="1920" arHeight="1080" duration="73.560000000000002" songTitle="" songArtist="" songAlbum="" songCopyrightUrl="" songArtistUrl="" songAudioFileUrl="" stabilizationMode="0" mediaItemType="1" />
    <MediaItem id="195" filePath="C:\Benelux_fenykepek_2016\DSC02075.JPG" arWidth="2056" arHeight="3648" duration="0" songTitle="" songArtist="" songAlbum="" songCopyrightUrl="" songArtistUrl="" songAudioFileUrl="" stabilizationMode="0" mediaItemType="2" />
    <MediaItem id="196" filePath="C:\Benelux_fenykepek_2016\DSC02076.JPG" arWidth="3648" arHeight="2056" duration="0" songTitle="" songArtist="" songAlbum="" songCopyrightUrl="" songArtistUrl="" songAudioFileUrl="" stabilizationMode="0" mediaItemType="2" />
    <MediaItem id="197" filePath="C:\Benelux_fenykepek_2016\DSC02077.JPG" arWidth="2056" arHeight="3648" duration="0" songTitle="" songArtist="" songAlbum="" songCopyrightUrl="" songArtistUrl="" songAudioFileUrl="" stabilizationMode="0" mediaItemType="2" />
    <MediaItem id="199" filePath="C:\Benelux_fenykepek_2016\DSC02079.JPG" arWidth="2056" arHeight="3648" duration="0" songTitle="" songArtist="" songAlbum="" songCopyrightUrl="" songArtistUrl="" songAudioFileUrl="" stabilizationMode="0" mediaItemType="2" />
    <MediaItem id="201" filePath="C:\Benelux_fenykepek_2016\DSC02081.JPG" arWidth="3648" arHeight="2056" duration="0" songTitle="" songArtist="" songAlbum="" songCopyrightUrl="" songArtistUrl="" songAudioFileUrl="" stabilizationMode="0" mediaItemType="2" />
    <MediaItem id="202" filePath="C:\Benelux_fenykepek_2016\DSC02084.JPG" arWidth="3648" arHeight="2056" duration="0" songTitle="" songArtist="" songAlbum="" songCopyrightUrl="" songArtistUrl="" songAudioFileUrl="" stabilizationMode="0" mediaItemType="2" />
    <MediaItem id="204" filePath="C:\Benelux_fenykepek_2016\DSC02087.JPG" arWidth="3648" arHeight="2056" duration="0" songTitle="" songArtist="" songAlbum="" songCopyrightUrl="" songArtistUrl="" songAudioFileUrl="" stabilizationMode="0" mediaItemType="2" />
    <MediaItem id="207" filePath="C:\Benelux_fenykepek_2016\DSC02100.JPG" arWidth="3648" arHeight="2056" duration="0" songTitle="" songArtist="" songAlbum="" songCopyrightUrl="" songArtistUrl="" songAudioFileUrl="" stabilizationMode="0" mediaItemType="2" />
    <MediaItem id="208" filePath="C:\Benelux_fenykepek_2016\MAH02101.MP4" arWidth="1920" arHeight="1080" duration="33.719999999999999" songTitle="" songArtist="" songAlbum="" songCopyrightUrl="" songArtistUrl="" songAudioFileUrl="" stabilizationMode="0" mediaItemType="1" />
    <MediaItem id="209" filePath="C:\Benelux_fenykepek_2016\DSC02102.JPG" arWidth="3648" arHeight="2056" duration="0" songTitle="" songArtist="" songAlbum="" songCopyrightUrl="" songArtistUrl="" songAudioFileUrl="" stabilizationMode="0" mediaItemType="2" />
    <MediaItem id="210" filePath="C:\Benelux_fenykepek_2016\DSC02103.JPG" arWidth="3648" arHeight="2056" duration="0" songTitle="" songArtist="" songAlbum="" songCopyrightUrl="" songArtistUrl="" songAudioFileUrl="" stabilizationMode="0" mediaItemType="2" />
    <MediaItem id="211" filePath="C:\Benelux_fenykepek_2016\DSC02104.JPG" arWidth="2056" arHeight="3648" duration="0" songTitle="" songArtist="" songAlbum="" songCopyrightUrl="" songArtistUrl="" songAudioFileUrl="" stabilizationMode="0" mediaItemType="2" />
    <MediaItem id="212" filePath="C:\Benelux_fenykepek_2016\DSC02105.JPG" arWidth="3648" arHeight="2056" duration="0" songTitle="" songArtist="" songAlbum="" songCopyrightUrl="" songArtistUrl="" songAudioFileUrl="" stabilizationMode="0" mediaItemType="2" />
    <MediaItem id="213" filePath="C:\Benelux_fenykepek_2016\DSC02106.JPG" arWidth="3648" arHeight="2056" duration="0" songTitle="" songArtist="" songAlbum="" songCopyrightUrl="" songArtistUrl="" songAudioFileUrl="" stabilizationMode="0" mediaItemType="2" />
    <MediaItem id="214" filePath="C:\Benelux_fenykepek_2016\DSC02107.JPG" arWidth="2056" arHeight="3648" duration="0" songTitle="" songArtist="" songAlbum="" songCopyrightUrl="" songArtistUrl="" songAudioFileUrl="" stabilizationMode="0" mediaItemType="2" />
    <MediaItem id="215" filePath="C:\Benelux_fenykepek_2016\DSC02108.JPG" arWidth="3648" arHeight="2056" duration="0" songTitle="" songArtist="" songAlbum="" songCopyrightUrl="" songArtistUrl="" songAudioFileUrl="" stabilizationMode="0" mediaItemType="2" />
    <MediaItem id="216" filePath="C:\Benelux_fenykepek_2016\DSC02109.JPG" arWidth="3648" arHeight="2056" duration="0" songTitle="" songArtist="" songAlbum="" songCopyrightUrl="" songArtistUrl="" songAudioFileUrl="" stabilizationMode="0" mediaItemType="2" />
    <MediaItem id="217" filePath="C:\Benelux_fenykepek_2016\DSC02110.JPG" arWidth="3648" arHeight="2056" duration="0" songTitle="" songArtist="" songAlbum="" songCopyrightUrl="" songArtistUrl="" songAudioFileUrl="" stabilizationMode="0" mediaItemType="2" />
    <MediaItem id="218" filePath="C:\Benelux_fenykepek_2016\DSC02111.JPG" arWidth="3648" arHeight="2056" duration="0" songTitle="" songArtist="" songAlbum="" songCopyrightUrl="" songArtistUrl="" songAudioFileUrl="" stabilizationMode="0" mediaItemType="2" />
    <MediaItem id="219" filePath="C:\Benelux_fenykepek_2016\MAH02114.MP4" arWidth="1920" arHeight="1080" duration="38.039999999999999" songTitle="" songArtist="" songAlbum="" songCopyrightUrl="" songArtistUrl="" songAudioFileUrl="" stabilizationMode="0" mediaItemType="1" />
    <MediaItem id="220" filePath="C:\Benelux_fenykepek_2016\MAH02115.MP4" arWidth="1920" arHeight="1080" duration="20.280000000000001" songTitle="" songArtist="" songAlbum="" songCopyrightUrl="" songArtistUrl="" songAudioFileUrl="" stabilizationMode="0" mediaItemType="1" />
    <MediaItem id="221" filePath="C:\Benelux_fenykepek_2016\MAH02116.MP4" arWidth="1920" arHeight="1080" duration="13.56" songTitle="" songArtist="" songAlbum="" songCopyrightUrl="" songArtistUrl="" songAudioFileUrl="" stabilizationMode="0" mediaItemType="1" />
    <MediaItem id="222" filePath="C:\Benelux_fenykepek_2016\DSC02117.JPG" arWidth="3648" arHeight="2056" duration="0" songTitle="" songArtist="" songAlbum="" songCopyrightUrl="" songArtistUrl="" songAudioFileUrl="" stabilizationMode="0" mediaItemType="2" />
    <MediaItem id="223" filePath="C:\Benelux_fenykepek_2016\DSC02118.JPG" arWidth="2056" arHeight="3648" duration="0" songTitle="" songArtist="" songAlbum="" songCopyrightUrl="" songArtistUrl="" songAudioFileUrl="" stabilizationMode="0" mediaItemType="2" />
    <MediaItem id="224" filePath="C:\Benelux_fenykepek_2016\DSC02119.JPG" arWidth="2056" arHeight="3648" duration="0" songTitle="" songArtist="" songAlbum="" songCopyrightUrl="" songArtistUrl="" songAudioFileUrl="" stabilizationMode="0" mediaItemType="2" />
    <MediaItem id="225" filePath="C:\Benelux_fenykepek_2016\DSC02120.JPG" arWidth="3648" arHeight="2056" duration="0" songTitle="" songArtist="" songAlbum="" songCopyrightUrl="" songArtistUrl="" songAudioFileUrl="" stabilizationMode="0" mediaItemType="2" />
    <MediaItem id="226" filePath="C:\Benelux_fenykepek_2016\DSC02121.JPG" arWidth="3648" arHeight="2056" duration="0" songTitle="" songArtist="" songAlbum="" songCopyrightUrl="" songArtistUrl="" songAudioFileUrl="" stabilizationMode="0" mediaItemType="2" />
    <MediaItem id="227" filePath="C:\Benelux_fenykepek_2016\DSC02122.JPG" arWidth="3648" arHeight="2056" duration="0" songTitle="" songArtist="" songAlbum="" songCopyrightUrl="" songArtistUrl="" songAudioFileUrl="" stabilizationMode="0" mediaItemType="2" />
    <MediaItem id="228" filePath="C:\Benelux_fenykepek_2016\DSC02123.JPG" arWidth="2056" arHeight="3648" duration="0" songTitle="" songArtist="" songAlbum="" songCopyrightUrl="" songArtistUrl="" songAudioFileUrl="" stabilizationMode="0" mediaItemType="2" />
    <MediaItem id="229" filePath="C:\Benelux_fenykepek_2016\DSC02124.JPG" arWidth="3648" arHeight="2056" duration="0" songTitle="" songArtist="" songAlbum="" songCopyrightUrl="" songArtistUrl="" songAudioFileUrl="" stabilizationMode="0" mediaItemType="2" />
    <MediaItem id="230" filePath="C:\Benelux_fenykepek_2016\DSC02125.JPG" arWidth="2056" arHeight="3648" duration="0" songTitle="" songArtist="" songAlbum="" songCopyrightUrl="" songArtistUrl="" songAudioFileUrl="" stabilizationMode="0" mediaItemType="2" />
    <MediaItem id="231" filePath="C:\Benelux_fenykepek_2016\DSC02126.JPG" arWidth="2056" arHeight="3648" duration="0" songTitle="" songArtist="" songAlbum="" songCopyrightUrl="" songArtistUrl="" songAudioFileUrl="" stabilizationMode="0" mediaItemType="2" />
    <MediaItem id="232" filePath="C:\Benelux_fenykepek_2016\DSC02127.JPG" arWidth="3648" arHeight="2056" duration="0" songTitle="" songArtist="" songAlbum="" songCopyrightUrl="" songArtistUrl="" songAudioFileUrl="" stabilizationMode="0" mediaItemType="2" />
    <MediaItem id="233" filePath="C:\Benelux_fenykepek_2016\DSC02128.JPG" arWidth="2056" arHeight="3648" duration="0" songTitle="" songArtist="" songAlbum="" songCopyrightUrl="" songArtistUrl="" songAudioFileUrl="" stabilizationMode="0" mediaItemType="2" />
    <MediaItem id="234" filePath="C:\Benelux_fenykepek_2016\DSC02129.JPG" arWidth="3648" arHeight="2056" duration="0" songTitle="" songArtist="" songAlbum="" songCopyrightUrl="" songArtistUrl="" songAudioFileUrl="" stabilizationMode="0" mediaItemType="2" />
    <MediaItem id="235" filePath="C:\Benelux_fenykepek_2016\DSC02131.JPG" arWidth="2056" arHeight="3648" duration="0" songTitle="" songArtist="" songAlbum="" songCopyrightUrl="" songArtistUrl="" songAudioFileUrl="" stabilizationMode="0" mediaItemType="2" />
    <MediaItem id="236" filePath="C:\Benelux_fenykepek_2016\DSC02132.JPG" arWidth="3648" arHeight="2056" duration="0" songTitle="" songArtist="" songAlbum="" songCopyrightUrl="" songArtistUrl="" songAudioFileUrl="" stabilizationMode="0" mediaItemType="2" />
    <MediaItem id="237" filePath="C:\Benelux_fenykepek_2016\DSC02134.JPG" arWidth="3648" arHeight="2056" duration="0" songTitle="" songArtist="" songAlbum="" songCopyrightUrl="" songArtistUrl="" songAudioFileUrl="" stabilizationMode="0" mediaItemType="2" />
    <MediaItem id="238" filePath="C:\Benelux_fenykepek_2016\DSC02135.JPG" arWidth="2056" arHeight="3648" duration="0" songTitle="" songArtist="" songAlbum="" songCopyrightUrl="" songArtistUrl="" songAudioFileUrl="" stabilizationMode="0" mediaItemType="2" />
    <MediaItem id="239" filePath="C:\Benelux_fenykepek_2016\DSC02136.JPG" arWidth="3648" arHeight="2056" duration="0" songTitle="" songArtist="" songAlbum="" songCopyrightUrl="" songArtistUrl="" songAudioFileUrl="" stabilizationMode="0" mediaItemType="2" />
    <MediaItem id="240" filePath="C:\Benelux_fenykepek_2016\DSC02137.JPG" arWidth="3648" arHeight="2056" duration="0" songTitle="" songArtist="" songAlbum="" songCopyrightUrl="" songArtistUrl="" songAudioFileUrl="" stabilizationMode="0" mediaItemType="2" />
    <MediaItem id="241" filePath="C:\Benelux_fenykepek_2016\DSC02138.JPG" arWidth="3648" arHeight="2056" duration="0" songTitle="" songArtist="" songAlbum="" songCopyrightUrl="" songArtistUrl="" songAudioFileUrl="" stabilizationMode="0" mediaItemType="2" />
    <MediaItem id="242" filePath="C:\Benelux_fenykepek_2016\DSC02139.JPG" arWidth="3648" arHeight="2056" duration="0" songTitle="" songArtist="" songAlbum="" songCopyrightUrl="" songArtistUrl="" songAudioFileUrl="" stabilizationMode="0" mediaItemType="2" />
    <MediaItem id="243" filePath="C:\Benelux_fenykepek_2016\DSC02140.JPG" arWidth="2056" arHeight="3648" duration="0" songTitle="" songArtist="" songAlbum="" songCopyrightUrl="" songArtistUrl="" songAudioFileUrl="" stabilizationMode="0" mediaItemType="2" />
    <MediaItem id="244" filePath="C:\Benelux_fenykepek_2016\DSC02141.JPG" arWidth="3648" arHeight="2056" duration="0" songTitle="" songArtist="" songAlbum="" songCopyrightUrl="" songArtistUrl="" songAudioFileUrl="" stabilizationMode="0" mediaItemType="2" />
    <MediaItem id="245" filePath="C:\Benelux_fenykepek_2016\DSC02142.JPG" arWidth="3648" arHeight="2056" duration="0" songTitle="" songArtist="" songAlbum="" songCopyrightUrl="" songArtistUrl="" songAudioFileUrl="" stabilizationMode="0" mediaItemType="2" />
    <MediaItem id="246" filePath="C:\Benelux_fenykepek_2016\DSC02143.JPG" arWidth="3648" arHeight="2056" duration="0" songTitle="" songArtist="" songAlbum="" songCopyrightUrl="" songArtistUrl="" songAudioFileUrl="" stabilizationMode="0" mediaItemType="2" />
    <MediaItem id="247" filePath="C:\Benelux_fenykepek_2016\DSC02144.JPG" arWidth="2056" arHeight="3648" duration="0" songTitle="" songArtist="" songAlbum="" songCopyrightUrl="" songArtistUrl="" songAudioFileUrl="" stabilizationMode="0" mediaItemType="2" />
    <MediaItem id="248" filePath="C:\Benelux_fenykepek_2016\DSC02145.JPG" arWidth="2056" arHeight="3648" duration="0" songTitle="" songArtist="" songAlbum="" songCopyrightUrl="" songArtistUrl="" songAudioFileUrl="" stabilizationMode="0" mediaItemType="2" />
    <MediaItem id="249" filePath="C:\Benelux_fenykepek_2016\DSC02146.JPG" arWidth="3648" arHeight="2056" duration="0" songTitle="" songArtist="" songAlbum="" songCopyrightUrl="" songArtistUrl="" songAudioFileUrl="" stabilizationMode="0" mediaItemType="2" />
    <MediaItem id="250" filePath="C:\Benelux_fenykepek_2016\DSC02147.JPG" arWidth="3648" arHeight="2056" duration="0" songTitle="" songArtist="" songAlbum="" songCopyrightUrl="" songArtistUrl="" songAudioFileUrl="" stabilizationMode="0" mediaItemType="2" />
    <MediaItem id="251" filePath="C:\Benelux_fenykepek_2016\DSC02148.JPG" arWidth="2056" arHeight="3648" duration="0" songTitle="" songArtist="" songAlbum="" songCopyrightUrl="" songArtistUrl="" songAudioFileUrl="" stabilizationMode="0" mediaItemType="2" />
    <MediaItem id="252" filePath="C:\Benelux_fenykepek_2016\DSC02149.JPG" arWidth="3648" arHeight="2056" duration="0" songTitle="" songArtist="" songAlbum="" songCopyrightUrl="" songArtistUrl="" songAudioFileUrl="" stabilizationMode="0" mediaItemType="2" />
    <MediaItem id="253" filePath="C:\Benelux_fenykepek_2016\DSC02150.JPG" arWidth="3648" arHeight="2056" duration="0" songTitle="" songArtist="" songAlbum="" songCopyrightUrl="" songArtistUrl="" songAudioFileUrl="" stabilizationMode="0" mediaItemType="2" />
    <MediaItem id="254" filePath="C:\Benelux_fenykepek_2016\DSC02151.JPG" arWidth="3648" arHeight="2056" duration="0" songTitle="" songArtist="" songAlbum="" songCopyrightUrl="" songArtistUrl="" songAudioFileUrl="" stabilizationMode="0" mediaItemType="2" />
    <MediaItem id="255" filePath="C:\Benelux_fenykepek_2016\DSC02152.JPG" arWidth="3648" arHeight="2056" duration="0" songTitle="" songArtist="" songAlbum="" songCopyrightUrl="" songArtistUrl="" songAudioFileUrl="" stabilizationMode="0" mediaItemType="2" />
    <MediaItem id="256" filePath="C:\Benelux_fenykepek_2016\MAH02153.MP4" arWidth="1920" arHeight="1080" duration="37.079999999999998" songTitle="" songArtist="" songAlbum="" songCopyrightUrl="" songArtistUrl="" songAudioFileUrl="" stabilizationMode="0" mediaItemType="1" />
    <MediaItem id="257" filePath="C:\Benelux_fenykepek_2016\MAH02154.MP4" arWidth="1920" arHeight="1080" duration="46.200000000000003" songTitle="" songArtist="" songAlbum="" songCopyrightUrl="" songArtistUrl="" songAudioFileUrl="" stabilizationMode="0" mediaItemType="1" />
    <MediaItem id="258" filePath="C:\Benelux_fenykepek_2016\DSC02156.JPG" arWidth="3648" arHeight="2056" duration="0" songTitle="" songArtist="" songAlbum="" songCopyrightUrl="" songArtistUrl="" songAudioFileUrl="" stabilizationMode="0" mediaItemType="2" />
    <MediaItem id="259" filePath="C:\Benelux_fenykepek_2016\DSC02157.JPG" arWidth="2056" arHeight="3648" duration="0" songTitle="" songArtist="" songAlbum="" songCopyrightUrl="" songArtistUrl="" songAudioFileUrl="" stabilizationMode="0" mediaItemType="2" />
    <MediaItem id="260" filePath="C:\Benelux_fenykepek_2016\DSC02158.JPG" arWidth="3648" arHeight="2056" duration="0" songTitle="" songArtist="" songAlbum="" songCopyrightUrl="" songArtistUrl="" songAudioFileUrl="" stabilizationMode="0" mediaItemType="2" />
    <MediaItem id="261" filePath="C:\Benelux_fenykepek_2016\DSC02159.JPG" arWidth="3648" arHeight="2056" duration="0" songTitle="" songArtist="" songAlbum="" songCopyrightUrl="" songArtistUrl="" songAudioFileUrl="" stabilizationMode="0" mediaItemType="2" />
    <MediaItem id="262" filePath="C:\Benelux_fenykepek_2016\DSC02160.JPG" arWidth="3648" arHeight="2056" duration="0" songTitle="" songArtist="" songAlbum="" songCopyrightUrl="" songArtistUrl="" songAudioFileUrl="" stabilizationMode="0" mediaItemType="2" />
    <MediaItem id="263" filePath="C:\Benelux_fenykepek_2016\DSC02161.JPG" arWidth="2056" arHeight="3648" duration="0" songTitle="" songArtist="" songAlbum="" songCopyrightUrl="" songArtistUrl="" songAudioFileUrl="" stabilizationMode="0" mediaItemType="2" />
    <MediaItem id="264" filePath="C:\Benelux_fenykepek_2016\DSC02162.JPG" arWidth="3648" arHeight="2056" duration="0" songTitle="" songArtist="" songAlbum="" songCopyrightUrl="" songArtistUrl="" songAudioFileUrl="" stabilizationMode="0" mediaItemType="2" />
    <MediaItem id="265" filePath="C:\Benelux_fenykepek_2016\DSC02163.JPG" arWidth="2056" arHeight="3648" duration="0" songTitle="" songArtist="" songAlbum="" songCopyrightUrl="" songArtistUrl="" songAudioFileUrl="" stabilizationMode="0" mediaItemType="2" />
    <MediaItem id="266" filePath="C:\Benelux_fenykepek_2016\DSC02164.JPG" arWidth="3648" arHeight="2056" duration="0" songTitle="" songArtist="" songAlbum="" songCopyrightUrl="" songArtistUrl="" songAudioFileUrl="" stabilizationMode="0" mediaItemType="2" />
    <MediaItem id="267" filePath="C:\Benelux_fenykepek_2016\DSC02165.JPG" arWidth="3648" arHeight="2056" duration="0" songTitle="" songArtist="" songAlbum="" songCopyrightUrl="" songArtistUrl="" songAudioFileUrl="" stabilizationMode="0" mediaItemType="2" />
    <MediaItem id="268" filePath="C:\Benelux_fenykepek_2016\DSC02166.JPG" arWidth="2056" arHeight="3648" duration="0" songTitle="" songArtist="" songAlbum="" songCopyrightUrl="" songArtistUrl="" songAudioFileUrl="" stabilizationMode="0" mediaItemType="2" />
    <MediaItem id="269" filePath="C:\Benelux_fenykepek_2016\DSC02167.JPG" arWidth="3648" arHeight="2056" duration="0" songTitle="" songArtist="" songAlbum="" songCopyrightUrl="" songArtistUrl="" songAudioFileUrl="" stabilizationMode="0" mediaItemType="2" />
    <MediaItem id="270" filePath="C:\Benelux_fenykepek_2016\DSC02168.JPG" arWidth="3648" arHeight="2056" duration="0" songTitle="" songArtist="" songAlbum="" songCopyrightUrl="" songArtistUrl="" songAudioFileUrl="" stabilizationMode="0" mediaItemType="2" />
    <MediaItem id="271" filePath="C:\Benelux_fenykepek_2016\MAH02169.MP4" arWidth="1920" arHeight="1080" duration="44.280000000000001" songTitle="" songArtist="" songAlbum="" songCopyrightUrl="" songArtistUrl="" songAudioFileUrl="" stabilizationMode="0" mediaItemType="1" />
    <MediaItem id="272" filePath="C:\Benelux_fenykepek_2016\DSC02170.JPG" arWidth="2056" arHeight="3648" duration="0" songTitle="" songArtist="" songAlbum="" songCopyrightUrl="" songArtistUrl="" songAudioFileUrl="" stabilizationMode="0" mediaItemType="2" />
    <MediaItem id="273" filePath="C:\Benelux_fenykepek_2016\MAH02171.MP4" arWidth="1920" arHeight="1080" duration="25.559999999999999" songTitle="" songArtist="" songAlbum="" songCopyrightUrl="" songArtistUrl="" songAudioFileUrl="" stabilizationMode="0" mediaItemType="1" />
    <MediaItem id="274" filePath="C:\Benelux_fenykepek_2016\MAH02172.MP4" arWidth="1920" arHeight="1080" duration="24.120000000000001" songTitle="" songArtist="" songAlbum="" songCopyrightUrl="" songArtistUrl="" songAudioFileUrl="" stabilizationMode="0" mediaItemType="1" />
    <MediaItem id="275" filePath="C:\Benelux_fenykepek_2016\MAH02173.MP4" arWidth="1920" arHeight="1080" duration="16.440000000000001" songTitle="" songArtist="" songAlbum="" songCopyrightUrl="" songArtistUrl="" songAudioFileUrl="" stabilizationMode="0" mediaItemType="1" />
    <MediaItem id="276" filePath="C:\Benelux_fenykepek_2016\MAH02174.MP4" arWidth="1920" arHeight="1080" duration="29.879999999999999" songTitle="" songArtist="" songAlbum="" songCopyrightUrl="" songArtistUrl="" songAudioFileUrl="" stabilizationMode="0" mediaItemType="1" />
    <MediaItem id="277" filePath="C:\Benelux_fenykepek_2016\MAH02175.MP4" arWidth="1920" arHeight="1080" duration="17.879999999999999" songTitle="" songArtist="" songAlbum="" songCopyrightUrl="" songArtistUrl="" songAudioFileUrl="" stabilizationMode="0" mediaItemType="1" />
    <MediaItem id="278" filePath="C:\Benelux_fenykepek_2016\MAH02176.MP4" arWidth="1920" arHeight="1080" duration="18.84" songTitle="" songArtist="" songAlbum="" songCopyrightUrl="" songArtistUrl="" songAudioFileUrl="" stabilizationMode="0" mediaItemType="1" />
    <MediaItem id="279" filePath="C:\Benelux_fenykepek_2016\MAH02177.MP4" arWidth="1920" arHeight="1080" duration="15.960000000000001" songTitle="" songArtist="" songAlbum="" songCopyrightUrl="" songArtistUrl="" songAudioFileUrl="" stabilizationMode="0" mediaItemType="1" />
    <MediaItem id="280" filePath="C:\Benelux_fenykepek_2016\MAH02178.MP4" arWidth="1920" arHeight="1080" duration="36.600000000000001" songTitle="" songArtist="" songAlbum="" songCopyrightUrl="" songArtistUrl="" songAudioFileUrl="" stabilizationMode="0" mediaItemType="1" />
    <MediaItem id="281" filePath="C:\Benelux_fenykepek_2016\MAH02179.MP4" arWidth="1920" arHeight="1080" duration="17.879999999999999" songTitle="" songArtist="" songAlbum="" songCopyrightUrl="" songArtistUrl="" songAudioFileUrl="" stabilizationMode="0" mediaItemType="1" />
    <MediaItem id="282" filePath="C:\Benelux_fenykepek_2016\MAH02180.MP4" arWidth="1920" arHeight="1080" duration="25.079999999999998" songTitle="" songArtist="" songAlbum="" songCopyrightUrl="" songArtistUrl="" songAudioFileUrl="" stabilizationMode="0" mediaItemType="1" />
    <MediaItem id="283" filePath="C:\Benelux_fenykepek_2016\MAH02181.MP4" arWidth="1920" arHeight="1080" duration="7.7999999999999998" songTitle="" songArtist="" songAlbum="" songCopyrightUrl="" songArtistUrl="" songAudioFileUrl="" stabilizationMode="0" mediaItemType="1" />
    <MediaItem id="284" filePath="C:\Benelux_fenykepek_2016\DSC02182.JPG" arWidth="2056" arHeight="3648" duration="0" songTitle="" songArtist="" songAlbum="" songCopyrightUrl="" songArtistUrl="" songAudioFileUrl="" stabilizationMode="0" mediaItemType="2" />
    <MediaItem id="285" filePath="C:\Benelux_fenykepek_2016\MAH02183.MP4" arWidth="1920" arHeight="1080" duration="23.159999899999999" songTitle="" songArtist="" songAlbum="" songCopyrightUrl="" songArtistUrl="" songAudioFileUrl="" stabilizationMode="0" mediaItemType="1" />
    <MediaItem id="286" filePath="C:\Benelux_fenykepek_2016\MAH02185.MP4" arWidth="1920" arHeight="1080" duration="51.479999999999997" songTitle="" songArtist="" songAlbum="" songCopyrightUrl="" songArtistUrl="" songAudioFileUrl="" stabilizationMode="0" mediaItemType="1" />
    <MediaItem id="287" filePath="C:\Benelux_fenykepek_2016\DSC02187.JPG" arWidth="3648" arHeight="2056" duration="0" songTitle="" songArtist="" songAlbum="" songCopyrightUrl="" songArtistUrl="" songAudioFileUrl="" stabilizationMode="0" mediaItemType="2" />
    <MediaItem id="288" filePath="C:\Benelux_fenykepek_2016\MAH02188.MP4" arWidth="1920" arHeight="1080" duration="16.440000000000001" songTitle="" songArtist="" songAlbum="" songCopyrightUrl="" songArtistUrl="" songAudioFileUrl="" stabilizationMode="0" mediaItemType="1" />
    <MediaItem id="289" filePath="C:\Benelux_fenykepek_2016\MAH02189.MP4" arWidth="1920" arHeight="1080" duration="86.519999999999996" songTitle="" songArtist="" songAlbum="" songCopyrightUrl="" songArtistUrl="" songAudioFileUrl="" stabilizationMode="0" mediaItemType="1" />
    <MediaItem id="290" filePath="C:\Benelux_fenykepek_2016\MAH02190.MP4" arWidth="1920" arHeight="1080" duration="18.84" songTitle="" songArtist="" songAlbum="" songCopyrightUrl="" songArtistUrl="" songAudioFileUrl="" stabilizationMode="0" mediaItemType="1" />
    <MediaItem id="291" filePath="C:\Benelux_fenykepek_2016\DSC02192.JPG" arWidth="3648" arHeight="2056" duration="0" songTitle="" songArtist="" songAlbum="" songCopyrightUrl="" songArtistUrl="" songAudioFileUrl="" stabilizationMode="0" mediaItemType="2" />
    <MediaItem id="292" filePath="C:\Benelux_fenykepek_2016\MAH02193.MP4" arWidth="1920" arHeight="1080" duration="62.520000000000003" songTitle="" songArtist="" songAlbum="" songCopyrightUrl="" songArtistUrl="" songAudioFileUrl="" stabilizationMode="0" mediaItemType="1" />
    <MediaItem id="293" filePath="C:\Benelux_fenykepek_2016\DSC02194.JPG" arWidth="2056" arHeight="3648" duration="0" songTitle="" songArtist="" songAlbum="" songCopyrightUrl="" songArtistUrl="" songAudioFileUrl="" stabilizationMode="0" mediaItemType="2" />
    <MediaItem id="294" filePath="C:\Benelux_fenykepek_2016\DSC02195.JPG" arWidth="3648" arHeight="2056" duration="0" songTitle="" songArtist="" songAlbum="" songCopyrightUrl="" songArtistUrl="" songAudioFileUrl="" stabilizationMode="0" mediaItemType="2" />
    <MediaItem id="295" filePath="C:\Benelux_fenykepek_2016\MAH02196.MP4" arWidth="1920" arHeight="1080" duration="62.520000000000003" songTitle="" songArtist="" songAlbum="" songCopyrightUrl="" songArtistUrl="" songAudioFileUrl="" stabilizationMode="0" mediaItemType="1" />
    <MediaItem id="296" filePath="C:\Benelux_fenykepek_2016\DSC02198.JPG" arWidth="2056" arHeight="3648" duration="0" songTitle="" songArtist="" songAlbum="" songCopyrightUrl="" songArtistUrl="" songAudioFileUrl="" stabilizationMode="0" mediaItemType="2" />
    <MediaItem id="297" filePath="C:\Benelux_fenykepek_2016\DSC02199.JPG" arWidth="3648" arHeight="2056" duration="0" songTitle="" songArtist="" songAlbum="" songCopyrightUrl="" songArtistUrl="" songAudioFileUrl="" stabilizationMode="0" mediaItemType="2" />
    <MediaItem id="298" filePath="C:\Benelux_fenykepek_2016\DSC02201.JPG" arWidth="3648" arHeight="2056" duration="0" songTitle="" songArtist="" songAlbum="" songCopyrightUrl="" songArtistUrl="" songAudioFileUrl="" stabilizationMode="0" mediaItemType="2" />
    <MediaItem id="299" filePath="C:\Benelux_fenykepek_2016\DSC02204.JPG" arWidth="3648" arHeight="2056" duration="0" songTitle="" songArtist="" songAlbum="" songCopyrightUrl="" songArtistUrl="" songAudioFileUrl="" stabilizationMode="0" mediaItemType="2" />
    <MediaItem id="300" filePath="C:\Benelux_fenykepek_2016\DSC02205.JPG" arWidth="3648" arHeight="2056" duration="0" songTitle="" songArtist="" songAlbum="" songCopyrightUrl="" songArtistUrl="" songAudioFileUrl="" stabilizationMode="0" mediaItemType="2" />
    <MediaItem id="301" filePath="C:\Benelux_fenykepek_2016\DSC02206.JPG" arWidth="3648" arHeight="2056" duration="0" songTitle="" songArtist="" songAlbum="" songCopyrightUrl="" songArtistUrl="" songAudioFileUrl="" stabilizationMode="0" mediaItemType="2" />
    <MediaItem id="302" filePath="C:\Benelux_fenykepek_2016\DSC02207.JPG" arWidth="3648" arHeight="2056" duration="0" songTitle="" songArtist="" songAlbum="" songCopyrightUrl="" songArtistUrl="" songAudioFileUrl="" stabilizationMode="0" mediaItemType="2" />
    <MediaItem id="303" filePath="C:\Benelux_fenykepek_2016\DSC02208.JPG" arWidth="3648" arHeight="2056" duration="0" songTitle="" songArtist="" songAlbum="" songCopyrightUrl="" songArtistUrl="" songAudioFileUrl="" stabilizationMode="0" mediaItemType="2" />
    <MediaItem id="304" filePath="C:\Benelux_fenykepek_2016\DSC02210.JPG" arWidth="2056" arHeight="3648" duration="0" songTitle="" songArtist="" songAlbum="" songCopyrightUrl="" songArtistUrl="" songAudioFileUrl="" stabilizationMode="0" mediaItemType="2" />
    <MediaItem id="305" filePath="C:\Benelux_fenykepek_2016\DSC02211.JPG" arWidth="2056" arHeight="3648" duration="0" songTitle="" songArtist="" songAlbum="" songCopyrightUrl="" songArtistUrl="" songAudioFileUrl="" stabilizationMode="0" mediaItemType="2" />
    <MediaItem id="306" filePath="C:\Benelux_fenykepek_2016\DSC02212.JPG" arWidth="3648" arHeight="2056" duration="0" songTitle="" songArtist="" songAlbum="" songCopyrightUrl="" songArtistUrl="" songAudioFileUrl="" stabilizationMode="0" mediaItemType="2" />
    <MediaItem id="307" filePath="C:\Benelux_fenykepek_2016\DSC02213.JPG" arWidth="3648" arHeight="2056" duration="0" songTitle="" songArtist="" songAlbum="" songCopyrightUrl="" songArtistUrl="" songAudioFileUrl="" stabilizationMode="0" mediaItemType="2" />
    <MediaItem id="308" filePath="C:\Benelux_fenykepek_2016\DSC02214.JPG" arWidth="3648" arHeight="2056" duration="0" songTitle="" songArtist="" songAlbum="" songCopyrightUrl="" songArtistUrl="" songAudioFileUrl="" stabilizationMode="0" mediaItemType="2" />
    <MediaItem id="309" filePath="C:\Benelux_fenykepek_2016\DSC02215.JPG" arWidth="3648" arHeight="2056" duration="0" songTitle="" songArtist="" songAlbum="" songCopyrightUrl="" songArtistUrl="" songAudioFileUrl="" stabilizationMode="0" mediaItemType="2" />
    <MediaItem id="310" filePath="C:\Benelux_fenykepek_2016\DSC02216.JPG" arWidth="3648" arHeight="2056" duration="0" songTitle="" songArtist="" songAlbum="" songCopyrightUrl="" songArtistUrl="" songAudioFileUrl="" stabilizationMode="0" mediaItemType="2" />
    <MediaItem id="311" filePath="C:\Benelux_fenykepek_2016\DSC02217.JPG" arWidth="3648" arHeight="2056" duration="0" songTitle="" songArtist="" songAlbum="" songCopyrightUrl="" songArtistUrl="" songAudioFileUrl="" stabilizationMode="0" mediaItemType="2" />
    <MediaItem id="312" filePath="C:\Benelux_fenykepek_2016\DSC02218.JPG" arWidth="3648" arHeight="2056" duration="0" songTitle="" songArtist="" songAlbum="" songCopyrightUrl="" songArtistUrl="" songAudioFileUrl="" stabilizationMode="0" mediaItemType="2" />
    <MediaItem id="313" filePath="C:\Benelux_fenykepek_2016\DSC02219.JPG" arWidth="3648" arHeight="2056" duration="0" songTitle="" songArtist="" songAlbum="" songCopyrightUrl="" songArtistUrl="" songAudioFileUrl="" stabilizationMode="0" mediaItemType="2" />
    <MediaItem id="314" filePath="C:\Benelux_fenykepek_2016\DSC02220.JPG" arWidth="3648" arHeight="2056" duration="0" songTitle="" songArtist="" songAlbum="" songCopyrightUrl="" songArtistUrl="" songAudioFileUrl="" stabilizationMode="0" mediaItemType="2" />
    <MediaItem id="315" filePath="C:\Benelux_fenykepek_2016\DSC02221.JPG" arWidth="2056" arHeight="3648" duration="0" songTitle="" songArtist="" songAlbum="" songCopyrightUrl="" songArtistUrl="" songAudioFileUrl="" stabilizationMode="0" mediaItemType="2" />
    <MediaItem id="316" filePath="C:\Benelux_fenykepek_2016\DSC02222.JPG" arWidth="2056" arHeight="3648" duration="0" songTitle="" songArtist="" songAlbum="" songCopyrightUrl="" songArtistUrl="" songAudioFileUrl="" stabilizationMode="0" mediaItemType="2" />
    <MediaItem id="317" filePath="C:\Benelux_fenykepek_2016\DSC02223.JPG" arWidth="3648" arHeight="2056" duration="0" songTitle="" songArtist="" songAlbum="" songCopyrightUrl="" songArtistUrl="" songAudioFileUrl="" stabilizationMode="0" mediaItemType="2" />
    <MediaItem id="318" filePath="C:\Benelux_fenykepek_2016\DSC02224.JPG" arWidth="3648" arHeight="2056" duration="0" songTitle="" songArtist="" songAlbum="" songCopyrightUrl="" songArtistUrl="" songAudioFileUrl="" stabilizationMode="0" mediaItemType="2" />
    <MediaItem id="319" filePath="C:\Benelux_fenykepek_2016\DSC02225.JPG" arWidth="2056" arHeight="3648" duration="0" songTitle="" songArtist="" songAlbum="" songCopyrightUrl="" songArtistUrl="" songAudioFileUrl="" stabilizationMode="0" mediaItemType="2" />
    <MediaItem id="320" filePath="C:\Benelux_fenykepek_2016\DSC02226.JPG" arWidth="2056" arHeight="3648" duration="0" songTitle="" songArtist="" songAlbum="" songCopyrightUrl="" songArtistUrl="" songAudioFileUrl="" stabilizationMode="0" mediaItemType="2" />
    <MediaItem id="321" filePath="C:\Benelux_fenykepek_2016\DSC02227.JPG" arWidth="2056" arHeight="3648" duration="0" songTitle="" songArtist="" songAlbum="" songCopyrightUrl="" songArtistUrl="" songAudioFileUrl="" stabilizationMode="0" mediaItemType="2" />
    <MediaItem id="322" filePath="C:\Benelux_fenykepek_2016\DSC02228.JPG" arWidth="3648" arHeight="2056" duration="0" songTitle="" songArtist="" songAlbum="" songCopyrightUrl="" songArtistUrl="" songAudioFileUrl="" stabilizationMode="0" mediaItemType="2" />
    <MediaItem id="323" filePath="C:\Benelux_fenykepek_2016\DSC02229.JPG" arWidth="2056" arHeight="3648" duration="0" songTitle="" songArtist="" songAlbum="" songCopyrightUrl="" songArtistUrl="" songAudioFileUrl="" stabilizationMode="0" mediaItemType="2" />
    <MediaItem id="324" filePath="C:\Benelux_fenykepek_2016\DSC02230.JPG" arWidth="3648" arHeight="2056" duration="0" songTitle="" songArtist="" songAlbum="" songCopyrightUrl="" songArtistUrl="" songAudioFileUrl="" stabilizationMode="0" mediaItemType="2" />
    <MediaItem id="325" filePath="C:\Benelux_fenykepek_2016\DSC02231.JPG" arWidth="3648" arHeight="2056" duration="0" songTitle="" songArtist="" songAlbum="" songCopyrightUrl="" songArtistUrl="" songAudioFileUrl="" stabilizationMode="0" mediaItemType="2" />
    <MediaItem id="326" filePath="C:\Benelux_fenykepek_2016\DSC02232.JPG" arWidth="3648" arHeight="2056" duration="0" songTitle="" songArtist="" songAlbum="" songCopyrightUrl="" songArtistUrl="" songAudioFileUrl="" stabilizationMode="0" mediaItemType="2" />
    <MediaItem id="327" filePath="C:\Benelux_fenykepek_2016\DSC02233.JPG" arWidth="3648" arHeight="2056" duration="0" songTitle="" songArtist="" songAlbum="" songCopyrightUrl="" songArtistUrl="" songAudioFileUrl="" stabilizationMode="0" mediaItemType="2" />
    <MediaItem id="328" filePath="C:\Benelux_fenykepek_2016\DSC02234.JPG" arWidth="3648" arHeight="2056" duration="0" songTitle="" songArtist="" songAlbum="" songCopyrightUrl="" songArtistUrl="" songAudioFileUrl="" stabilizationMode="0" mediaItemType="2" />
    <MediaItem id="329" filePath="C:\Benelux_fenykepek_2016\DSC02235.JPG" arWidth="2056" arHeight="3648" duration="0" songTitle="" songArtist="" songAlbum="" songCopyrightUrl="" songArtistUrl="" songAudioFileUrl="" stabilizationMode="0" mediaItemType="2" />
    <MediaItem id="330" filePath="C:\Benelux_fenykepek_2016\DSC02236.JPG" arWidth="3648" arHeight="2056" duration="0" songTitle="" songArtist="" songAlbum="" songCopyrightUrl="" songArtistUrl="" songAudioFileUrl="" stabilizationMode="0" mediaItemType="2" />
    <MediaItem id="331" filePath="C:\Benelux_fenykepek_2016\DSC02237.JPG" arWidth="3648" arHeight="2056" duration="0" songTitle="" songArtist="" songAlbum="" songCopyrightUrl="" songArtistUrl="" songAudioFileUrl="" stabilizationMode="0" mediaItemType="2" />
    <MediaItem id="332" filePath="C:\Benelux_fenykepek_2016\DSC02238.JPG" arWidth="2056" arHeight="3648" duration="0" songTitle="" songArtist="" songAlbum="" songCopyrightUrl="" songArtistUrl="" songAudioFileUrl="" stabilizationMode="0" mediaItemType="2" />
    <MediaItem id="333" filePath="C:\Benelux_fenykepek_2016\DSC02239.JPG" arWidth="3648" arHeight="2056" duration="0" songTitle="" songArtist="" songAlbum="" songCopyrightUrl="" songArtistUrl="" songAudioFileUrl="" stabilizationMode="0" mediaItemType="2" />
    <MediaItem id="334" filePath="C:\Benelux_fenykepek_2016\DSC02240.JPG" arWidth="3648" arHeight="2056" duration="0" songTitle="" songArtist="" songAlbum="" songCopyrightUrl="" songArtistUrl="" songAudioFileUrl="" stabilizationMode="0" mediaItemType="2" />
    <MediaItem id="335" filePath="C:\Benelux_fenykepek_2016\DSC02241.JPG" arWidth="2056" arHeight="3648" duration="0" songTitle="" songArtist="" songAlbum="" songCopyrightUrl="" songArtistUrl="" songAudioFileUrl="" stabilizationMode="0" mediaItemType="2" />
    <MediaItem id="336" filePath="C:\Benelux_fenykepek_2016\DSC02242.JPG" arWidth="2056" arHeight="3648" duration="0" songTitle="" songArtist="" songAlbum="" songCopyrightUrl="" songArtistUrl="" songAudioFileUrl="" stabilizationMode="0" mediaItemType="2" />
    <MediaItem id="337" filePath="C:\Benelux_fenykepek_2016\DSC02243.JPG" arWidth="2056" arHeight="3648" duration="0" songTitle="" songArtist="" songAlbum="" songCopyrightUrl="" songArtistUrl="" songAudioFileUrl="" stabilizationMode="0" mediaItemType="2" />
    <MediaItem id="338" filePath="C:\Benelux_fenykepek_2016\DSC02244.JPG" arWidth="3648" arHeight="2056" duration="0" songTitle="" songArtist="" songAlbum="" songCopyrightUrl="" songArtistUrl="" songAudioFileUrl="" stabilizationMode="0" mediaItemType="2" />
    <MediaItem id="339" filePath="C:\Benelux_fenykepek_2016\DSC02245.JPG" arWidth="3648" arHeight="2056" duration="0" songTitle="" songArtist="" songAlbum="" songCopyrightUrl="" songArtistUrl="" songAudioFileUrl="" stabilizationMode="0" mediaItemType="2" />
    <MediaItem id="340" filePath="C:\Benelux_fenykepek_2016\DSC02246.JPG" arWidth="2056" arHeight="3648" duration="0" songTitle="" songArtist="" songAlbum="" songCopyrightUrl="" songArtistUrl="" songAudioFileUrl="" stabilizationMode="0" mediaItemType="2" />
    <MediaItem id="341" filePath="C:\Benelux_fenykepek_2016\DSC02247.JPG" arWidth="3648" arHeight="2056" duration="0" songTitle="" songArtist="" songAlbum="" songCopyrightUrl="" songArtistUrl="" songAudioFileUrl="" stabilizationMode="0" mediaItemType="2" />
    <MediaItem id="342" filePath="C:\Benelux_fenykepek_2016\DSC02248.JPG" arWidth="2056" arHeight="3648" duration="0" songTitle="" songArtist="" songAlbum="" songCopyrightUrl="" songArtistUrl="" songAudioFileUrl="" stabilizationMode="0" mediaItemType="2" />
    <MediaItem id="343" filePath="C:\Benelux_fenykepek_2016\DSC02249.JPG" arWidth="2056" arHeight="3648" duration="0" songTitle="" songArtist="" songAlbum="" songCopyrightUrl="" songArtistUrl="" songAudioFileUrl="" stabilizationMode="0" mediaItemType="2" />
    <MediaItem id="344" filePath="C:\Benelux_fenykepek_2016\DSC02250.JPG" arWidth="3648" arHeight="2056" duration="0" songTitle="" songArtist="" songAlbum="" songCopyrightUrl="" songArtistUrl="" songAudioFileUrl="" stabilizationMode="0" mediaItemType="2" />
    <MediaItem id="345" filePath="C:\Benelux_fenykepek_2016\MAH02251.MP4" arWidth="1920" arHeight="1080" duration="25.079999999999998" songTitle="" songArtist="" songAlbum="" songCopyrightUrl="" songArtistUrl="" songAudioFileUrl="" stabilizationMode="0" mediaItemType="1" />
    <MediaItem id="346" filePath="C:\Benelux_fenykepek_2016\DSC02252.JPG" arWidth="2056" arHeight="3648" duration="0" songTitle="" songArtist="" songAlbum="" songCopyrightUrl="" songArtistUrl="" songAudioFileUrl="" stabilizationMode="0" mediaItemType="2" />
    <MediaItem id="347" filePath="C:\Benelux_fenykepek_2016\DSC02253.JPG" arWidth="3648" arHeight="2056" duration="0" songTitle="" songArtist="" songAlbum="" songCopyrightUrl="" songArtistUrl="" songAudioFileUrl="" stabilizationMode="0" mediaItemType="2" />
    <MediaItem id="348" filePath="C:\Benelux_fenykepek_2016\DSC02254.JPG" arWidth="3648" arHeight="2056" duration="0" songTitle="" songArtist="" songAlbum="" songCopyrightUrl="" songArtistUrl="" songAudioFileUrl="" stabilizationMode="0" mediaItemType="2" />
    <MediaItem id="349" filePath="C:\Benelux_fenykepek_2016\DSC02255.JPG" arWidth="2056" arHeight="3648" duration="0" songTitle="" songArtist="" songAlbum="" songCopyrightUrl="" songArtistUrl="" songAudioFileUrl="" stabilizationMode="0" mediaItemType="2" />
    <MediaItem id="350" filePath="C:\Benelux_fenykepek_2016\DSC02256.JPG" arWidth="3648" arHeight="2056" duration="0" songTitle="" songArtist="" songAlbum="" songCopyrightUrl="" songArtistUrl="" songAudioFileUrl="" stabilizationMode="0" mediaItemType="2" />
    <MediaItem id="351" filePath="C:\Benelux_fenykepek_2016\DSC02257.JPG" arWidth="2056" arHeight="3648" duration="0" songTitle="" songArtist="" songAlbum="" songCopyrightUrl="" songArtistUrl="" songAudioFileUrl="" stabilizationMode="0" mediaItemType="2" />
    <MediaItem id="352" filePath="C:\Benelux_fenykepek_2016\DSC02258.JPG" arWidth="3648" arHeight="2056" duration="0" songTitle="" songArtist="" songAlbum="" songCopyrightUrl="" songArtistUrl="" songAudioFileUrl="" stabilizationMode="0" mediaItemType="2" />
    <MediaItem id="353" filePath="C:\Benelux_fenykepek_2016\MAH02259.MP4" arWidth="1920" arHeight="1080" duration="37.079999999999998" songTitle="" songArtist="" songAlbum="" songCopyrightUrl="" songArtistUrl="" songAudioFileUrl="" stabilizationMode="0" mediaItemType="1" />
    <MediaItem id="354" filePath="C:\Benelux_fenykepek_2016\DSC02260.JPG" arWidth="2056" arHeight="3648" duration="0" songTitle="" songArtist="" songAlbum="" songCopyrightUrl="" songArtistUrl="" songAudioFileUrl="" stabilizationMode="0" mediaItemType="2" />
    <MediaItem id="355" filePath="C:\Benelux_fenykepek_2016\DSC02261.JPG" arWidth="2056" arHeight="3648" duration="0" songTitle="" songArtist="" songAlbum="" songCopyrightUrl="" songArtistUrl="" songAudioFileUrl="" stabilizationMode="0" mediaItemType="2" />
    <MediaItem id="356" filePath="C:\Benelux_fenykepek_2016\DSC02262.JPG" arWidth="3648" arHeight="2056" duration="0" songTitle="" songArtist="" songAlbum="" songCopyrightUrl="" songArtistUrl="" songAudioFileUrl="" stabilizationMode="0" mediaItemType="2" />
    <MediaItem id="357" filePath="C:\Benelux_fenykepek_2016\DSC02264.JPG" arWidth="3648" arHeight="2056" duration="0" songTitle="" songArtist="" songAlbum="" songCopyrightUrl="" songArtistUrl="" songAudioFileUrl="" stabilizationMode="0" mediaItemType="2" />
    <MediaItem id="358" filePath="C:\Benelux_fenykepek_2016\DSC02265.JPG" arWidth="3648" arHeight="2056" duration="0" songTitle="" songArtist="" songAlbum="" songCopyrightUrl="" songArtistUrl="" songAudioFileUrl="" stabilizationMode="0" mediaItemType="2" />
    <MediaItem id="359" filePath="C:\Benelux_fenykepek_2016\MAH02266.MP4" arWidth="1920" arHeight="1080" duration="20.280000000000001" songTitle="" songArtist="" songAlbum="" songCopyrightUrl="" songArtistUrl="" songAudioFileUrl="" stabilizationMode="0" mediaItemType="1" />
    <MediaItem id="360" filePath="C:\Benelux_fenykepek_2016\MAH02267.MP4" arWidth="1920" arHeight="1080" duration="23.640000000000001" songTitle="" songArtist="" songAlbum="" songCopyrightUrl="" songArtistUrl="" songAudioFileUrl="" stabilizationMode="0" mediaItemType="1" />
    <MediaItem id="361" filePath="C:\Benelux_fenykepek_2016\DSC02268.JPG" arWidth="3648" arHeight="2056" duration="0" songTitle="" songArtist="" songAlbum="" songCopyrightUrl="" songArtistUrl="" songAudioFileUrl="" stabilizationMode="0" mediaItemType="2" />
    <MediaItem id="362" filePath="C:\Benelux_fenykepek_2016\DSC02269.JPG" arWidth="3648" arHeight="2056" duration="0" songTitle="" songArtist="" songAlbum="" songCopyrightUrl="" songArtistUrl="" songAudioFileUrl="" stabilizationMode="0" mediaItemType="2" />
    <MediaItem id="363" filePath="C:\Benelux_fenykepek_2016\DSC02270.JPG" arWidth="3648" arHeight="2056" duration="0" songTitle="" songArtist="" songAlbum="" songCopyrightUrl="" songArtistUrl="" songAudioFileUrl="" stabilizationMode="0" mediaItemType="2" />
    <MediaItem id="364" filePath="C:\Benelux_fenykepek_2016\DSC02271.JPG" arWidth="3648" arHeight="2056" duration="0" songTitle="" songArtist="" songAlbum="" songCopyrightUrl="" songArtistUrl="" songAudioFileUrl="" stabilizationMode="0" mediaItemType="2" />
    <MediaItem id="365" filePath="C:\Benelux_fenykepek_2016\DSC02272.JPG" arWidth="2056" arHeight="3648" duration="0" songTitle="" songArtist="" songAlbum="" songCopyrightUrl="" songArtistUrl="" songAudioFileUrl="" stabilizationMode="0" mediaItemType="2" />
    <MediaItem id="366" filePath="C:\Benelux_fenykepek_2016\DSC02273.JPG" arWidth="2056" arHeight="3648" duration="0" songTitle="" songArtist="" songAlbum="" songCopyrightUrl="" songArtistUrl="" songAudioFileUrl="" stabilizationMode="0" mediaItemType="2" />
    <MediaItem id="367" filePath="C:\Benelux_fenykepek_2016\DSC02274.JPG" arWidth="2056" arHeight="3648" duration="0" songTitle="" songArtist="" songAlbum="" songCopyrightUrl="" songArtistUrl="" songAudioFileUrl="" stabilizationMode="0" mediaItemType="2" />
    <MediaItem id="368" filePath="C:\Benelux_fenykepek_2016\20160801_204802.mp4" arWidth="1920" arHeight="1080" duration="60.235979100000002" songTitle="" songArtist="" songAlbum="" songCopyrightUrl="" songArtistUrl="" songAudioFileUrl="" stabilizationMode="0" mediaItemType="1" />
    <MediaItem id="369" filePath="C:\Benelux_fenykepek_2016\DSC02276.JPG" arWidth="3648" arHeight="2056" duration="0" songTitle="" songArtist="" songAlbum="" songCopyrightUrl="" songArtistUrl="" songAudioFileUrl="" stabilizationMode="0" mediaItemType="2" />
  </MediaItems>
  <Extents>
    <ImageClip extentID="5" gapBefore="0" mediaItemID="1" duration="2.7999999999999998">
      <Effects />
      <Transitions />
      <BoundProperties>
        <BoundPropertyInt Name="rotateStepNinety" Value="0" />
      </BoundProperties>
    </ImageClip>
    <VideoClip extentID="6" gapBefore="0" mediaItemID="43" inTime="7.4066666666667231" outTime="42.980000000000103" speed="1" stabilizationMode="0">
      <Effects />
      <Transitions />
      <BoundProperties>
        <BoundPropertyBool Name="Mute" Value="false" />
        <BoundPropertyInt Name="rotateStepNinety" Value="0" />
        <BoundPropertyFloat Name="Volume" Value="1" />
      </BoundProperties>
    </VideoClip>
    <VideoClip extentID="7" gapBefore="0" mediaItemID="97" inTime="25.706666766667013" outTime="35.180000200000791" speed="1" stabilizationMode="0">
      <Effects />
      <Transitions />
      <BoundProperties>
        <BoundPropertyBool Name="Mute" Value="false" />
        <BoundPropertyInt Name="rotateStepNinety" Value="0" />
        <BoundPropertyFloat Name="Volume" Value="1" />
      </BoundProperties>
    </VideoClip>
    <VideoClip extentID="8" gapBefore="0" mediaItemID="43" inTime="64.646666666666789" outTime="85.113333333333486" speed="1" stabilizationMode="0">
      <Effects />
      <Transitions>
        <ShapeEffect effectTemplateID="CrossfadeTransitionTemplate" duration="1.5">
          <BoundProperties />
        </ShapeEffect>
      </Transitions>
      <BoundProperties>
        <BoundPropertyBool Name="Mute" Value="false" />
        <BoundPropertyInt Name="rotateStepNinety" Value="0" />
        <BoundPropertyFloat Name="Volume" Value="1" />
      </BoundProperties>
    </VideoClip>
    <VideoClip extentID="10" gapBefore="0" mediaItemID="69" inTime="17.926666666666961" outTime="23.58666666666727" speed="1" stabilizationMode="0">
      <Effects />
      <Transitions />
      <BoundProperties>
        <BoundPropertyBool Name="Mute" Value="false" />
        <BoundPropertyInt Name="rotateStepNinety" Value="0" />
        <BoundPropertyFloat Name="Volume" Value="1" />
      </BoundProperties>
    </VideoClip>
    <VideoClip extentID="11" gapBefore="0" mediaItemID="5" inTime="0" outTime="14.619999999999834" speed="1" stabilizationMode="0">
      <Effects />
      <Transitions />
      <BoundProperties>
        <BoundPropertyBool Name="Mute" Value="false" />
        <BoundPropertyInt Name="rotateStepNinety" Value="0" />
        <BoundPropertyFloat Name="Volume" Value="1" />
      </BoundProperties>
    </VideoClip>
    <ImageClip extentID="12" gapBefore="0" mediaItemID="6" duration="2.7999999999999998">
      <Effects />
      <Transitions />
      <BoundProperties>
        <BoundPropertyInt Name="rotateStepNinety" Value="0" />
      </BoundProperties>
    </ImageClip>
    <ImageClip extentID="13" gapBefore="0" mediaItemID="7" duration="2.7999999999999998">
      <Effects />
      <Transitions />
      <BoundProperties>
        <BoundPropertyInt Name="rotateStepNinety" Value="0" />
      </BoundProperties>
    </ImageClip>
    <ImageClip extentID="14" gapBefore="0" mediaItemID="8" duration="2.7999999999999998">
      <Effects />
      <Transitions />
      <BoundProperties>
        <BoundPropertyInt Name="rotateStepNinety" Value="0" />
      </BoundProperties>
    </ImageClip>
    <ImageClip extentID="15" gapBefore="0" mediaItemID="11" duration="2.7999999999999998">
      <Effects />
      <Transitions />
      <BoundProperties>
        <BoundPropertyInt Name="rotateStepNinety" Value="0" />
      </BoundProperties>
    </ImageClip>
    <TitleClip extentID="16" gapBefore="28.953333433333455" duration="7">
      <Effects>
        <TextEffect effectTemplateID="TextEffectFadeTemplate" TextScriptId="1">
          <BoundProperties>
            <BoundPropertyBool Name="automatic" Value="true" />
            <BoundPropertyFloatSet Name="color">
              <BoundPropertyFloatElement Value="0" />
              <BoundPropertyFloatElement Value="0" />
              <BoundPropertyFloatElement Value="0" />
            </BoundPropertyFloatSet>
            <BoundPropertyStringSet Name="family">
              <BoundPropertyStringElement Value="Segoe UI" />
            </BoundPropertyStringSet>
            <BoundPropertyBool Name="horizontal" Value="true" />
            <BoundPropertyStringSet Name="justify">
              <BoundPropertyStringElement Value="MIDDLE" />
            </BoundPropertyStringSet>
            <BoundPropertyBool Name="leftToRight" Value="true" />
            <BoundPropertyFloatSet Name="length" />
            <BoundPropertyFloat Name="maxExtent" Value="0" />
            <BoundPropertyFloatSet Name="outlineColor">
              <BoundPropertyFloatElement Value="0.64705884456634521" />
              <BoundPropertyFloatElement Value="0.64705884456634521" />
              <BoundPropertyFloatElement Value="0.64705884456634521" />
            </BoundPropertyFloatSet>
            <BoundPropertyInt Name="outlineSizeIndex" Value="0" />
            <BoundPropertyFloatSet Name="position">
              <BoundPropertyFloatElement Value="0" />
              <BoundPropertyFloatElement Value="-1.7796611785888672" />
              <BoundPropertyFloatElement Value="0.02500000037252903" />
            </BoundPropertyFloatSet>
            <BoundPropertyFloat Name="size" Value="0.40000000596046448" />
            <BoundPropertyStringSet Name="string">
              <BoundPropertyStringElement Value="Látogatás egy sajtüzemben" />
            </BoundPropertyStringSet>
            <BoundPropertyString Name="style" Value="Bold" />
            <BoundPropertyFloat Name="transparency" Value="0" />
          </BoundProperties>
        </TextEffect>
      </Effects>
      <Transitions />
      <BoundProperties>
        <BoundPropertyFloatSet Name="diffuseColor">
          <BoundPropertyFloatElement Value="0.75" />
          <BoundPropertyFloatElement Value="1" />
          <BoundPropertyFloatElement Value="0" />
        </BoundPropertyFloatSet>
        <BoundPropertyFloat Name="transparency" Value="1" />
      </BoundProperties>
    </TitleClip>
    <ImageClip extentID="17" gapBefore="0" mediaItemID="13" duration="2.7999999999999998">
      <Effects />
      <Transitions />
      <BoundProperties>
        <BoundPropertyInt Name="rotateStepNinety" Value="0" />
      </BoundProperties>
    </ImageClip>
    <VideoClip extentID="18" gapBefore="0" mediaItemID="10" inTime="0" outTime="6.0466666666668516" speed="1" stabilizationMode="0">
      <Effects />
      <Transitions />
      <BoundProperties>
        <BoundPropertyBool Name="Mute" Value="false" />
        <BoundPropertyInt Name="rotateStepNinety" Value="0" />
        <BoundPropertyFloat Name="Volume" Value="1" />
      </BoundProperties>
    </VideoClip>
    <ImageClip extentID="19" gapBefore="0" mediaItemID="15" duration="2.7999999999999998">
      <Effects />
      <Transitions />
      <BoundProperties>
        <BoundPropertyInt Name="rotateStepNinety" Value="0" />
      </BoundProperties>
    </ImageClip>
    <ImageClip extentID="20" gapBefore="0" mediaItemID="16" duration="2.7999999999999998">
      <Effects />
      <Transitions />
      <BoundProperties>
        <BoundPropertyInt Name="rotateStepNinety" Value="0" />
      </BoundProperties>
    </ImageClip>
    <ImageClip extentID="21" gapBefore="0" mediaItemID="17" duration="2.7999999999999998">
      <Effects />
      <Transitions />
      <BoundProperties>
        <BoundPropertyInt Name="rotateStepNinety" Value="0" />
      </BoundProperties>
    </ImageClip>
    <ImageClip extentID="22" gapBefore="0" mediaItemID="18" duration="2.7999999999999998">
      <Effects />
      <Transitions />
      <BoundProperties>
        <BoundPropertyInt Name="rotateStepNinety" Value="0" />
      </BoundProperties>
    </ImageClip>
    <ImageClip extentID="23" gapBefore="0" mediaItemID="19" duration="2.7999999999999998">
      <Effects />
      <Transitions />
      <BoundProperties>
        <BoundPropertyInt Name="rotateStepNinety" Value="0" />
      </BoundProperties>
    </ImageClip>
    <ImageClip extentID="24" gapBefore="0" mediaItemID="20" duration="2.7999999999999998">
      <Effects />
      <Transitions />
      <BoundProperties>
        <BoundPropertyInt Name="rotateStepNinety" Value="0" />
      </BoundProperties>
    </ImageClip>
    <ImageClip extentID="25" gapBefore="0" mediaItemID="21" duration="2.7999999999999998">
      <Effects />
      <Transitions />
      <BoundProperties>
        <BoundPropertyInt Name="rotateStepNinety" Value="0" />
      </BoundProperties>
    </ImageClip>
    <VideoClip extentID="26" gapBefore="0" mediaItemID="69" inTime="29.186666666667179" outTime="33.486666666667134" speed="1" stabilizationMode="0">
      <Effects />
      <Transitions />
      <BoundProperties>
        <BoundPropertyBool Name="Mute" Value="false" />
        <BoundPropertyInt Name="rotateStepNinety" Value="0" />
        <BoundPropertyFloat Name="Volume" Value="1" />
      </BoundProperties>
    </VideoClip>
    <ImageClip extentID="27" gapBefore="0" mediaItemID="23" duration="2.7999999999999998">
      <Effects />
      <Transitions />
      <BoundProperties>
        <BoundPropertyInt Name="rotateStepNinety" Value="0" />
      </BoundProperties>
    </ImageClip>
    <ImageClip extentID="28" gapBefore="0" mediaItemID="24" duration="2.7999999999999998">
      <Effects />
      <Transitions />
      <BoundProperties>
        <BoundPropertyInt Name="rotateStepNinety" Value="0" />
      </BoundProperties>
    </ImageClip>
    <ImageClip extentID="29" gapBefore="0" mediaItemID="25" duration="2.7999999999999998">
      <Effects />
      <Transitions />
      <BoundProperties>
        <BoundPropertyInt Name="rotateStepNinety" Value="0" />
      </BoundProperties>
    </ImageClip>
    <ImageClip extentID="30" gapBefore="0" mediaItemID="26" duration="2.7999999999999998">
      <Effects>
        <ShaderEffect effectTemplateID="FadeOutToBlackEffectTemplate">
          <BoundProperties />
        </ShaderEffect>
      </Effects>
      <Transitions />
      <BoundProperties>
        <BoundPropertyInt Name="rotateStepNinety" Value="0" />
      </BoundProperties>
    </ImageClip>
    <ImageClip extentID="31" gapBefore="0" mediaItemID="14" duration="2.7999999999999998">
      <Effects />
      <Transitions />
      <BoundProperties>
        <BoundPropertyInt Name="rotateStepNinety" Value="0" />
      </BoundProperties>
    </ImageClip>
    <ImageClip extentID="32" gapBefore="0" mediaItemID="22" duration="2.7999999999999998">
      <Effects />
      <Transitions />
      <BoundProperties>
        <BoundPropertyInt Name="rotateStepNinety" Value="0" />
      </BoundProperties>
    </ImageClip>
    <ImageClip extentID="33" gapBefore="0" mediaItemID="29" duration="2.7999999999999998">
      <Effects />
      <Transitions />
      <BoundProperties>
        <BoundPropertyInt Name="rotateStepNinety" Value="0" />
      </BoundProperties>
    </ImageClip>
    <ImageClip extentID="34" gapBefore="0" mediaItemID="27" duration="2.7999999999999998">
      <Effects />
      <Transitions />
      <BoundProperties>
        <BoundPropertyInt Name="rotateStepNinety" Value="0" />
      </BoundProperties>
    </ImageClip>
    <VideoClip extentID="35" gapBefore="0" mediaItemID="31" inTime="0" outTime="14.219999999999999" speed="1" stabilizationMode="0">
      <Effects />
      <Transitions />
      <BoundProperties>
        <BoundPropertyBool Name="Mute" Value="false" />
        <BoundPropertyInt Name="rotateStepNinety" Value="0" />
        <BoundPropertyFloat Name="Volume" Value="1" />
      </BoundProperties>
    </VideoClip>
    <ImageClip extentID="36" gapBefore="0" mediaItemID="30" duration="2.7999999999999998">
      <Effects />
      <Transitions />
      <BoundProperties>
        <BoundPropertyInt Name="rotateStepNinety" Value="0" />
      </BoundProperties>
    </ImageClip>
    <VideoClip extentID="37" gapBefore="0" mediaItemID="33" inTime="0" outTime="8.1666666666666572" speed="1" stabilizationMode="0">
      <Effects />
      <Transitions>
        <ShapeEffect effectTemplateID="CrossfadeTransitionTemplate" duration="1.5">
          <BoundProperties />
        </ShapeEffect>
      </Transitions>
      <BoundProperties>
        <BoundPropertyBool Name="Mute" Value="false" />
        <BoundPropertyInt Name="rotateStepNinety" Value="0" />
        <BoundPropertyFloat Name="Volume" Value="1" />
      </BoundProperties>
    </VideoClip>
    <ImageClip extentID="38" gapBefore="0" mediaItemID="34" duration="2.7999999999999998">
      <Effects />
      <Transitions />
      <BoundProperties>
        <BoundPropertyInt Name="rotateStepNinety" Value="0" />
      </BoundProperties>
    </ImageClip>
    <TitleClip extentID="39" gapBefore="2.686666666667179" duration="2.7933333333327255">
      <Effects>
        <TextEffect effectTemplateID="TextEffectFadeTemplate" TextScriptId="1">
          <BoundProperties>
            <BoundPropertyBool Name="automatic" Value="false" />
            <BoundPropertyFloatSet Name="color">
              <BoundPropertyFloatElement Value="1" />
              <BoundPropertyFloatElement Value="1" />
              <BoundPropertyFloatElement Value="1" />
            </BoundPropertyFloatSet>
            <BoundPropertyStringSet Name="family">
              <BoundPropertyStringElement Value="Segoe UI" />
            </BoundPropertyStringSet>
            <BoundPropertyBool Name="horizontal" Value="true" />
            <BoundPropertyStringSet Name="justify">
              <BoundPropertyStringElement Value="MIDDLE" />
            </BoundPropertyStringSet>
            <BoundPropertyBool Name="leftToRight" Value="true" />
            <BoundPropertyFloatSet Name="length" />
            <BoundPropertyFloat Name="maxExtent" Value="0" />
            <BoundPropertyFloatSet Name="outlineColor">
              <BoundPropertyFloatElement Value="0.64705884456634521" />
              <BoundPropertyFloatElement Value="0.64705884456634521" />
              <BoundPropertyFloatElement Value="0.64705884456634521" />
            </BoundPropertyFloatSet>
            <BoundPropertyInt Name="outlineSizeIndex" Value="0" />
            <BoundPropertyFloatSet Name="position">
              <BoundPropertyFloatElement Value="0" />
              <BoundPropertyFloatElement Value="-1.7796611785888672" />
              <BoundPropertyFloatElement Value="0.02500000037252903" />
            </BoundPropertyFloatSet>
            <BoundPropertyFloat Name="size" Value="0.40000000596046448" />
            <BoundPropertyStringSet Name="string">
              <BoundPropertyStringElement Value="Gouda" />
            </BoundPropertyStringSet>
            <BoundPropertyString Name="style" Value="Bold" />
            <BoundPropertyFloat Name="transparency" Value="0" />
          </BoundProperties>
        </TextEffect>
      </Effects>
      <Transitions />
      <BoundProperties>
        <BoundPropertyFloatSet Name="diffuseColor">
          <BoundPropertyFloatElement Value="0.75" />
          <BoundPropertyFloatElement Value="1" />
          <BoundPropertyFloatElement Value="0" />
        </BoundPropertyFloatSet>
        <BoundPropertyFloat Name="transparency" Value="1" />
      </BoundProperties>
    </TitleClip>
    <VideoClip extentID="40" gapBefore="0" mediaItemID="36" inTime="0" outTime="19.833333333333343" speed="1" stabilizationMode="0">
      <Effects>
        <ShaderEffect effectTemplateID="FadeInFromBlackEffectTemplate">
          <BoundProperties />
        </ShaderEffect>
      </Effects>
      <Transitions />
      <BoundProperties>
        <BoundPropertyBool Name="Mute" Value="false" />
        <BoundPropertyInt Name="rotateStepNinety" Value="0" />
        <BoundPropertyFloat Name="Volume" Value="1" />
      </BoundProperties>
    </VideoClip>
    <ImageClip extentID="41" gapBefore="0" mediaItemID="50" duration="2.7999999999999998">
      <Effects />
      <Transitions />
      <BoundProperties>
        <BoundPropertyInt Name="rotateStepNinety" Value="0" />
      </BoundProperties>
    </ImageClip>
    <VideoClip extentID="42" gapBefore="0" mediaItemID="194" inTime="31.333333333334167" outTime="44.933333333334076" speed="1" stabilizationMode="0">
      <Effects />
      <Transitions>
        <ShapeEffect effectTemplateID="CrossfadeTransitionTemplate" duration="1.5">
          <BoundProperties />
        </ShapeEffect>
      </Transitions>
      <BoundProperties>
        <BoundPropertyBool Name="Mute" Value="false" />
        <BoundPropertyInt Name="rotateStepNinety" Value="0" />
        <BoundPropertyFloat Name="Volume" Value="1" />
      </BoundProperties>
    </VideoClip>
    <ImageClip extentID="43" gapBefore="0" mediaItemID="52" duration="2.7999999999999998">
      <Effects />
      <Transitions />
      <BoundProperties>
        <BoundPropertyInt Name="rotateStepNinety" Value="0" />
      </BoundProperties>
    </ImageClip>
    <VideoClip extentID="44" gapBefore="0" mediaItemID="40" inTime="0" outTime="23.799999999999983" speed="1" stabilizationMode="0">
      <Effects />
      <Transitions>
        <ShapeEffect effectTemplateID="CrossfadeTransitionTemplate" duration="1.5">
          <BoundProperties />
        </ShapeEffect>
      </Transitions>
      <BoundProperties>
        <BoundPropertyBool Name="Mute" Value="false" />
        <BoundPropertyInt Name="rotateStepNinety" Value="0" />
        <BoundPropertyFloat Name="Volume" Value="1" />
      </BoundProperties>
    </VideoClip>
    <ImageClip extentID="45" gapBefore="0" mediaItemID="53" duration="7">
      <Effects />
      <Transitions />
      <BoundProperties>
        <BoundPropertyInt Name="rotateStepNinety" Value="0" />
      </BoundProperties>
    </ImageClip>
    <VideoClip extentID="46" gapBefore="0" mediaItemID="42" inTime="0" outTime="0" speed="1" stabilizationMode="0">
      <Effects>
        <ShaderEffect effectTemplateID="FadeInFromBlackEffectTemplate">
          <BoundProperties />
        </ShaderEffect>
      </Effects>
      <Transitions />
      <BoundProperties>
        <BoundPropertyBool Name="Mute" Value="false" />
        <BoundPropertyInt Name="rotateStepNinety" Value="0" />
        <BoundPropertyFloat Name="Volume" Value="1" />
      </BoundProperties>
    </VideoClip>
    <ImageClip extentID="47" gapBefore="0" mediaItemID="54" duration="2.7999999999999998">
      <Effects />
      <Transitions />
      <BoundProperties>
        <BoundPropertyInt Name="rotateStepNinety" Value="0" />
      </BoundProperties>
    </ImageClip>
    <VideoClip extentID="48" gapBefore="0" mediaItemID="44" inTime="0" outTime="28.133333333333326" speed="1" stabilizationMode="0">
      <Effects />
      <Transitions>
        <ShapeEffect effectTemplateID="CrossfadeTransitionTemplate" duration="1.5">
          <BoundProperties />
        </ShapeEffect>
      </Transitions>
      <BoundProperties>
        <BoundPropertyBool Name="Mute" Value="false" />
        <BoundPropertyInt Name="rotateStepNinety" Value="0" />
        <BoundPropertyFloat Name="Volume" Value="1" />
      </BoundProperties>
    </VideoClip>
    <VideoClip extentID="49" gapBefore="0" mediaItemID="73" inTime="4.8000000000000682" outTime="25.033333333333417" speed="1" stabilizationMode="0">
      <Effects />
      <Transitions>
        <ShapeEffect effectTemplateID="BlurThroughBlackTransitionTemplate" duration="1.5">
          <BoundProperties />
        </ShapeEffect>
      </Transitions>
      <BoundProperties>
        <BoundPropertyBool Name="Mute" Value="false" />
        <BoundPropertyInt Name="rotateStepNinety" Value="0" />
        <BoundPropertyFloat Name="Volume" Value="1" />
      </BoundProperties>
    </VideoClip>
    <ImageClip extentID="50" gapBefore="0" mediaItemID="46" duration="2.7999999999999998">
      <Effects />
      <Transitions>
        <ShapeEffect effectTemplateID="BlurThroughBlackTransitionTemplate" duration="1.5">
          <BoundProperties />
        </ShapeEffect>
      </Transitions>
      <BoundProperties>
        <BoundPropertyInt Name="rotateStepNinety" Value="0" />
      </BoundProperties>
    </ImageClip>
    <ImageClip extentID="51" gapBefore="0" mediaItemID="47" duration="2.7999999999999998">
      <Effects />
      <Transitions />
      <BoundProperties>
        <BoundPropertyInt Name="rotateStepNinety" Value="0" />
      </BoundProperties>
    </ImageClip>
    <ImageClip extentID="52" gapBefore="0" mediaItemID="48" duration="2.7999999999999998">
      <Effects />
      <Transitions />
      <BoundProperties>
        <BoundPropertyInt Name="rotateStepNinety" Value="0" />
      </BoundProperties>
    </ImageClip>
    <ImageClip extentID="53" gapBefore="0" mediaItemID="49" duration="2.7999999999999998">
      <Effects />
      <Transitions />
      <BoundProperties>
        <BoundPropertyInt Name="rotateStepNinety" Value="0" />
      </BoundProperties>
    </ImageClip>
    <ImageClip extentID="54" gapBefore="0" mediaItemID="56" duration="2.7999999999999998">
      <Effects />
      <Transitions />
      <BoundProperties>
        <BoundPropertyInt Name="rotateStepNinety" Value="0" />
      </BoundProperties>
    </ImageClip>
    <TitleClip extentID="55" gapBefore="0" duration="2.7999999999999998">
      <Effects />
      <Transitions />
      <BoundProperties>
        <BoundPropertyFloatSet Name="diffuseColor">
          <BoundPropertyFloatElement Value="0" />
          <BoundPropertyFloatElement Value="0" />
          <BoundPropertyFloatElement Value="0" />
        </BoundPropertyFloatSet>
        <BoundPropertyFloat Name="transparency" Value="0" />
      </BoundProperties>
    </TitleClip>
    <TitleClip extentID="56" gapBefore="0" duration="2.7999999999999998">
      <Effects>
        <TextEffect effectTemplateID="TextEffectFadeZoomTemplate" TextScriptId="9">
          <BoundProperties>
            <BoundPropertyBool Name="automatic" Value="false" />
            <BoundPropertyFloatSet Name="color">
              <BoundPropertyFloatElement Value="1" />
              <BoundPropertyFloatElement Value="1" />
              <BoundPropertyFloatElement Value="1" />
            </BoundPropertyFloatSet>
            <BoundPropertyStringSet Name="family">
              <BoundPropertyStringElement Value="Segoe UI" />
            </BoundPropertyStringSet>
            <BoundPropertyBool Name="horizontal" Value="true" />
            <BoundPropertyStringSet Name="justify">
              <BoundPropertyStringElement Value="MIDDLE" />
            </BoundPropertyStringSet>
            <BoundPropertyBool Name="leftToRight" Value="true" />
            <BoundPropertyFloatSet Name="length" />
            <BoundPropertyFloat Name="maxExtent" Value="0" />
            <BoundPropertyFloatSet Name="outlineColor">
              <BoundPropertyFloatElement Value="0.64705884456634521" />
              <BoundPropertyFloatElement Value="0.64705884456634521" />
              <BoundPropertyFloatElement Value="0.64705884456634521" />
            </BoundPropertyFloatSet>
            <BoundPropertyInt Name="outlineSizeIndex" Value="0" />
            <BoundPropertyFloatSet Name="position">
              <BoundPropertyFloatElement Value="-0.10191059112548828" />
              <BoundPropertyFloatElement Value="1.2372881174087524" />
              <BoundPropertyFloatElement Value="0.02500000037252903" />
            </BoundPropertyFloatSet>
            <BoundPropertyFloat Name="size" Value="0.80000001192092896" />
            <BoundPropertyStringSet Name="string">
              <BoundPropertyStringElement Value="Benelux körút" />
              <BoundPropertyStringElement Value="2016.07.28-08.04" />
            </BoundPropertyStringSet>
            <BoundPropertyString Name="style" Value="Plain" />
            <BoundPropertyFloat Name="transparency" Value="0" />
          </BoundProperties>
        </TextEffect>
      </Effects>
      <Transitions />
      <BoundProperties>
        <BoundPropertyFloatSet Name="diffuseColor">
          <BoundPropertyFloatElement Value="0.75" />
          <BoundPropertyFloatElement Value="1" />
          <BoundPropertyFloatElement Value="0" />
        </BoundPropertyFloatSet>
        <BoundPropertyFloat Name="transparency" Value="1" />
      </BoundProperties>
    </TitleClip>
    <TitleClip extentID="57" gapBefore="0.40833344459533993" duration="2.8000000000000007">
      <Effects>
        <TextEffect effectTemplateID="TextEffectTemplate" TextScriptId="0">
          <BoundProperties>
            <BoundPropertyBool Name="automatic" Value="false" />
            <BoundPropertyFloatSet Name="color">
              <BoundPropertyFloatElement Value="1" />
              <BoundPropertyFloatElement Value="1" />
              <BoundPropertyFloatElement Value="1" />
            </BoundPropertyFloatSet>
            <BoundPropertyStringSet Name="family">
              <BoundPropertyStringElement Value="Segoe UI" />
            </BoundPropertyStringSet>
            <BoundPropertyBool Name="horizontal" Value="true" />
            <BoundPropertyStringSet Name="justify">
              <BoundPropertyStringElement Value="MIDDLE" />
            </BoundPropertyStringSet>
            <BoundPropertyBool Name="leftToRight" Value="true" />
            <BoundPropertyFloatSet Name="length">
              <BoundPropertyFloatElement Value="4.0999999046325684" />
              <BoundPropertyFloatElement Value="5.1999998092651367" />
            </BoundPropertyFloatSet>
            <BoundPropertyFloat Name="maxExtent" Value="5" />
            <BoundPropertyFloatSet Name="outlineColor">
              <BoundPropertyFloatElement Value="0.64705884456634521" />
              <BoundPropertyFloatElement Value="0.64705884456634521" />
              <BoundPropertyFloatElement Value="0.64705884456634521" />
            </BoundPropertyFloatSet>
            <BoundPropertyInt Name="outlineSizeIndex" Value="0" />
            <BoundPropertyFloatSet Name="position">
              <BoundPropertyFloatElement Value="0" />
              <BoundPropertyFloatElement Value="-1.7796611785888672" />
              <BoundPropertyFloatElement Value="0.02500000037252903" />
            </BoundPropertyFloatSet>
            <BoundPropertyFloat Name="size" Value="0.40000000596046448" />
            <BoundPropertyStringSet Name="string">
              <BoundPropertyStringElement Value="1.szállás:  Würzburg" />
            </BoundPropertyStringSet>
            <BoundPropertyString Name="style" Value="Plain" />
            <BoundPropertyFloat Name="transparency" Value="0" />
          </BoundProperties>
        </TextEffect>
      </Effects>
      <Transitions />
      <BoundProperties>
        <BoundPropertyFloatSet Name="diffuseColor">
          <BoundPropertyFloatElement Value="0.75" />
          <BoundPropertyFloatElement Value="1" />
          <BoundPropertyFloatElement Value="0" />
        </BoundPropertyFloatSet>
        <BoundPropertyFloat Name="transparency" Value="1" />
      </BoundProperties>
    </TitleClip>
    <ImageClip extentID="58" gapBefore="0" mediaItemID="57" duration="2.7999999999999998">
      <Effects />
      <Transitions />
      <BoundProperties>
        <BoundPropertyInt Name="rotateStepNinety" Value="0" />
      </BoundProperties>
    </ImageClip>
    <ImageClip extentID="59" gapBefore="0" mediaItemID="58" duration="2.7999999999999998">
      <Effects />
      <Transitions />
      <BoundProperties>
        <BoundPropertyInt Name="rotateStepNinety" Value="0" />
      </BoundProperties>
    </ImageClip>
    <TitleClip extentID="60" gapBefore="5.9500003337860043" duration="1.3416655540466316">
      <Effects>
        <TextEffect effectTemplateID="TextEffectTemplate" TextScriptId="0">
          <BoundProperties>
            <BoundPropertyBool Name="automatic" Value="false" />
            <BoundPropertyFloatSet Name="color">
              <BoundPropertyFloatElement Value="1" />
              <BoundPropertyFloatElement Value="1" />
              <BoundPropertyFloatElement Value="1" />
            </BoundPropertyFloatSet>
            <BoundPropertyStringSet Name="family">
              <BoundPropertyStringElement Value="Segoe UI" />
            </BoundPropertyStringSet>
            <BoundPropertyBool Name="horizontal" Value="true" />
            <BoundPropertyStringSet Name="justify">
              <BoundPropertyStringElement Value="MIDDLE" />
            </BoundPropertyStringSet>
            <BoundPropertyBool Name="leftToRight" Value="true" />
            <BoundPropertyFloatSet Name="length">
              <BoundPropertyFloatElement Value="4.0999999046325684" />
              <BoundPropertyFloatElement Value="5.1999998092651367" />
            </BoundPropertyFloatSet>
            <BoundPropertyFloat Name="maxExtent" Value="5" />
            <BoundPropertyFloatSet Name="outlineColor">
              <BoundPropertyFloatElement Value="0.64705884456634521" />
              <BoundPropertyFloatElement Value="0.64705884456634521" />
              <BoundPropertyFloatElement Value="0.64705884456634521" />
            </BoundPropertyFloatSet>
            <BoundPropertyInt Name="outlineSizeIndex" Value="0" />
            <BoundPropertyFloatSet Name="position">
              <BoundPropertyFloatElement Value="0" />
              <BoundPropertyFloatElement Value="-1.7796611785888672" />
              <BoundPropertyFloatElement Value="0.02500000037252903" />
            </BoundPropertyFloatSet>
            <BoundPropertyFloat Name="size" Value="0.40000000596046448" />
            <BoundPropertyStringSet Name="string">
              <BoundPropertyStringElement Value="Rüdesheim" />
            </BoundPropertyStringSet>
            <BoundPropertyString Name="style" Value="Plain" />
            <BoundPropertyFloat Name="transparency" Value="0" />
          </BoundProperties>
        </TextEffect>
      </Effects>
      <Transitions />
      <BoundProperties>
        <BoundPropertyFloatSet Name="diffuseColor">
          <BoundPropertyFloatElement Value="0.75" />
          <BoundPropertyFloatElement Value="1" />
          <BoundPropertyFloatElement Value="0" />
        </BoundPropertyFloatSet>
        <BoundPropertyFloat Name="transparency" Value="1" />
      </BoundProperties>
    </TitleClip>
    <VideoClip extentID="61" gapBefore="0" mediaItemID="28" inTime="4.9333333333333371" outTime="7.5666666666666771" speed="1" stabilizationMode="0">
      <Effects>
        <ShaderEffect effectTemplateID="FadeInFromBlackEffectTemplate">
          <BoundProperties />
        </ShaderEffect>
      </Effects>
      <Transitions />
      <BoundProperties>
        <BoundPropertyBool Name="Mute" Value="false" />
        <BoundPropertyInt Name="rotateStepNinety" Value="0" />
        <BoundPropertyFloat Name="Volume" Value="1" />
      </BoundProperties>
    </VideoClip>
    <ImageClip extentID="62" gapBefore="0" mediaItemID="59" duration="2.7999999999999998">
      <Effects />
      <Transitions />
      <BoundProperties>
        <BoundPropertyInt Name="rotateStepNinety" Value="0" />
      </BoundProperties>
    </ImageClip>
    <VideoClip extentID="63" gapBefore="0" mediaItemID="28" inTime="13.033333333333331" outTime="0" speed="1" stabilizationMode="0">
      <Effects>
        <ShaderEffect effectTemplateID="FadeOutToBlackEffectTemplate">
          <BoundProperties />
        </ShaderEffect>
      </Effects>
      <Transitions>
        <ShapeEffect effectTemplateID="CrossfadeTransitionTemplate" duration="1.5">
          <BoundProperties />
        </ShapeEffect>
      </Transitions>
      <BoundProperties>
        <BoundPropertyBool Name="Mute" Value="false" />
        <BoundPropertyInt Name="rotateStepNinety" Value="0" />
        <BoundPropertyFloat Name="Volume" Value="1" />
      </BoundProperties>
    </VideoClip>
    <ImageClip extentID="64" gapBefore="0" mediaItemID="60" duration="2.7999999999999998">
      <Effects />
      <Transitions />
      <BoundProperties>
        <BoundPropertyInt Name="rotateStepNinety" Value="0" />
      </BoundProperties>
    </ImageClip>
    <VideoClip extentID="65" gapBefore="0" mediaItemID="32" inTime="8.2000000000000171" outTime="27.966666666666697" speed="1" stabilizationMode="0">
      <Effects />
      <Transitions>
        <ShapeEffect effectTemplateID="CrossfadeTransitionTemplate" duration="1.5">
          <BoundProperties />
        </ShapeEffect>
      </Transitions>
      <BoundProperties>
        <BoundPropertyBool Name="Mute" Value="false" />
        <BoundPropertyInt Name="rotateStepNinety" Value="0" />
        <BoundPropertyFloat Name="Volume" Value="1" />
      </BoundProperties>
    </VideoClip>
    <TitleClip extentID="66" gapBefore="115.9266666666673" duration="2.7667066666667779">
      <Effects>
        <TextEffect effectTemplateID="TextEffectFadeTemplate" TextScriptId="1">
          <BoundProperties>
            <BoundPropertyBool Name="automatic" Value="false" />
            <BoundPropertyFloatSet Name="color">
              <BoundPropertyFloatElement Value="1" />
              <BoundPropertyFloatElement Value="1" />
              <BoundPropertyFloatElement Value="1" />
            </BoundPropertyFloatSet>
            <BoundPropertyStringSet Name="family">
              <BoundPropertyStringElement Value="Segoe UI" />
            </BoundPropertyStringSet>
            <BoundPropertyBool Name="horizontal" Value="true" />
            <BoundPropertyStringSet Name="justify">
              <BoundPropertyStringElement Value="MIDDLE" />
            </BoundPropertyStringSet>
            <BoundPropertyBool Name="leftToRight" Value="true" />
            <BoundPropertyFloatSet Name="length" />
            <BoundPropertyFloat Name="maxExtent" Value="0" />
            <BoundPropertyFloatSet Name="outlineColor">
              <BoundPropertyFloatElement Value="0.64705884456634521" />
              <BoundPropertyFloatElement Value="0.64705884456634521" />
              <BoundPropertyFloatElement Value="0.64705884456634521" />
            </BoundPropertyFloatSet>
            <BoundPropertyInt Name="outlineSizeIndex" Value="0" />
            <BoundPropertyFloatSet Name="position">
              <BoundPropertyFloatElement Value="0" />
              <BoundPropertyFloatElement Value="-1.745762825012207" />
              <BoundPropertyFloatElement Value="0.02500000037252903" />
            </BoundPropertyFloatSet>
            <BoundPropertyFloat Name="size" Value="0.40000000596046448" />
            <BoundPropertyStringSet Name="string">
              <BoundPropertyStringElement Value="" />
              <BoundPropertyStringElement Value="Hága" />
            </BoundPropertyStringSet>
            <BoundPropertyString Name="style" Value="Bold" />
            <BoundPropertyFloat Name="transparency" Value="0" />
          </BoundProperties>
        </TextEffect>
      </Effects>
      <Transitions />
      <BoundProperties>
        <BoundPropertyFloatSet Name="diffuseColor">
          <BoundPropertyFloatElement Value="0.75" />
          <BoundPropertyFloatElement Value="1" />
          <BoundPropertyFloatElement Value="0" />
        </BoundPropertyFloatSet>
        <BoundPropertyFloat Name="transparency" Value="1" />
      </BoundProperties>
    </TitleClip>
    <ImageClip extentID="67" gapBefore="0" mediaItemID="62" duration="2.7999999999999998">
      <Effects />
      <Transitions />
      <BoundProperties>
        <BoundPropertyInt Name="rotateStepNinety" Value="0" />
      </BoundProperties>
    </ImageClip>
    <ImageClip extentID="68" gapBefore="0" mediaItemID="63" duration="2.7999999999999998">
      <Effects />
      <Transitions />
      <BoundProperties>
        <BoundPropertyInt Name="rotateStepNinety" Value="0" />
      </BoundProperties>
    </ImageClip>
    <VideoClip extentID="69" gapBefore="0" mediaItemID="35" inTime="19.433333333333337" outTime="32.400000000000006" speed="1" stabilizationMode="0">
      <Effects />
      <Transitions>
        <ShapeEffect effectTemplateID="CrossfadeTransitionTemplate" duration="1.5">
          <BoundProperties />
        </ShapeEffect>
      </Transitions>
      <BoundProperties>
        <BoundPropertyBool Name="Mute" Value="false" />
        <BoundPropertyInt Name="rotateStepNinety" Value="0" />
        <BoundPropertyFloat Name="Volume" Value="1" />
      </BoundProperties>
    </VideoClip>
    <ImageClip extentID="70" gapBefore="0" mediaItemID="64" duration="2.7999999999999998">
      <Effects />
      <Transitions />
      <BoundProperties>
        <BoundPropertyInt Name="rotateStepNinety" Value="0" />
      </BoundProperties>
    </ImageClip>
    <ImageClip extentID="71" gapBefore="0" mediaItemID="65" duration="2.7999999999999998">
      <Effects />
      <Transitions />
      <BoundProperties>
        <BoundPropertyInt Name="rotateStepNinety" Value="0" />
      </BoundProperties>
    </ImageClip>
    <VideoClip extentID="72" gapBefore="0" mediaItemID="37" inTime="2.7333333333333201" outTime="20.499999999999972" speed="1" stabilizationMode="0">
      <Effects />
      <Transitions>
        <ShapeEffect effectTemplateID="CrossfadeTransitionTemplate" duration="1.5">
          <BoundProperties />
        </ShapeEffect>
      </Transitions>
      <BoundProperties>
        <BoundPropertyBool Name="Mute" Value="false" />
        <BoundPropertyInt Name="rotateStepNinety" Value="0" />
        <BoundPropertyFloat Name="Volume" Value="1" />
      </BoundProperties>
    </VideoClip>
    <VideoClip extentID="73" gapBefore="0" mediaItemID="66" inTime="0" outTime="24.873333333332994" speed="1" stabilizationMode="0">
      <Effects />
      <Transitions />
      <BoundProperties>
        <BoundPropertyBool Name="Mute" Value="false" />
        <BoundPropertyInt Name="rotateStepNinety" Value="0" />
        <BoundPropertyFloat Name="Volume" Value="1" />
      </BoundProperties>
    </VideoClip>
    <TitleClip extentID="74" gapBefore="0.033293333334313502" duration="2.766706666665641">
      <Effects>
        <TextEffect effectTemplateID="TextEffectFadeTemplate" TextScriptId="1">
          <BoundProperties>
            <BoundPropertyBool Name="automatic" Value="false" />
            <BoundPropertyFloatSet Name="color">
              <BoundPropertyFloatElement Value="1" />
              <BoundPropertyFloatElement Value="1" />
              <BoundPropertyFloatElement Value="1" />
            </BoundPropertyFloatSet>
            <BoundPropertyStringSet Name="family">
              <BoundPropertyStringElement Value="Segoe UI" />
            </BoundPropertyStringSet>
            <BoundPropertyBool Name="horizontal" Value="true" />
            <BoundPropertyStringSet Name="justify">
              <BoundPropertyStringElement Value="MIDDLE" />
            </BoundPropertyStringSet>
            <BoundPropertyBool Name="leftToRight" Value="true" />
            <BoundPropertyFloatSet Name="length" />
            <BoundPropertyFloat Name="maxExtent" Value="0" />
            <BoundPropertyFloatSet Name="outlineColor">
              <BoundPropertyFloatElement Value="0.64705884456634521" />
              <BoundPropertyFloatElement Value="0.64705884456634521" />
              <BoundPropertyFloatElement Value="0.64705884456634521" />
            </BoundPropertyFloatSet>
            <BoundPropertyInt Name="outlineSizeIndex" Value="0" />
            <BoundPropertyFloatSet Name="position">
              <BoundPropertyFloatElement Value="0" />
              <BoundPropertyFloatElement Value="-1.745762825012207" />
              <BoundPropertyFloatElement Value="0.02500000037252903" />
            </BoundPropertyFloatSet>
            <BoundPropertyFloat Name="size" Value="0.40000000596046448" />
            <BoundPropertyStringSet Name="string">
              <BoundPropertyStringElement Value="Johannes Vermeer: Lány gyöngy " />
              <BoundPropertyStringElement Value="fülbevalóval)" />
            </BoundPropertyStringSet>
            <BoundPropertyString Name="style" Value="Bold" />
            <BoundPropertyFloat Name="transparency" Value="0" />
          </BoundProperties>
        </TextEffect>
      </Effects>
      <Transitions />
      <BoundProperties>
        <BoundPropertyFloatSet Name="diffuseColor">
          <BoundPropertyFloatElement Value="0.75" />
          <BoundPropertyFloatElement Value="1" />
          <BoundPropertyFloatElement Value="0" />
        </BoundPropertyFloatSet>
        <BoundPropertyFloat Name="transparency" Value="1" />
      </BoundProperties>
    </TitleClip>
    <VideoClip extentID="75" gapBefore="0" mediaItemID="68" inTime="0" outTime="16.706666666666365" speed="1" stabilizationMode="0">
      <Effects />
      <Transitions>
        <ShapeEffect effectTemplateID="CrossfadeTransitionTemplate" duration="1.5">
          <BoundProperties />
        </ShapeEffect>
      </Transitions>
      <BoundProperties>
        <BoundPropertyBool Name="Mute" Value="false" />
        <BoundPropertyInt Name="rotateStepNinety" Value="0" />
        <BoundPropertyFloat Name="Volume" Value="1" />
      </BoundProperties>
    </VideoClip>
    <VideoClip extentID="76" gapBefore="0" mediaItemID="38" inTime="19.96666666666664" outTime="34.833333333333286" speed="1" stabilizationMode="0">
      <Effects />
      <Transitions>
        <ShapeEffect effectTemplateID="CrossfadeTransitionTemplate" duration="1.5">
          <BoundProperties />
        </ShapeEffect>
      </Transitions>
      <BoundProperties>
        <BoundPropertyBool Name="Mute" Value="false" />
        <BoundPropertyInt Name="rotateStepNinety" Value="0" />
        <BoundPropertyFloat Name="Volume" Value="1" />
      </BoundProperties>
    </VideoClip>
    <TitleClip extentID="77" gapBefore="0.033293333334086128" duration="2.7667066666658684">
      <Effects>
        <TextEffect effectTemplateID="TextEffectFadeTemplate" TextScriptId="1">
          <BoundProperties>
            <BoundPropertyBool Name="automatic" Value="false" />
            <BoundPropertyFloatSet Name="color">
              <BoundPropertyFloatElement Value="1" />
              <BoundPropertyFloatElement Value="1" />
              <BoundPropertyFloatElement Value="1" />
            </BoundPropertyFloatSet>
            <BoundPropertyStringSet Name="family">
              <BoundPropertyStringElement Value="Segoe UI" />
            </BoundPropertyStringSet>
            <BoundPropertyBool Name="horizontal" Value="true" />
            <BoundPropertyStringSet Name="justify">
              <BoundPropertyStringElement Value="MIDDLE" />
            </BoundPropertyStringSet>
            <BoundPropertyBool Name="leftToRight" Value="true" />
            <BoundPropertyFloatSet Name="length" />
            <BoundPropertyFloat Name="maxExtent" Value="0" />
            <BoundPropertyFloatSet Name="outlineColor">
              <BoundPropertyFloatElement Value="0.64705884456634521" />
              <BoundPropertyFloatElement Value="0.64705884456634521" />
              <BoundPropertyFloatElement Value="0.64705884456634521" />
            </BoundPropertyFloatSet>
            <BoundPropertyInt Name="outlineSizeIndex" Value="0" />
            <BoundPropertyFloatSet Name="position">
              <BoundPropertyFloatElement Value="0" />
              <BoundPropertyFloatElement Value="-1.745762825012207" />
              <BoundPropertyFloatElement Value="0.02500000037252903" />
            </BoundPropertyFloatSet>
            <BoundPropertyFloat Name="size" Value="0.40000000596046448" />
            <BoundPropertyStringSet Name="string">
              <BoundPropertyStringElement Value="Rembrandt: dr. Tulp anatómiája" />
            </BoundPropertyStringSet>
            <BoundPropertyString Name="style" Value="Bold" />
            <BoundPropertyFloat Name="transparency" Value="0" />
          </BoundProperties>
        </TextEffect>
      </Effects>
      <Transitions />
      <BoundProperties>
        <BoundPropertyFloatSet Name="diffuseColor">
          <BoundPropertyFloatElement Value="0.75" />
          <BoundPropertyFloatElement Value="1" />
          <BoundPropertyFloatElement Value="0" />
        </BoundPropertyFloatSet>
        <BoundPropertyFloat Name="transparency" Value="1" />
      </BoundProperties>
    </TitleClip>
    <VideoClip extentID="78" gapBefore="0" mediaItemID="70" inTime="0" outTime="39.133333333333326" speed="1" stabilizationMode="0">
      <Effects />
      <Transitions />
      <BoundProperties>
        <BoundPropertyBool Name="Mute" Value="false" />
        <BoundPropertyInt Name="rotateStepNinety" Value="0" />
        <BoundPropertyFloat Name="Volume" Value="1" />
      </BoundProperties>
    </VideoClip>
    <VideoClip extentID="79" gapBefore="0" mediaItemID="39" inTime="16.666666666666657" outTime="25.033333333333331" speed="1" stabilizationMode="0">
      <Effects />
      <Transitions>
        <ShapeEffect effectTemplateID="CrossfadeTransitionTemplate" duration="1.5">
          <BoundProperties />
        </ShapeEffect>
      </Transitions>
      <BoundProperties>
        <BoundPropertyBool Name="Mute" Value="false" />
        <BoundPropertyInt Name="rotateStepNinety" Value="0" />
        <BoundPropertyFloat Name="Volume" Value="1" />
      </BoundProperties>
    </VideoClip>
    <VideoClip extentID="80" gapBefore="0" mediaItemID="71" inTime="0" outTime="23.566666666666606" speed="1" stabilizationMode="0">
      <Effects />
      <Transitions>
        <ShapeEffect effectTemplateID="BlurThroughBlackTransitionTemplate" duration="1.5">
          <BoundProperties />
        </ShapeEffect>
      </Transitions>
      <BoundProperties>
        <BoundPropertyBool Name="Mute" Value="false" />
        <BoundPropertyInt Name="rotateStepNinety" Value="0" />
        <BoundPropertyFloat Name="Volume" Value="1" />
      </BoundProperties>
    </VideoClip>
    <TitleClip extentID="81" gapBefore="0.033293333334086128" duration="2.7667066666658684">
      <Effects>
        <TextEffect effectTemplateID="TextEffectFadeTemplate" TextScriptId="1">
          <BoundProperties>
            <BoundPropertyBool Name="automatic" Value="false" />
            <BoundPropertyFloatSet Name="color">
              <BoundPropertyFloatElement Value="1" />
              <BoundPropertyFloatElement Value="1" />
              <BoundPropertyFloatElement Value="1" />
            </BoundPropertyFloatSet>
            <BoundPropertyStringSet Name="family">
              <BoundPropertyStringElement Value="Segoe UI" />
            </BoundPropertyStringSet>
            <BoundPropertyBool Name="horizontal" Value="true" />
            <BoundPropertyStringSet Name="justify">
              <BoundPropertyStringElement Value="MIDDLE" />
            </BoundPropertyStringSet>
            <BoundPropertyBool Name="leftToRight" Value="true" />
            <BoundPropertyFloatSet Name="length" />
            <BoundPropertyFloat Name="maxExtent" Value="0" />
            <BoundPropertyFloatSet Name="outlineColor">
              <BoundPropertyFloatElement Value="0.64705884456634521" />
              <BoundPropertyFloatElement Value="0.64705884456634521" />
              <BoundPropertyFloatElement Value="0.64705884456634521" />
            </BoundPropertyFloatSet>
            <BoundPropertyInt Name="outlineSizeIndex" Value="0" />
            <BoundPropertyFloatSet Name="position">
              <BoundPropertyFloatElement Value="0" />
              <BoundPropertyFloatElement Value="-1.745762825012207" />
              <BoundPropertyFloatElement Value="0.02500000037252903" />
            </BoundPropertyFloatSet>
            <BoundPropertyFloat Name="size" Value="0.40000000596046448" />
            <BoundPropertyStringSet Name="string">
              <BoundPropertyStringElement Value="Rubens::Öreg hölgy és egy fiú gyertyáva" />
            </BoundPropertyStringSet>
            <BoundPropertyString Name="style" Value="Bold" />
            <BoundPropertyFloat Name="transparency" Value="0" />
          </BoundProperties>
        </TextEffect>
      </Effects>
      <Transitions />
      <BoundProperties>
        <BoundPropertyFloatSet Name="diffuseColor">
          <BoundPropertyFloatElement Value="0.75" />
          <BoundPropertyFloatElement Value="1" />
          <BoundPropertyFloatElement Value="0" />
        </BoundPropertyFloatSet>
        <BoundPropertyFloat Name="transparency" Value="1" />
      </BoundProperties>
    </TitleClip>
    <VideoClip extentID="82" gapBefore="0" mediaItemID="41" inTime="4.966666666666697" outTime="10.800000000000011" speed="1" stabilizationMode="0">
      <Effects />
      <Transitions>
        <ShaderEffect effectTemplateID="DiagonalCrossOutTransitionTemplate" duration="1.5">
          <BoundProperties />
        </ShaderEffect>
      </Transitions>
      <BoundProperties>
        <BoundPropertyBool Name="Mute" Value="false" />
        <BoundPropertyInt Name="rotateStepNinety" Value="0" />
        <BoundPropertyFloat Name="Volume" Value="1" />
      </BoundProperties>
    </VideoClip>
    <TitleClip extentID="83" gapBefore="56.033293333333177" duration="2.7667066666658684">
      <Effects>
        <TextEffect effectTemplateID="TextEffectFadeTemplate" TextScriptId="1">
          <BoundProperties>
            <BoundPropertyBool Name="automatic" Value="false" />
            <BoundPropertyFloatSet Name="color">
              <BoundPropertyFloatElement Value="1" />
              <BoundPropertyFloatElement Value="1" />
              <BoundPropertyFloatElement Value="1" />
            </BoundPropertyFloatSet>
            <BoundPropertyStringSet Name="family">
              <BoundPropertyStringElement Value="Segoe UI" />
            </BoundPropertyStringSet>
            <BoundPropertyBool Name="horizontal" Value="true" />
            <BoundPropertyStringSet Name="justify">
              <BoundPropertyStringElement Value="MIDDLE" />
            </BoundPropertyStringSet>
            <BoundPropertyBool Name="leftToRight" Value="true" />
            <BoundPropertyFloatSet Name="length" />
            <BoundPropertyFloat Name="maxExtent" Value="0" />
            <BoundPropertyFloatSet Name="outlineColor">
              <BoundPropertyFloatElement Value="0.64705884456634521" />
              <BoundPropertyFloatElement Value="0.64705884456634521" />
              <BoundPropertyFloatElement Value="0.64705884456634521" />
            </BoundPropertyFloatSet>
            <BoundPropertyInt Name="outlineSizeIndex" Value="0" />
            <BoundPropertyFloatSet Name="position">
              <BoundPropertyFloatElement Value="0" />
              <BoundPropertyFloatElement Value="-1.3050847053527832" />
              <BoundPropertyFloatElement Value="0.02500000037252903" />
            </BoundPropertyFloatSet>
            <BoundPropertyFloat Name="size" Value="0.40000000596046448" />
            <BoundPropertyStringSet Name="string">
              <BoundPropertyStringElement Value="Rubens portrék" />
            </BoundPropertyStringSet>
            <BoundPropertyString Name="style" Value="Bold" />
            <BoundPropertyFloat Name="transparency" Value="0" />
          </BoundProperties>
        </TextEffect>
      </Effects>
      <Transitions />
      <BoundProperties>
        <BoundPropertyFloatSet Name="diffuseColor">
          <BoundPropertyFloatElement Value="0.75" />
          <BoundPropertyFloatElement Value="1" />
          <BoundPropertyFloatElement Value="0" />
        </BoundPropertyFloatSet>
        <BoundPropertyFloat Name="transparency" Value="1" />
      </BoundProperties>
    </TitleClip>
    <TitleClip extentID="84" gapBefore="2132.9827256666654" duration="2.7799599999998463">
      <Effects>
        <TextEffect effectTemplateID="TextEffectTemplate" TextScriptId="0">
          <BoundProperties>
            <BoundPropertyBool Name="automatic" Value="false" />
            <BoundPropertyFloatSet Name="color">
              <BoundPropertyFloatElement Value="1" />
              <BoundPropertyFloatElement Value="1" />
              <BoundPropertyFloatElement Value="1" />
            </BoundPropertyFloatSet>
            <BoundPropertyStringSet Name="family">
              <BoundPropertyStringElement Value="Segoe UI" />
            </BoundPropertyStringSet>
            <BoundPropertyBool Name="horizontal" Value="true" />
            <BoundPropertyStringSet Name="justify">
              <BoundPropertyStringElement Value="MIDDLE" />
            </BoundPropertyStringSet>
            <BoundPropertyBool Name="leftToRight" Value="true" />
            <BoundPropertyFloatSet Name="length">
              <BoundPropertyFloatElement Value="4.0999999046325684" />
              <BoundPropertyFloatElement Value="5.1999998092651367" />
            </BoundPropertyFloatSet>
            <BoundPropertyFloat Name="maxExtent" Value="5" />
            <BoundPropertyFloatSet Name="outlineColor">
              <BoundPropertyFloatElement Value="0.64705884456634521" />
              <BoundPropertyFloatElement Value="0.64705884456634521" />
              <BoundPropertyFloatElement Value="0.64705884456634521" />
            </BoundPropertyFloatSet>
            <BoundPropertyInt Name="outlineSizeIndex" Value="0" />
            <BoundPropertyFloatSet Name="position">
              <BoundPropertyFloatElement Value="0" />
              <BoundPropertyFloatElement Value="-1.745762825012207" />
              <BoundPropertyFloatElement Value="0.02500000037252903" />
            </BoundPropertyFloatSet>
            <BoundPropertyFloat Name="size" Value="0.40000000596046448" />
            <BoundPropertyStringSet Name="string">
              <BoundPropertyStringElement Value="esti séta Delftben (Hollandia)" />
              <BoundPropertyStringElement Value="" />
            </BoundPropertyStringSet>
            <BoundPropertyString Name="style" Value="Plain" />
            <BoundPropertyFloat Name="transparency" Value="0" />
          </BoundProperties>
        </TextEffect>
      </Effects>
      <Transitions />
      <BoundProperties>
        <BoundPropertyFloatSet Name="diffuseColor">
          <BoundPropertyFloatElement Value="0.75" />
          <BoundPropertyFloatElement Value="1" />
          <BoundPropertyFloatElement Value="0" />
        </BoundPropertyFloatSet>
        <BoundPropertyFloat Name="transparency" Value="1" />
      </BoundProperties>
    </TitleClip>
    <VideoClip extentID="85" gapBefore="0" mediaItemID="181" inTime="3.2332933333348137" outTime="21.433253333336324" speed="1" stabilizationMode="0">
      <Effects />
      <Transitions />
      <BoundProperties>
        <BoundPropertyBool Name="Mute" Value="false" />
        <BoundPropertyInt Name="rotateStepNinety" Value="0" />
        <BoundPropertyFloat Name="Volume" Value="1" />
      </BoundProperties>
    </VideoClip>
    <VideoClip extentID="86" gapBefore="0" mediaItemID="75" inTime="0" outTime="8.433333333333394" speed="1" stabilizationMode="0">
      <Effects />
      <Transitions>
        <ShapeEffect effectTemplateID="CrossfadeTransitionTemplate" duration="1.5">
          <BoundProperties />
        </ShapeEffect>
      </Transitions>
      <BoundProperties>
        <BoundPropertyBool Name="Mute" Value="false" />
        <BoundPropertyInt Name="rotateStepNinety" Value="0" />
        <BoundPropertyFloat Name="Volume" Value="1" />
      </BoundProperties>
    </VideoClip>
    <ImageClip extentID="87" gapBefore="0" mediaItemID="67" duration="7">
      <Effects />
      <Transitions />
      <BoundProperties>
        <BoundPropertyInt Name="rotateStepNinety" Value="0" />
      </BoundProperties>
    </ImageClip>
    <TitleClip extentID="88" gapBefore="30.833293333334268" duration="7">
      <Effects>
        <TextEffect effectTemplateID="TextEffectFadeTemplate" TextScriptId="1">
          <BoundProperties>
            <BoundPropertyBool Name="automatic" Value="false" />
            <BoundPropertyFloatSet Name="color">
              <BoundPropertyFloatElement Value="1" />
              <BoundPropertyFloatElement Value="1" />
              <BoundPropertyFloatElement Value="1" />
            </BoundPropertyFloatSet>
            <BoundPropertyStringSet Name="family">
              <BoundPropertyStringElement Value="Segoe UI" />
            </BoundPropertyStringSet>
            <BoundPropertyBool Name="horizontal" Value="true" />
            <BoundPropertyStringSet Name="justify">
              <BoundPropertyStringElement Value="MIDDLE" />
            </BoundPropertyStringSet>
            <BoundPropertyBool Name="leftToRight" Value="true" />
            <BoundPropertyFloatSet Name="length" />
            <BoundPropertyFloat Name="maxExtent" Value="0" />
            <BoundPropertyFloatSet Name="outlineColor">
              <BoundPropertyFloatElement Value="0.64705884456634521" />
              <BoundPropertyFloatElement Value="0.64705884456634521" />
              <BoundPropertyFloatElement Value="0.64705884456634521" />
            </BoundPropertyFloatSet>
            <BoundPropertyInt Name="outlineSizeIndex" Value="0" />
            <BoundPropertyFloatSet Name="position">
              <BoundPropertyFloatElement Value="0" />
              <BoundPropertyFloatElement Value="-1.7796611785888672" />
              <BoundPropertyFloatElement Value="0.02500000037252903" />
            </BoundPropertyFloatSet>
            <BoundPropertyFloat Name="size" Value="0.40000000596046448" />
            <BoundPropertyStringSet Name="string">
              <BoundPropertyStringElement Value="Antwerpen" />
            </BoundPropertyStringSet>
            <BoundPropertyString Name="style" Value="Bold" />
            <BoundPropertyFloat Name="transparency" Value="0" />
          </BoundProperties>
        </TextEffect>
      </Effects>
      <Transitions />
      <BoundProperties>
        <BoundPropertyFloatSet Name="diffuseColor">
          <BoundPropertyFloatElement Value="0.75" />
          <BoundPropertyFloatElement Value="1" />
          <BoundPropertyFloatElement Value="0" />
        </BoundPropertyFloatSet>
        <BoundPropertyFloat Name="transparency" Value="1" />
      </BoundProperties>
    </TitleClip>
    <VideoClip extentID="89" gapBefore="0" mediaItemID="194" inTime="6.3000000000004093" outTime="20.766666666667561" speed="1" stabilizationMode="0">
      <Effects />
      <Transitions />
      <BoundProperties>
        <BoundPropertyBool Name="Mute" Value="false" />
        <BoundPropertyInt Name="rotateStepNinety" Value="0" />
        <BoundPropertyFloat Name="Volume" Value="1" />
      </BoundProperties>
    </VideoClip>
    <ImageClip extentID="90" gapBefore="0" mediaItemID="72" duration="7">
      <Effects />
      <Transitions />
      <BoundProperties>
        <BoundPropertyInt Name="rotateStepNinety" Value="0" />
      </BoundProperties>
    </ImageClip>
    <VideoClip extentID="91" gapBefore="0" mediaItemID="194" inTime="55.500000000000909" outTime="61.933333333334303" speed="1" stabilizationMode="0">
      <Effects />
      <Transitions />
      <BoundProperties>
        <BoundPropertyBool Name="Mute" Value="false" />
        <BoundPropertyInt Name="rotateStepNinety" Value="0" />
        <BoundPropertyFloat Name="Volume" Value="1" />
      </BoundProperties>
    </VideoClip>
    <ImageClip extentID="92" gapBefore="0" mediaItemID="81" duration="2.7999999999999998">
      <Effects />
      <Transitions />
      <BoundProperties>
        <BoundPropertyInt Name="rotateStepNinety" Value="0" />
      </BoundProperties>
    </ImageClip>
    <ImageClip extentID="93" gapBefore="0" mediaItemID="82" duration="2.7999999999999998">
      <Effects />
      <Transitions />
      <BoundProperties>
        <BoundPropertyInt Name="rotateStepNinety" Value="0" />
      </BoundProperties>
    </ImageClip>
    <ImageClip extentID="94" gapBefore="0" mediaItemID="83" duration="2.7999999999999998">
      <Effects />
      <Transitions />
      <BoundProperties>
        <BoundPropertyInt Name="rotateStepNinety" Value="0" />
      </BoundProperties>
    </ImageClip>
    <ImageClip extentID="95" gapBefore="0" mediaItemID="84" duration="2.7999999999999998">
      <Effects />
      <Transitions />
      <BoundProperties>
        <BoundPropertyInt Name="rotateStepNinety" Value="0" />
      </BoundProperties>
    </ImageClip>
    <ImageClip extentID="96" gapBefore="0" mediaItemID="85" duration="2.7999999999999998">
      <Effects />
      <Transitions />
      <BoundProperties>
        <BoundPropertyInt Name="rotateStepNinety" Value="0" />
      </BoundProperties>
    </ImageClip>
    <ImageClip extentID="97" gapBefore="0" mediaItemID="86" duration="2.7999999999999998">
      <Effects />
      <Transitions />
      <BoundProperties>
        <BoundPropertyInt Name="rotateStepNinety" Value="0" />
      </BoundProperties>
    </ImageClip>
    <ImageClip extentID="98" gapBefore="0" mediaItemID="87" duration="7">
      <Effects />
      <Transitions />
      <BoundProperties>
        <BoundPropertyInt Name="rotateStepNinety" Value="0" />
      </BoundProperties>
    </ImageClip>
    <ImageClip extentID="99" gapBefore="0" mediaItemID="88" duration="7">
      <Effects />
      <Transitions />
      <BoundProperties>
        <BoundPropertyInt Name="rotateStepNinety" Value="0" />
      </BoundProperties>
    </ImageClip>
    <ImageClip extentID="100" gapBefore="0" mediaItemID="89" duration="2.7999999999999998">
      <Effects />
      <Transitions />
      <BoundProperties>
        <BoundPropertyInt Name="rotateStepNinety" Value="0" />
      </BoundProperties>
    </ImageClip>
    <VideoClip extentID="101" gapBefore="0" mediaItemID="90" inTime="0" outTime="0" speed="1" stabilizationMode="0">
      <Effects />
      <Transitions />
      <BoundProperties>
        <BoundPropertyBool Name="Mute" Value="false" />
        <BoundPropertyInt Name="rotateStepNinety" Value="0" />
        <BoundPropertyFloat Name="Volume" Value="1" />
      </BoundProperties>
    </VideoClip>
    <ImageClip extentID="102" gapBefore="0" mediaItemID="91" duration="2.7999999999999998">
      <Effects />
      <Transitions />
      <BoundProperties>
        <BoundPropertyInt Name="rotateStepNinety" Value="0" />
      </BoundProperties>
    </ImageClip>
    <ImageClip extentID="103" gapBefore="0" mediaItemID="92" duration="2.7999999999999998">
      <Effects />
      <Transitions />
      <BoundProperties>
        <BoundPropertyInt Name="rotateStepNinety" Value="0" />
      </BoundProperties>
    </ImageClip>
    <ImageClip extentID="104" gapBefore="0" mediaItemID="93" duration="7">
      <Effects />
      <Transitions />
      <BoundProperties>
        <BoundPropertyInt Name="rotateStepNinety" Value="0" />
      </BoundProperties>
    </ImageClip>
    <ImageClip extentID="105" gapBefore="0" mediaItemID="94" duration="7">
      <Effects />
      <Transitions />
      <BoundProperties>
        <BoundPropertyInt Name="rotateStepNinety" Value="0" />
      </BoundProperties>
    </ImageClip>
    <ImageClip extentID="106" gapBefore="0" mediaItemID="104" duration="7">
      <Effects />
      <Transitions />
      <BoundProperties>
        <BoundPropertyInt Name="rotateStepNinety" Value="0" />
      </BoundProperties>
    </ImageClip>
    <ImageClip extentID="107" gapBefore="0" mediaItemID="207" duration="7">
      <Effects />
      <Transitions />
      <BoundProperties>
        <BoundPropertyInt Name="rotateStepNinety" Value="0" />
      </BoundProperties>
    </ImageClip>
    <VideoClip extentID="108" gapBefore="0" mediaItemID="208" inTime="0" outTime="0" speed="1" stabilizationMode="0">
      <Effects />
      <Transitions />
      <BoundProperties>
        <BoundPropertyBool Name="Mute" Value="false" />
        <BoundPropertyInt Name="rotateStepNinety" Value="0" />
        <BoundPropertyFloat Name="Volume" Value="1" />
      </BoundProperties>
    </VideoClip>
    <ImageClip extentID="109" gapBefore="0" mediaItemID="98" duration="2.7999999999999998">
      <Effects />
      <Transitions />
      <BoundProperties>
        <BoundPropertyInt Name="rotateStepNinety" Value="0" />
      </BoundProperties>
    </ImageClip>
    <ImageClip extentID="110" gapBefore="0" mediaItemID="99" duration="2.7999999999999998">
      <Effects />
      <Transitions />
      <BoundProperties>
        <BoundPropertyInt Name="rotateStepNinety" Value="0" />
      </BoundProperties>
    </ImageClip>
    <VideoClip extentID="111" gapBefore="0" mediaItemID="100" inTime="0" outTime="0" speed="1" stabilizationMode="0">
      <Effects />
      <Transitions />
      <BoundProperties>
        <BoundPropertyBool Name="Mute" Value="false" />
        <BoundPropertyInt Name="rotateStepNinety" Value="0" />
        <BoundPropertyFloat Name="Volume" Value="1" />
      </BoundProperties>
    </VideoClip>
    <ImageClip extentID="112" gapBefore="0" mediaItemID="101" duration="2.7999999999999998">
      <Effects />
      <Transitions />
      <BoundProperties>
        <BoundPropertyInt Name="rotateStepNinety" Value="0" />
      </BoundProperties>
    </ImageClip>
    <ImageClip extentID="113" gapBefore="0" mediaItemID="102" duration="2.7999999999999998">
      <Effects />
      <Transitions />
      <BoundProperties>
        <BoundPropertyInt Name="rotateStepNinety" Value="0" />
      </BoundProperties>
    </ImageClip>
    <ImageClip extentID="114" gapBefore="0" mediaItemID="103" duration="2.7999999999999998">
      <Effects />
      <Transitions />
      <BoundProperties>
        <BoundPropertyInt Name="rotateStepNinety" Value="0" />
      </BoundProperties>
    </ImageClip>
    <ImageClip extentID="115" gapBefore="0" mediaItemID="209" duration="7">
      <Effects />
      <Transitions />
      <BoundProperties>
        <BoundPropertyInt Name="rotateStepNinety" Value="0" />
      </BoundProperties>
    </ImageClip>
    <ImageClip extentID="116" gapBefore="0" mediaItemID="105" duration="2.7999999999999998">
      <Effects />
      <Transitions />
      <BoundProperties>
        <BoundPropertyInt Name="rotateStepNinety" Value="0" />
      </BoundProperties>
    </ImageClip>
    <ImageClip extentID="117" gapBefore="0" mediaItemID="210" duration="7">
      <Effects />
      <Transitions />
      <BoundProperties>
        <BoundPropertyInt Name="rotateStepNinety" Value="0" />
      </BoundProperties>
    </ImageClip>
    <ImageClip extentID="118" gapBefore="0" mediaItemID="107" duration="2.7999999999999998">
      <Effects />
      <Transitions />
      <BoundProperties>
        <BoundPropertyInt Name="rotateStepNinety" Value="0" />
      </BoundProperties>
    </ImageClip>
    <ImageClip extentID="119" gapBefore="0" mediaItemID="211" duration="7">
      <Effects />
      <Transitions />
      <BoundProperties>
        <BoundPropertyInt Name="rotateStepNinety" Value="0" />
      </BoundProperties>
    </ImageClip>
    <ImageClip extentID="120" gapBefore="0" mediaItemID="109" duration="2.7999999999999998">
      <Effects />
      <Transitions />
      <BoundProperties>
        <BoundPropertyInt Name="rotateStepNinety" Value="0" />
      </BoundProperties>
    </ImageClip>
    <ImageClip extentID="121" gapBefore="0" mediaItemID="110" duration="2.7999999999999998">
      <Effects />
      <Transitions />
      <BoundProperties>
        <BoundPropertyInt Name="rotateStepNinety" Value="0" />
      </BoundProperties>
    </ImageClip>
    <ImageClip extentID="122" gapBefore="0" mediaItemID="111" duration="2.7999999999999998">
      <Effects />
      <Transitions />
      <BoundProperties>
        <BoundPropertyInt Name="rotateStepNinety" Value="0" />
      </BoundProperties>
    </ImageClip>
    <ImageClip extentID="123" gapBefore="0" mediaItemID="112" duration="2.7999999999999998">
      <Effects />
      <Transitions />
      <BoundProperties>
        <BoundPropertyInt Name="rotateStepNinety" Value="0" />
      </BoundProperties>
    </ImageClip>
    <VideoClip extentID="124" gapBefore="0" mediaItemID="3" inTime="5.6333333333332689" outTime="0" speed="1" stabilizationMode="0">
      <Effects>
        <ShaderEffect effectTemplateID="FadeInFromBlackEffectTemplate">
          <BoundProperties />
        </ShaderEffect>
      </Effects>
      <Transitions />
      <BoundProperties>
        <BoundPropertyBool Name="Mute" Value="false" />
        <BoundPropertyInt Name="rotateStepNinety" Value="0" />
        <BoundPropertyFloat Name="Volume" Value="1" />
      </BoundProperties>
    </VideoClip>
    <TitleClip extentID="125" gapBefore="298.820000667572" duration="2.7666666666667084">
      <Effects>
        <TextEffect effectTemplateID="TextEffectTemplate" TextScriptId="0">
          <BoundProperties>
            <BoundPropertyBool Name="automatic" Value="false" />
            <BoundPropertyFloatSet Name="color">
              <BoundPropertyFloatElement Value="1" />
              <BoundPropertyFloatElement Value="1" />
              <BoundPropertyFloatElement Value="1" />
            </BoundPropertyFloatSet>
            <BoundPropertyStringSet Name="family">
              <BoundPropertyStringElement Value="Segoe UI" />
            </BoundPropertyStringSet>
            <BoundPropertyBool Name="horizontal" Value="true" />
            <BoundPropertyStringSet Name="justify">
              <BoundPropertyStringElement Value="MIDDLE" />
            </BoundPropertyStringSet>
            <BoundPropertyBool Name="leftToRight" Value="true" />
            <BoundPropertyFloatSet Name="length">
              <BoundPropertyFloatElement Value="4.0999999046325684" />
              <BoundPropertyFloatElement Value="5.1999998092651367" />
            </BoundPropertyFloatSet>
            <BoundPropertyFloat Name="maxExtent" Value="5" />
            <BoundPropertyFloatSet Name="outlineColor">
              <BoundPropertyFloatElement Value="0.64705884456634521" />
              <BoundPropertyFloatElement Value="0.64705884456634521" />
              <BoundPropertyFloatElement Value="0.64705884456634521" />
            </BoundPropertyFloatSet>
            <BoundPropertyInt Name="outlineSizeIndex" Value="0" />
            <BoundPropertyFloatSet Name="position">
              <BoundPropertyFloatElement Value="0" />
              <BoundPropertyFloatElement Value="-1.745762825012207" />
              <BoundPropertyFloatElement Value="0.02500000037252903" />
            </BoundPropertyFloatSet>
            <BoundPropertyFloat Name="size" Value="0.40000000596046448" />
            <BoundPropertyStringSet Name="string">
              <BoundPropertyStringElement Value="Delft (szállásunk Hollandiában)" />
              <BoundPropertyStringElement Value="" />
            </BoundPropertyStringSet>
            <BoundPropertyString Name="style" Value="Plain" />
            <BoundPropertyFloat Name="transparency" Value="0" />
          </BoundProperties>
        </TextEffect>
      </Effects>
      <Transitions />
      <BoundProperties>
        <BoundPropertyFloatSet Name="diffuseColor">
          <BoundPropertyFloatElement Value="0.75" />
          <BoundPropertyFloatElement Value="1" />
          <BoundPropertyFloatElement Value="0" />
        </BoundPropertyFloatSet>
        <BoundPropertyFloat Name="transparency" Value="1" />
      </BoundProperties>
    </TitleClip>
    <VideoClip extentID="126" gapBefore="0" mediaItemID="2" inTime="6.3133333333332189" outTime="0" speed="1" stabilizationMode="0">
      <Effects />
      <Transitions>
        <ShapeEffect effectTemplateID="CrossfadeTransitionTemplate" duration="1.5">
          <BoundProperties />
        </ShapeEffect>
      </Transitions>
      <BoundProperties>
        <BoundPropertyBool Name="Mute" Value="false" />
        <BoundPropertyInt Name="rotateStepNinety" Value="0" />
        <BoundPropertyFloat Name="Volume" Value="1" />
      </BoundProperties>
    </VideoClip>
    <ImageClip extentID="127" gapBefore="0" mediaItemID="212" duration="7">
      <Effects />
      <Transitions />
      <BoundProperties>
        <BoundPropertyInt Name="rotateStepNinety" Value="0" />
      </BoundProperties>
    </ImageClip>
    <VideoClip extentID="128" gapBefore="0" mediaItemID="4" inTime="12.066666666666492" outTime="34.599999999999625" speed="1" stabilizationMode="0">
      <Effects />
      <Transitions />
      <BoundProperties>
        <BoundPropertyBool Name="Mute" Value="false" />
        <BoundPropertyInt Name="rotateStepNinety" Value="0" />
        <BoundPropertyFloat Name="Volume" Value="1" />
      </BoundProperties>
    </VideoClip>
    <VideoClip extentID="129" gapBefore="0" mediaItemID="76" inTime="21.266666666666652" outTime="71.040000000000006" speed="1" stabilizationMode="0">
      <Effects />
      <Transitions>
        <ShapeEffect effectTemplateID="CrossfadeTransitionTemplate" duration="1.5">
          <BoundProperties />
        </ShapeEffect>
      </Transitions>
      <BoundProperties>
        <BoundPropertyBool Name="Mute" Value="false" />
        <BoundPropertyInt Name="rotateStepNinety" Value="0" />
        <BoundPropertyFloat Name="Volume" Value="1" />
      </BoundProperties>
    </VideoClip>
    <TitleClip extentID="130" gapBefore="72.839999999999918" duration="2.5466666666665674">
      <Effects>
        <TextEffect effectTemplateID="TextEffectTemplate" TextScriptId="0">
          <BoundProperties>
            <BoundPropertyBool Name="automatic" Value="false" />
            <BoundPropertyFloatSet Name="color">
              <BoundPropertyFloatElement Value="1" />
              <BoundPropertyFloatElement Value="1" />
              <BoundPropertyFloatElement Value="1" />
            </BoundPropertyFloatSet>
            <BoundPropertyStringSet Name="family">
              <BoundPropertyStringElement Value="Segoe UI" />
            </BoundPropertyStringSet>
            <BoundPropertyBool Name="horizontal" Value="true" />
            <BoundPropertyStringSet Name="justify">
              <BoundPropertyStringElement Value="MIDDLE" />
            </BoundPropertyStringSet>
            <BoundPropertyBool Name="leftToRight" Value="true" />
            <BoundPropertyFloatSet Name="length">
              <BoundPropertyFloatElement Value="4.0999999046325684" />
              <BoundPropertyFloatElement Value="5.1999998092651367" />
            </BoundPropertyFloatSet>
            <BoundPropertyFloat Name="maxExtent" Value="5" />
            <BoundPropertyFloatSet Name="outlineColor">
              <BoundPropertyFloatElement Value="0.64705884456634521" />
              <BoundPropertyFloatElement Value="0.64705884456634521" />
              <BoundPropertyFloatElement Value="0.64705884456634521" />
            </BoundPropertyFloatSet>
            <BoundPropertyInt Name="outlineSizeIndex" Value="0" />
            <BoundPropertyFloatSet Name="position">
              <BoundPropertyFloatElement Value="0" />
              <BoundPropertyFloatElement Value="-1.745762825012207" />
              <BoundPropertyFloatElement Value="0.02500000037252903" />
            </BoundPropertyFloatSet>
            <BoundPropertyFloat Name="size" Value="0.40000000596046448" />
            <BoundPropertyStringSet Name="string">
              <BoundPropertyStringElement Value="gyémántcsiszoló műhely - Amszterdam" />
            </BoundPropertyStringSet>
            <BoundPropertyString Name="style" Value="Plain" />
            <BoundPropertyFloat Name="transparency" Value="0" />
          </BoundProperties>
        </TextEffect>
      </Effects>
      <Transitions />
      <BoundProperties>
        <BoundPropertyFloatSet Name="diffuseColor">
          <BoundPropertyFloatElement Value="0.75" />
          <BoundPropertyFloatElement Value="1" />
          <BoundPropertyFloatElement Value="0" />
        </BoundPropertyFloatSet>
        <BoundPropertyFloat Name="transparency" Value="1" />
      </BoundProperties>
    </TitleClip>
    <VideoClip extentID="131" gapBefore="0" mediaItemID="77" inTime="14.093333333333362" outTime="29.953333333333376" speed="1" stabilizationMode="0">
      <Effects />
      <Transitions>
        <ShapeEffect effectTemplateID="BlurThroughBlackTransitionTemplate" duration="1.5">
          <BoundProperties />
        </ShapeEffect>
      </Transitions>
      <BoundProperties>
        <BoundPropertyBool Name="Mute" Value="false" />
        <BoundPropertyInt Name="rotateStepNinety" Value="0" />
        <BoundPropertyFloat Name="Volume" Value="1" />
      </BoundProperties>
    </VideoClip>
    <VideoClip extentID="132" gapBefore="0" mediaItemID="10" inTime="11.180000000000177" outTime="14.613333333333514" speed="1" stabilizationMode="0">
      <Effects />
      <Transitions />
      <BoundProperties>
        <BoundPropertyBool Name="Mute" Value="false" />
        <BoundPropertyInt Name="rotateStepNinety" Value="0" />
        <BoundPropertyFloat Name="Volume" Value="1" />
      </BoundProperties>
    </VideoClip>
    <ImageClip extentID="133" gapBefore="0" mediaItemID="213" duration="7">
      <Effects />
      <Transitions />
      <BoundProperties>
        <BoundPropertyInt Name="rotateStepNinety" Value="0" />
      </BoundProperties>
    </ImageClip>
    <VideoClip extentID="134" gapBefore="0" mediaItemID="10" inTime="19.613333333333514" outTime="23.74666666666684" speed="1" stabilizationMode="0">
      <Effects />
      <Transitions />
      <BoundProperties>
        <BoundPropertyBool Name="Mute" Value="false" />
        <BoundPropertyInt Name="rotateStepNinety" Value="0" />
        <BoundPropertyFloat Name="Volume" Value="1" />
      </BoundProperties>
    </VideoClip>
    <VideoClip extentID="135" gapBefore="0" mediaItemID="77" inTime="44.253333333333444" outTime="48.88666666666677" speed="1" stabilizationMode="0">
      <Effects />
      <Transitions />
      <BoundProperties>
        <BoundPropertyBool Name="Mute" Value="false" />
        <BoundPropertyInt Name="rotateStepNinety" Value="0" />
        <BoundPropertyFloat Name="Volume" Value="1" />
      </BoundProperties>
    </VideoClip>
    <VideoClip extentID="136" gapBefore="0" mediaItemID="12" inTime="5.8333333333333144" outTime="27.699999999999989" speed="1" stabilizationMode="0">
      <Effects />
      <Transitions />
      <BoundProperties>
        <BoundPropertyBool Name="Mute" Value="false" />
        <BoundPropertyInt Name="rotateStepNinety" Value="0" />
        <BoundPropertyFloat Name="Volume" Value="1" />
      </BoundProperties>
    </VideoClip>
    <ImageClip extentID="137" gapBefore="0" mediaItemID="214" duration="7">
      <Effects />
      <Transitions />
      <BoundProperties>
        <BoundPropertyInt Name="rotateStepNinety" Value="0" />
      </BoundProperties>
    </ImageClip>
    <TitleClip extentID="138" gapBefore="44.113340454101774" duration="1.8933333333333735">
      <Effects>
        <TextEffect effectTemplateID="TextEffectTemplate" TextScriptId="0">
          <BoundProperties>
            <BoundPropertyBool Name="automatic" Value="false" />
            <BoundPropertyFloatSet Name="color">
              <BoundPropertyFloatElement Value="1" />
              <BoundPropertyFloatElement Value="1" />
              <BoundPropertyFloatElement Value="1" />
            </BoundPropertyFloatSet>
            <BoundPropertyStringSet Name="family">
              <BoundPropertyStringElement Value="Segoe UI" />
            </BoundPropertyStringSet>
            <BoundPropertyBool Name="horizontal" Value="true" />
            <BoundPropertyStringSet Name="justify">
              <BoundPropertyStringElement Value="MIDDLE" />
            </BoundPropertyStringSet>
            <BoundPropertyBool Name="leftToRight" Value="true" />
            <BoundPropertyFloatSet Name="length">
              <BoundPropertyFloatElement Value="4.0999999046325684" />
              <BoundPropertyFloatElement Value="5.1999998092651367" />
            </BoundPropertyFloatSet>
            <BoundPropertyFloat Name="maxExtent" Value="5" />
            <BoundPropertyFloatSet Name="outlineColor">
              <BoundPropertyFloatElement Value="0.64705884456634521" />
              <BoundPropertyFloatElement Value="0.64705884456634521" />
              <BoundPropertyFloatElement Value="0.64705884456634521" />
            </BoundPropertyFloatSet>
            <BoundPropertyInt Name="outlineSizeIndex" Value="0" />
            <BoundPropertyFloatSet Name="position">
              <BoundPropertyFloatElement Value="0.27176189422607422" />
              <BoundPropertyFloatElement Value="-1.745762825012207" />
              <BoundPropertyFloatElement Value="0.02500000037252903" />
            </BoundPropertyFloatSet>
            <BoundPropertyFloat Name="size" Value="0.40000000596046448" />
            <BoundPropertyStringSet Name="string">
              <BoundPropertyStringElement Value="Rijksmuseum" />
            </BoundPropertyStringSet>
            <BoundPropertyString Name="style" Value="Plain" />
            <BoundPropertyFloat Name="transparency" Value="0" />
          </BoundProperties>
        </TextEffect>
      </Effects>
      <Transitions />
      <BoundProperties>
        <BoundPropertyFloatSet Name="diffuseColor">
          <BoundPropertyFloatElement Value="0.75" />
          <BoundPropertyFloatElement Value="1" />
          <BoundPropertyFloatElement Value="0" />
        </BoundPropertyFloatSet>
        <BoundPropertyFloat Name="transparency" Value="1" />
      </BoundProperties>
    </TitleClip>
    <VideoClip extentID="139" gapBefore="0" mediaItemID="78" inTime="3.8666666666666742" outTime="16.366666666666674" speed="1" stabilizationMode="0">
      <Effects />
      <Transitions>
        <ShapeEffect effectTemplateID="CrossfadeTransitionTemplate" duration="1.5">
          <BoundProperties />
        </ShapeEffect>
      </Transitions>
      <BoundProperties>
        <BoundPropertyBool Name="Mute" Value="false" />
        <BoundPropertyInt Name="rotateStepNinety" Value="0" />
        <BoundPropertyFloat Name="Volume" Value="1" />
      </BoundProperties>
    </VideoClip>
    <ImageClip extentID="140" gapBefore="0" mediaItemID="114" duration="2.7999999999999998">
      <Effects />
      <Transitions />
      <BoundProperties>
        <BoundPropertyInt Name="rotateStepNinety" Value="0" />
      </BoundProperties>
    </ImageClip>
    <TitleClip extentID="141" gapBefore="0.23999999999995225" duration="2.5600000000000591">
      <Effects>
        <TextEffect effectTemplateID="TextEffectTemplate" TextScriptId="0">
          <BoundProperties>
            <BoundPropertyBool Name="automatic" Value="false" />
            <BoundPropertyFloatSet Name="color">
              <BoundPropertyFloatElement Value="1" />
              <BoundPropertyFloatElement Value="1" />
              <BoundPropertyFloatElement Value="1" />
            </BoundPropertyFloatSet>
            <BoundPropertyStringSet Name="family">
              <BoundPropertyStringElement Value="Segoe UI" />
            </BoundPropertyStringSet>
            <BoundPropertyBool Name="horizontal" Value="true" />
            <BoundPropertyStringSet Name="justify">
              <BoundPropertyStringElement Value="MIDDLE" />
            </BoundPropertyStringSet>
            <BoundPropertyBool Name="leftToRight" Value="true" />
            <BoundPropertyFloatSet Name="length">
              <BoundPropertyFloatElement Value="4.0999999046325684" />
              <BoundPropertyFloatElement Value="5.1999998092651367" />
            </BoundPropertyFloatSet>
            <BoundPropertyFloat Name="maxExtent" Value="5" />
            <BoundPropertyFloatSet Name="outlineColor">
              <BoundPropertyFloatElement Value="0.64705884456634521" />
              <BoundPropertyFloatElement Value="0.64705884456634521" />
              <BoundPropertyFloatElement Value="0.64705884456634521" />
            </BoundPropertyFloatSet>
            <BoundPropertyInt Name="outlineSizeIndex" Value="0" />
            <BoundPropertyFloatSet Name="position">
              <BoundPropertyFloatElement Value="0" />
              <BoundPropertyFloatElement Value="-1.7796611785888672" />
              <BoundPropertyFloatElement Value="0.02500000037252903" />
            </BoundPropertyFloatSet>
            <BoundPropertyFloat Name="size" Value="0.40000000596046448" />
            <BoundPropertyStringSet Name="string">
              <BoundPropertyStringElement Value="Remrandt:Éjjeli őrjárat" />
            </BoundPropertyStringSet>
            <BoundPropertyString Name="style" Value="Plain" />
            <BoundPropertyFloat Name="transparency" Value="0" />
          </BoundProperties>
        </TextEffect>
      </Effects>
      <Transitions />
      <BoundProperties>
        <BoundPropertyFloatSet Name="diffuseColor">
          <BoundPropertyFloatElement Value="0.75" />
          <BoundPropertyFloatElement Value="1" />
          <BoundPropertyFloatElement Value="0" />
        </BoundPropertyFloatSet>
        <BoundPropertyFloat Name="transparency" Value="1" />
      </BoundProperties>
    </TitleClip>
    <TitleClip extentID="142" gapBefore="0.36460113525390625" duration="2.4353988647461051">
      <Effects>
        <TextEffect effectTemplateID="TextEffectTemplate" TextScriptId="0">
          <BoundProperties>
            <BoundPropertyBool Name="automatic" Value="false" />
            <BoundPropertyFloatSet Name="color">
              <BoundPropertyFloatElement Value="1" />
              <BoundPropertyFloatElement Value="1" />
              <BoundPropertyFloatElement Value="1" />
            </BoundPropertyFloatSet>
            <BoundPropertyStringSet Name="family">
              <BoundPropertyStringElement Value="Segoe UI" />
            </BoundPropertyStringSet>
            <BoundPropertyBool Name="horizontal" Value="true" />
            <BoundPropertyStringSet Name="justify">
              <BoundPropertyStringElement Value="MIDDLE" />
            </BoundPropertyStringSet>
            <BoundPropertyBool Name="leftToRight" Value="true" />
            <BoundPropertyFloatSet Name="length">
              <BoundPropertyFloatElement Value="4.0999999046325684" />
              <BoundPropertyFloatElement Value="5.1999998092651367" />
            </BoundPropertyFloatSet>
            <BoundPropertyFloat Name="maxExtent" Value="5" />
            <BoundPropertyFloatSet Name="outlineColor">
              <BoundPropertyFloatElement Value="0.64705884456634521" />
              <BoundPropertyFloatElement Value="0.64705884456634521" />
              <BoundPropertyFloatElement Value="0.64705884456634521" />
            </BoundPropertyFloatSet>
            <BoundPropertyInt Name="outlineSizeIndex" Value="0" />
            <BoundPropertyFloatSet Name="position">
              <BoundPropertyFloatElement Value="0" />
              <BoundPropertyFloatElement Value="-1.745762825012207" />
              <BoundPropertyFloatElement Value="0.02500000037252903" />
            </BoundPropertyFloatSet>
            <BoundPropertyFloat Name="size" Value="0.40000000596046448" />
            <BoundPropertyStringSet Name="string">
              <BoundPropertyStringElement Value="Jan Vermeer: Tejet öntő lány" />
              <BoundPropertyStringElement Value="" />
            </BoundPropertyStringSet>
            <BoundPropertyString Name="style" Value="Plain" />
            <BoundPropertyFloat Name="transparency" Value="0" />
          </BoundProperties>
        </TextEffect>
      </Effects>
      <Transitions />
      <BoundProperties>
        <BoundPropertyFloatSet Name="diffuseColor">
          <BoundPropertyFloatElement Value="0.75" />
          <BoundPropertyFloatElement Value="1" />
          <BoundPropertyFloatElement Value="0" />
        </BoundPropertyFloatSet>
        <BoundPropertyFloat Name="transparency" Value="1" />
      </BoundProperties>
    </TitleClip>
    <TitleClip extentID="143" gapBefore="0.72914886474609375" duration="2.0708511352539176">
      <Effects>
        <TextEffect effectTemplateID="TextEffectTemplate" TextScriptId="0">
          <BoundProperties>
            <BoundPropertyBool Name="automatic" Value="false" />
            <BoundPropertyFloatSet Name="color">
              <BoundPropertyFloatElement Value="1" />
              <BoundPropertyFloatElement Value="1" />
              <BoundPropertyFloatElement Value="1" />
            </BoundPropertyFloatSet>
            <BoundPropertyStringSet Name="family">
              <BoundPropertyStringElement Value="Segoe UI" />
            </BoundPropertyStringSet>
            <BoundPropertyBool Name="horizontal" Value="true" />
            <BoundPropertyStringSet Name="justify">
              <BoundPropertyStringElement Value="MIDDLE" />
            </BoundPropertyStringSet>
            <BoundPropertyBool Name="leftToRight" Value="true" />
            <BoundPropertyFloatSet Name="length">
              <BoundPropertyFloatElement Value="4.0999999046325684" />
              <BoundPropertyFloatElement Value="5.1999998092651367" />
            </BoundPropertyFloatSet>
            <BoundPropertyFloat Name="maxExtent" Value="5" />
            <BoundPropertyFloatSet Name="outlineColor">
              <BoundPropertyFloatElement Value="0.64705884456634521" />
              <BoundPropertyFloatElement Value="0.64705884456634521" />
              <BoundPropertyFloatElement Value="0.64705884456634521" />
            </BoundPropertyFloatSet>
            <BoundPropertyInt Name="outlineSizeIndex" Value="0" />
            <BoundPropertyFloatSet Name="position">
              <BoundPropertyFloatElement Value="0" />
              <BoundPropertyFloatElement Value="-0.86440682411193848" />
              <BoundPropertyFloatElement Value="0.02500000037252903" />
            </BoundPropertyFloatSet>
            <BoundPropertyFloat Name="size" Value="0.40000000596046448" />
            <BoundPropertyStringSet Name="string">
              <BoundPropertyStringElement Value="Rembrandt önarcképe P" />
              <BoundPropertyStringElement Value="ál apostolként és " />
              <BoundPropertyStringElement Value="fia,Titus barátként" />
              <BoundPropertyStringElement Value="" />
            </BoundPropertyStringSet>
            <BoundPropertyString Name="style" Value="Plain" />
            <BoundPropertyFloat Name="transparency" Value="0" />
          </BoundProperties>
        </TextEffect>
      </Effects>
      <Transitions />
      <BoundProperties>
        <BoundPropertyFloatSet Name="diffuseColor">
          <BoundPropertyFloatElement Value="0.75" />
          <BoundPropertyFloatElement Value="1" />
          <BoundPropertyFloatElement Value="0" />
        </BoundPropertyFloatSet>
        <BoundPropertyFloat Name="transparency" Value="1" />
      </BoundProperties>
    </TitleClip>
    <TitleClip extentID="144" gapBefore="0.27333333333331211" duration="2.5266666666666993">
      <Effects>
        <TextEffect effectTemplateID="TextEffectTemplate" TextScriptId="0">
          <BoundProperties>
            <BoundPropertyBool Name="automatic" Value="false" />
            <BoundPropertyFloatSet Name="color">
              <BoundPropertyFloatElement Value="1" />
              <BoundPropertyFloatElement Value="1" />
              <BoundPropertyFloatElement Value="1" />
            </BoundPropertyFloatSet>
            <BoundPropertyStringSet Name="family">
              <BoundPropertyStringElement Value="Segoe UI" />
            </BoundPropertyStringSet>
            <BoundPropertyBool Name="horizontal" Value="true" />
            <BoundPropertyStringSet Name="justify">
              <BoundPropertyStringElement Value="MIDDLE" />
            </BoundPropertyStringSet>
            <BoundPropertyBool Name="leftToRight" Value="true" />
            <BoundPropertyFloatSet Name="length">
              <BoundPropertyFloatElement Value="4.0999999046325684" />
              <BoundPropertyFloatElement Value="5.1999998092651367" />
            </BoundPropertyFloatSet>
            <BoundPropertyFloat Name="maxExtent" Value="5" />
            <BoundPropertyFloatSet Name="outlineColor">
              <BoundPropertyFloatElement Value="0.64705884456634521" />
              <BoundPropertyFloatElement Value="0.64705884456634521" />
              <BoundPropertyFloatElement Value="0.64705884456634521" />
            </BoundPropertyFloatSet>
            <BoundPropertyInt Name="outlineSizeIndex" Value="0" />
            <BoundPropertyFloatSet Name="position">
              <BoundPropertyFloatElement Value="2.6157112121582031" />
              <BoundPropertyFloatElement Value="-2.1525425910949707" />
              <BoundPropertyFloatElement Value="0.02500000037252903" />
            </BoundPropertyFloatSet>
            <BoundPropertyFloat Name="size" Value="0.40000000596046448" />
            <BoundPropertyStringSet Name="string">
              <BoundPropertyStringElement Value="Jan Vermeer:Delfti ház" />
            </BoundPropertyStringSet>
            <BoundPropertyString Name="style" Value="Bold" />
            <BoundPropertyFloat Name="transparency" Value="0" />
          </BoundProperties>
        </TextEffect>
      </Effects>
      <Transitions />
      <BoundProperties>
        <BoundPropertyFloatSet Name="diffuseColor">
          <BoundPropertyFloatElement Value="0.75" />
          <BoundPropertyFloatElement Value="1" />
          <BoundPropertyFloatElement Value="0" />
        </BoundPropertyFloatSet>
        <BoundPropertyFloat Name="transparency" Value="1" />
      </BoundProperties>
    </TitleClip>
    <ImageClip extentID="145" gapBefore="0" mediaItemID="115" duration="2.7999999999999998">
      <Effects />
      <Transitions />
      <BoundProperties>
        <BoundPropertyInt Name="rotateStepNinety" Value="0" />
      </BoundProperties>
    </ImageClip>
    <ImageClip extentID="146" gapBefore="0" mediaItemID="116" duration="2.7999999999999998">
      <Effects />
      <Transitions />
      <BoundProperties>
        <BoundPropertyInt Name="rotateStepNinety" Value="0" />
      </BoundProperties>
    </ImageClip>
    <ImageClip extentID="147" gapBefore="0" mediaItemID="117" duration="2.7999999999999998">
      <Effects />
      <Transitions />
      <BoundProperties>
        <BoundPropertyInt Name="rotateStepNinety" Value="0" />
      </BoundProperties>
    </ImageClip>
    <ImageClip extentID="148" gapBefore="0" mediaItemID="215" duration="7">
      <Effects />
      <Transitions />
      <BoundProperties>
        <BoundPropertyInt Name="rotateStepNinety" Value="0" />
      </BoundProperties>
    </ImageClip>
    <ImageClip extentID="149" gapBefore="0" mediaItemID="119" duration="2.7999999999999998">
      <Effects />
      <Transitions />
      <BoundProperties>
        <BoundPropertyInt Name="rotateStepNinety" Value="0" />
      </BoundProperties>
    </ImageClip>
    <VideoClip extentID="150" gapBefore="0" mediaItemID="78" inTime="35.800000000000068" outTime="0" speed="1" stabilizationMode="0">
      <Effects />
      <Transitions />
      <BoundProperties>
        <BoundPropertyBool Name="Mute" Value="false" />
        <BoundPropertyInt Name="rotateStepNinety" Value="0" />
        <BoundPropertyFloat Name="Volume" Value="1" />
      </BoundProperties>
    </VideoClip>
    <TitleClip extentID="151" gapBefore="0.27333333333331211" duration="2.5266666666666993">
      <Effects>
        <TextEffect effectTemplateID="TextEffectTemplate" TextScriptId="0">
          <BoundProperties>
            <BoundPropertyBool Name="automatic" Value="false" />
            <BoundPropertyFloatSet Name="color">
              <BoundPropertyFloatElement Value="1" />
              <BoundPropertyFloatElement Value="1" />
              <BoundPropertyFloatElement Value="1" />
            </BoundPropertyFloatSet>
            <BoundPropertyStringSet Name="family">
              <BoundPropertyStringElement Value="Segoe UI" />
            </BoundPropertyStringSet>
            <BoundPropertyBool Name="horizontal" Value="true" />
            <BoundPropertyStringSet Name="justify">
              <BoundPropertyStringElement Value="MIDDLE" />
            </BoundPropertyStringSet>
            <BoundPropertyBool Name="leftToRight" Value="true" />
            <BoundPropertyFloatSet Name="length">
              <BoundPropertyFloatElement Value="4.0999999046325684" />
              <BoundPropertyFloatElement Value="5.1999998092651367" />
            </BoundPropertyFloatSet>
            <BoundPropertyFloat Name="maxExtent" Value="5" />
            <BoundPropertyFloatSet Name="outlineColor">
              <BoundPropertyFloatElement Value="0.64705884456634521" />
              <BoundPropertyFloatElement Value="0.64705884456634521" />
              <BoundPropertyFloatElement Value="0.64705884456634521" />
            </BoundPropertyFloatSet>
            <BoundPropertyInt Name="outlineSizeIndex" Value="0" />
            <BoundPropertyFloatSet Name="position">
              <BoundPropertyFloatElement Value="-0.16985130310058594" />
              <BoundPropertyFloatElement Value="-2.1186442375183105" />
              <BoundPropertyFloatElement Value="0.02500000037252903" />
            </BoundPropertyFloatSet>
            <BoundPropertyFloat Name="size" Value="0.40000000596046448" />
            <BoundPropertyStringSet Name="string">
              <BoundPropertyStringElement Value="JanSteen: Szt.Miklós ünnepe" />
            </BoundPropertyStringSet>
            <BoundPropertyString Name="style" Value="Bold" />
            <BoundPropertyFloat Name="transparency" Value="0" />
          </BoundProperties>
        </TextEffect>
      </Effects>
      <Transitions />
      <BoundProperties>
        <BoundPropertyFloatSet Name="diffuseColor">
          <BoundPropertyFloatElement Value="0.75" />
          <BoundPropertyFloatElement Value="1" />
          <BoundPropertyFloatElement Value="0" />
        </BoundPropertyFloatSet>
        <BoundPropertyFloat Name="transparency" Value="1" />
      </BoundProperties>
    </TitleClip>
    <TitleClip extentID="152" gapBefore="0.27333333333331211" duration="2.5266666666666993">
      <Effects>
        <TextEffect effectTemplateID="TextEffectTemplate" TextScriptId="0">
          <BoundProperties>
            <BoundPropertyBool Name="automatic" Value="false" />
            <BoundPropertyFloatSet Name="color">
              <BoundPropertyFloatElement Value="1" />
              <BoundPropertyFloatElement Value="1" />
              <BoundPropertyFloatElement Value="1" />
            </BoundPropertyFloatSet>
            <BoundPropertyStringSet Name="family">
              <BoundPropertyStringElement Value="Segoe UI" />
            </BoundPropertyStringSet>
            <BoundPropertyBool Name="horizontal" Value="true" />
            <BoundPropertyStringSet Name="justify">
              <BoundPropertyStringElement Value="MIDDLE" />
            </BoundPropertyStringSet>
            <BoundPropertyBool Name="leftToRight" Value="true" />
            <BoundPropertyFloatSet Name="length">
              <BoundPropertyFloatElement Value="4.0999999046325684" />
              <BoundPropertyFloatElement Value="5.1999998092651367" />
            </BoundPropertyFloatSet>
            <BoundPropertyFloat Name="maxExtent" Value="5" />
            <BoundPropertyFloatSet Name="outlineColor">
              <BoundPropertyFloatElement Value="0.64705884456634521" />
              <BoundPropertyFloatElement Value="0.64705884456634521" />
              <BoundPropertyFloatElement Value="0.64705884456634521" />
            </BoundPropertyFloatSet>
            <BoundPropertyInt Name="outlineSizeIndex" Value="0" />
            <BoundPropertyFloatSet Name="position">
              <BoundPropertyFloatElement Value="0" />
              <BoundPropertyFloatElement Value="-1.745762825012207" />
              <BoundPropertyFloatElement Value="0.02500000037252903" />
            </BoundPropertyFloatSet>
            <BoundPropertyFloat Name="size" Value="0.40000000596046448" />
            <BoundPropertyStringSet Name="string">
              <BoundPropertyStringElement Value="JanSteen. Boldog család" />
              <BoundPropertyStringElement Value="" />
            </BoundPropertyStringSet>
            <BoundPropertyString Name="style" Value="Plain" />
            <BoundPropertyFloat Name="transparency" Value="0" />
          </BoundProperties>
        </TextEffect>
      </Effects>
      <Transitions />
      <BoundProperties>
        <BoundPropertyFloatSet Name="diffuseColor">
          <BoundPropertyFloatElement Value="0.75" />
          <BoundPropertyFloatElement Value="1" />
          <BoundPropertyFloatElement Value="0" />
        </BoundPropertyFloatSet>
        <BoundPropertyFloat Name="transparency" Value="1" />
      </BoundProperties>
    </TitleClip>
    <TitleClip extentID="153" gapBefore="0.27333333333331211" duration="2.5266666666666993">
      <Effects>
        <TextEffect effectTemplateID="TextEffectTemplate" TextScriptId="0">
          <BoundProperties>
            <BoundPropertyBool Name="automatic" Value="false" />
            <BoundPropertyFloatSet Name="color">
              <BoundPropertyFloatElement Value="1" />
              <BoundPropertyFloatElement Value="1" />
              <BoundPropertyFloatElement Value="1" />
            </BoundPropertyFloatSet>
            <BoundPropertyStringSet Name="family">
              <BoundPropertyStringElement Value="Segoe UI" />
            </BoundPropertyStringSet>
            <BoundPropertyBool Name="horizontal" Value="true" />
            <BoundPropertyStringSet Name="justify">
              <BoundPropertyStringElement Value="MIDDLE" />
            </BoundPropertyStringSet>
            <BoundPropertyBool Name="leftToRight" Value="true" />
            <BoundPropertyFloatSet Name="length">
              <BoundPropertyFloatElement Value="4.0999999046325684" />
              <BoundPropertyFloatElement Value="5.1999998092651367" />
            </BoundPropertyFloatSet>
            <BoundPropertyFloat Name="maxExtent" Value="5" />
            <BoundPropertyFloatSet Name="outlineColor">
              <BoundPropertyFloatElement Value="0.64705884456634521" />
              <BoundPropertyFloatElement Value="0.64705884456634521" />
              <BoundPropertyFloatElement Value="0.64705884456634521" />
            </BoundPropertyFloatSet>
            <BoundPropertyInt Name="outlineSizeIndex" Value="0" />
            <BoundPropertyFloatSet Name="position">
              <BoundPropertyFloatElement Value="0" />
              <BoundPropertyFloatElement Value="-1.745762825012207" />
              <BoundPropertyFloatElement Value="0.02500000037252903" />
            </BoundPropertyFloatSet>
            <BoundPropertyFloat Name="size" Value="0.40000000596046448" />
            <BoundPropertyStringSet Name="string">
              <BoundPropertyStringElement Value="JanSteen_Beteg hölgy és az orvos" />
              <BoundPropertyStringElement Value="" />
            </BoundPropertyStringSet>
            <BoundPropertyString Name="style" Value="Plain" />
            <BoundPropertyFloat Name="transparency" Value="0" />
          </BoundProperties>
        </TextEffect>
      </Effects>
      <Transitions />
      <BoundProperties>
        <BoundPropertyFloatSet Name="diffuseColor">
          <BoundPropertyFloatElement Value="0.75" />
          <BoundPropertyFloatElement Value="1" />
          <BoundPropertyFloatElement Value="0" />
        </BoundPropertyFloatSet>
        <BoundPropertyFloat Name="transparency" Value="1" />
      </BoundProperties>
    </TitleClip>
    <VideoClip extentID="154" gapBefore="0" mediaItemID="79" inTime="7.5066666666667743" outTime="39.346666666666806" speed="1" stabilizationMode="0">
      <Effects />
      <Transitions>
        <ShapeEffect effectTemplateID="BlurThroughBlackTransitionTemplate" duration="1.5">
          <BoundProperties />
        </ShapeEffect>
      </Transitions>
      <BoundProperties>
        <BoundPropertyBool Name="Mute" Value="false" />
        <BoundPropertyInt Name="rotateStepNinety" Value="0" />
        <BoundPropertyFloat Name="Volume" Value="1" />
      </BoundProperties>
    </VideoClip>
    <ImageClip extentID="155" gapBefore="0" mediaItemID="216" duration="7">
      <Effects />
      <Transitions />
      <BoundProperties>
        <BoundPropertyInt Name="rotateStepNinety" Value="0" />
      </BoundProperties>
    </ImageClip>
    <TitleClip extentID="156" gapBefore="12.821225077311226" duration="1.8521011352539176">
      <Effects>
        <TextEffect effectTemplateID="TextEffectTemplate" TextScriptId="0">
          <BoundProperties>
            <BoundPropertyBool Name="automatic" Value="false" />
            <BoundPropertyFloatSet Name="color">
              <BoundPropertyFloatElement Value="1" />
              <BoundPropertyFloatElement Value="1" />
              <BoundPropertyFloatElement Value="1" />
            </BoundPropertyFloatSet>
            <BoundPropertyStringSet Name="family">
              <BoundPropertyStringElement Value="Segoe UI" />
            </BoundPropertyStringSet>
            <BoundPropertyBool Name="horizontal" Value="true" />
            <BoundPropertyStringSet Name="justify">
              <BoundPropertyStringElement Value="MIDDLE" />
            </BoundPropertyStringSet>
            <BoundPropertyBool Name="leftToRight" Value="true" />
            <BoundPropertyFloatSet Name="length">
              <BoundPropertyFloatElement Value="4.0999999046325684" />
              <BoundPropertyFloatElement Value="5.1999998092651367" />
            </BoundPropertyFloatSet>
            <BoundPropertyFloat Name="maxExtent" Value="5" />
            <BoundPropertyFloatSet Name="outlineColor">
              <BoundPropertyFloatElement Value="0.64705884456634521" />
              <BoundPropertyFloatElement Value="0.64705884456634521" />
              <BoundPropertyFloatElement Value="0.64705884456634521" />
            </BoundPropertyFloatSet>
            <BoundPropertyInt Name="outlineSizeIndex" Value="0" />
            <BoundPropertyFloatSet Name="position">
              <BoundPropertyFloatElement Value="-0.20382165908813477" />
              <BoundPropertyFloatElement Value="-1.3050847053527832" />
              <BoundPropertyFloatElement Value="0.02500000037252903" />
            </BoundPropertyFloatSet>
            <BoundPropertyFloat Name="size" Value="0.40000000596046448" />
            <BoundPropertyStringSet Name="string">
              <BoundPropertyStringElement Value="Rembrandt:Claudius Civilis " />
              <BoundPropertyStringElement Value="összeesküvése" />
            </BoundPropertyStringSet>
            <BoundPropertyString Name="style" Value="Plain" />
            <BoundPropertyFloat Name="transparency" Value="0" />
          </BoundProperties>
        </TextEffect>
      </Effects>
      <Transitions />
      <BoundProperties>
        <BoundPropertyFloatSet Name="diffuseColor">
          <BoundPropertyFloatElement Value="0.75" />
          <BoundPropertyFloatElement Value="1" />
          <BoundPropertyFloatElement Value="0" />
        </BoundPropertyFloatSet>
        <BoundPropertyFloat Name="transparency" Value="1" />
      </BoundProperties>
    </TitleClip>
    <ImageClip extentID="157" gapBefore="0" mediaItemID="217" duration="7">
      <Effects />
      <Transitions />
      <BoundProperties>
        <BoundPropertyInt Name="rotateStepNinety" Value="0" />
      </BoundProperties>
    </ImageClip>
    <VideoClip extentID="158" gapBefore="0" mediaItemID="96" inTime="11.166666666666742" outTime="19.733333333333462" speed="1" stabilizationMode="0">
      <Effects>
        <ShaderEffect effectTemplateID="FadeInFromBlackEffectTemplate">
          <BoundProperties />
        </ShaderEffect>
      </Effects>
      <Transitions />
      <BoundProperties>
        <BoundPropertyBool Name="Mute" Value="false" />
        <BoundPropertyInt Name="rotateStepNinety" Value="0" />
        <BoundPropertyFloat Name="Volume" Value="1" />
      </BoundProperties>
    </VideoClip>
    <ImageClip extentID="159" gapBefore="0" mediaItemID="218" duration="7">
      <Effects />
      <Transitions />
      <BoundProperties>
        <BoundPropertyInt Name="rotateStepNinety" Value="0" />
      </BoundProperties>
    </ImageClip>
    <VideoClip extentID="160" gapBefore="0" mediaItemID="219" inTime="0" outTime="0" speed="1" stabilizationMode="0">
      <Effects />
      <Transitions />
      <BoundProperties>
        <BoundPropertyBool Name="Mute" Value="false" />
        <BoundPropertyInt Name="rotateStepNinety" Value="0" />
        <BoundPropertyFloat Name="Volume" Value="1" />
      </BoundProperties>
    </VideoClip>
    <TitleClip extentID="161" gapBefore="43.26666666666631" duration="2.7999999999999545">
      <Effects>
        <TextEffect effectTemplateID="TextEffectFadeTemplate" TextScriptId="1">
          <BoundProperties>
            <BoundPropertyBool Name="automatic" Value="false" />
            <BoundPropertyFloatSet Name="color">
              <BoundPropertyFloatElement Value="1" />
              <BoundPropertyFloatElement Value="1" />
              <BoundPropertyFloatElement Value="1" />
            </BoundPropertyFloatSet>
            <BoundPropertyStringSet Name="family">
              <BoundPropertyStringElement Value="Segoe UI" />
            </BoundPropertyStringSet>
            <BoundPropertyBool Name="horizontal" Value="true" />
            <BoundPropertyStringSet Name="justify">
              <BoundPropertyStringElement Value="MIDDLE" />
            </BoundPropertyStringSet>
            <BoundPropertyBool Name="leftToRight" Value="true" />
            <BoundPropertyFloatSet Name="length" />
            <BoundPropertyFloat Name="maxExtent" Value="0" />
            <BoundPropertyFloatSet Name="outlineColor">
              <BoundPropertyFloatElement Value="0.64705884456634521" />
              <BoundPropertyFloatElement Value="0.64705884456634521" />
              <BoundPropertyFloatElement Value="0.64705884456634521" />
            </BoundPropertyFloatSet>
            <BoundPropertyInt Name="outlineSizeIndex" Value="0" />
            <BoundPropertyFloatSet Name="position">
              <BoundPropertyFloatElement Value="0" />
              <BoundPropertyFloatElement Value="-1.7796611785888672" />
              <BoundPropertyFloatElement Value="0.02500000037252903" />
            </BoundPropertyFloatSet>
            <BoundPropertyFloat Name="size" Value="0.40000000596046448" />
            <BoundPropertyStringSet Name="string">
              <BoundPropertyStringElement Value="Volendam" />
            </BoundPropertyStringSet>
            <BoundPropertyString Name="style" Value="Bold" />
            <BoundPropertyFloat Name="transparency" Value="0" />
          </BoundProperties>
        </TextEffect>
      </Effects>
      <Transitions />
      <BoundProperties>
        <BoundPropertyFloatSet Name="diffuseColor">
          <BoundPropertyFloatElement Value="0.75" />
          <BoundPropertyFloatElement Value="1" />
          <BoundPropertyFloatElement Value="0" />
        </BoundPropertyFloatSet>
        <BoundPropertyFloat Name="transparency" Value="1" />
      </BoundProperties>
    </TitleClip>
    <VideoClip extentID="162" gapBefore="0" mediaItemID="220" inTime="0" outTime="0" speed="1" stabilizationMode="0">
      <Effects />
      <Transitions />
      <BoundProperties>
        <BoundPropertyBool Name="Mute" Value="false" />
        <BoundPropertyInt Name="rotateStepNinety" Value="0" />
        <BoundPropertyFloat Name="Volume" Value="1" />
      </BoundProperties>
    </VideoClip>
    <VideoClip extentID="163" gapBefore="0" mediaItemID="221" inTime="0" outTime="0" speed="1" stabilizationMode="0">
      <Effects />
      <Transitions />
      <BoundProperties>
        <BoundPropertyBool Name="Mute" Value="false" />
        <BoundPropertyInt Name="rotateStepNinety" Value="0" />
        <BoundPropertyFloat Name="Volume" Value="1" />
      </BoundProperties>
    </VideoClip>
    <ImageClip extentID="164" gapBefore="0" mediaItemID="222" duration="7">
      <Effects />
      <Transitions />
      <BoundProperties>
        <BoundPropertyInt Name="rotateStepNinety" Value="0" />
      </BoundProperties>
    </ImageClip>
    <VideoClip extentID="165" gapBefore="0" mediaItemID="74" inTime="4.1000000000000227" outTime="14.400000000000091" speed="1" stabilizationMode="0">
      <Effects />
      <Transitions>
        <ShapeEffect effectTemplateID="CrossfadeTransitionTemplate" duration="1.5">
          <BoundProperties />
        </ShapeEffect>
      </Transitions>
      <BoundProperties>
        <BoundPropertyBool Name="Mute" Value="false" />
        <BoundPropertyInt Name="rotateStepNinety" Value="0" />
        <BoundPropertyFloat Name="Volume" Value="1" />
      </BoundProperties>
    </VideoClip>
    <VideoClip extentID="166" gapBefore="0" mediaItemID="80" inTime="2.4666666666665833" outTime="44.159999900000003" speed="1" stabilizationMode="0">
      <Effects />
      <Transitions />
      <BoundProperties>
        <BoundPropertyBool Name="Mute" Value="false" />
        <BoundPropertyInt Name="rotateStepNinety" Value="0" />
        <BoundPropertyFloat Name="Volume" Value="1" />
      </BoundProperties>
    </VideoClip>
    <TitleClip extentID="167" gapBefore="351.49333333333311" duration="2.7933332333331009">
      <Effects>
        <TextEffect effectTemplateID="TextEffectFadeTemplate" TextScriptId="1">
          <BoundProperties>
            <BoundPropertyBool Name="automatic" Value="false" />
            <BoundPropertyFloatSet Name="color">
              <BoundPropertyFloatElement Value="1" />
              <BoundPropertyFloatElement Value="1" />
              <BoundPropertyFloatElement Value="1" />
            </BoundPropertyFloatSet>
            <BoundPropertyStringSet Name="family">
              <BoundPropertyStringElement Value="Segoe UI" />
            </BoundPropertyStringSet>
            <BoundPropertyBool Name="horizontal" Value="true" />
            <BoundPropertyStringSet Name="justify">
              <BoundPropertyStringElement Value="MIDDLE" />
            </BoundPropertyStringSet>
            <BoundPropertyBool Name="leftToRight" Value="true" />
            <BoundPropertyFloatSet Name="length" />
            <BoundPropertyFloat Name="maxExtent" Value="0" />
            <BoundPropertyFloatSet Name="outlineColor">
              <BoundPropertyFloatElement Value="0.64705884456634521" />
              <BoundPropertyFloatElement Value="0.64705884456634521" />
              <BoundPropertyFloatElement Value="0.64705884456634521" />
            </BoundPropertyFloatSet>
            <BoundPropertyInt Name="outlineSizeIndex" Value="0" />
            <BoundPropertyFloatSet Name="position">
              <BoundPropertyFloatElement Value="0" />
              <BoundPropertyFloatElement Value="-1.7796611785888672" />
              <BoundPropertyFloatElement Value="0.02500000037252903" />
            </BoundPropertyFloatSet>
            <BoundPropertyFloat Name="size" Value="0.40000000596046448" />
            <BoundPropertyStringSet Name="string">
              <BoundPropertyStringElement Value="Rembrandt ház" />
            </BoundPropertyStringSet>
            <BoundPropertyString Name="style" Value="Bold" />
            <BoundPropertyFloat Name="transparency" Value="0" />
          </BoundProperties>
        </TextEffect>
      </Effects>
      <Transitions />
      <BoundProperties>
        <BoundPropertyFloatSet Name="diffuseColor">
          <BoundPropertyFloatElement Value="0.75" />
          <BoundPropertyFloatElement Value="1" />
          <BoundPropertyFloatElement Value="0" />
        </BoundPropertyFloatSet>
        <BoundPropertyFloat Name="transparency" Value="1" />
      </BoundProperties>
    </TitleClip>
    <ImageClip extentID="168" gapBefore="0" mediaItemID="223" duration="7">
      <Effects />
      <Transitions />
      <BoundProperties>
        <BoundPropertyInt Name="rotateStepNinety" Value="0" />
      </BoundProperties>
    </ImageClip>
    <VideoClip extentID="169" gapBefore="0" mediaItemID="95" inTime="3.0066667666669673" outTime="18.840000099999997" speed="1" stabilizationMode="0">
      <Effects>
        <ShaderEffect effectTemplateID="FadeOutToBlackEffectTemplate">
          <BoundProperties />
        </ShaderEffect>
      </Effects>
      <Transitions>
        <ShapeEffect effectTemplateID="BlurThroughBlackTransitionTemplate" duration="1.5">
          <BoundProperties />
        </ShapeEffect>
      </Transitions>
      <BoundProperties>
        <BoundPropertyBool Name="Mute" Value="false" />
        <BoundPropertyInt Name="rotateStepNinety" Value="0" />
        <BoundPropertyFloat Name="Volume" Value="1" />
      </BoundProperties>
    </VideoClip>
    <ImageClip extentID="170" gapBefore="0" mediaItemID="107" duration="2.7999999999999998">
      <Effects />
      <Transitions />
      <BoundProperties>
        <BoundPropertyInt Name="rotateStepNinety" Value="0" />
      </BoundProperties>
    </ImageClip>
    <ImageClip extentID="171" gapBefore="0" mediaItemID="109" duration="2.7999999999999998">
      <Effects />
      <Transitions />
      <BoundProperties>
        <BoundPropertyInt Name="rotateStepNinety" Value="0" />
      </BoundProperties>
    </ImageClip>
    <ImageClip extentID="172" gapBefore="0" mediaItemID="110" duration="2.7999999999999998">
      <Effects />
      <Transitions />
      <BoundProperties>
        <BoundPropertyInt Name="rotateStepNinety" Value="0" />
      </BoundProperties>
    </ImageClip>
    <ImageClip extentID="173" gapBefore="0" mediaItemID="9" duration="2.7999999999999998">
      <Effects />
      <Transitions />
      <BoundProperties>
        <BoundPropertyInt Name="rotateStepNinety" Value="0" />
      </BoundProperties>
    </ImageClip>
    <ImageClip extentID="174" gapBefore="0" mediaItemID="45" duration="2.7999999999999998">
      <Effects />
      <Transitions />
      <BoundProperties>
        <BoundPropertyInt Name="rotateStepNinety" Value="0" />
      </BoundProperties>
    </ImageClip>
    <ImageClip extentID="175" gapBefore="0" mediaItemID="51" duration="2.7999999999999998">
      <Effects />
      <Transitions />
      <BoundProperties>
        <BoundPropertyInt Name="rotateStepNinety" Value="0" />
      </BoundProperties>
    </ImageClip>
    <ImageClip extentID="176" gapBefore="0" mediaItemID="224" duration="7">
      <Effects />
      <Transitions />
      <BoundProperties>
        <BoundPropertyInt Name="rotateStepNinety" Value="0" />
      </BoundProperties>
    </ImageClip>
    <ImageClip extentID="177" gapBefore="0" mediaItemID="55" duration="2.7999999999999998">
      <Effects />
      <Transitions />
      <BoundProperties>
        <BoundPropertyInt Name="rotateStepNinety" Value="0" />
      </BoundProperties>
    </ImageClip>
    <ImageClip extentID="178" gapBefore="0" mediaItemID="61" duration="2.7999999999999998">
      <Effects />
      <Transitions />
      <BoundProperties>
        <BoundPropertyInt Name="rotateStepNinety" Value="0" />
      </BoundProperties>
    </ImageClip>
    <ImageClip extentID="179" gapBefore="0" mediaItemID="106" duration="2.7999999999999998">
      <Effects />
      <Transitions />
      <BoundProperties>
        <BoundPropertyInt Name="rotateStepNinety" Value="0" />
      </BoundProperties>
    </ImageClip>
    <ImageClip extentID="180" gapBefore="0" mediaItemID="108" duration="2.7999999999999998">
      <Effects />
      <Transitions />
      <BoundProperties>
        <BoundPropertyInt Name="rotateStepNinety" Value="0" />
      </BoundProperties>
    </ImageClip>
    <VideoClip extentID="181" gapBefore="0" mediaItemID="113" inTime="0" outTime="24.873333333334131" speed="1" stabilizationMode="0">
      <Effects />
      <Transitions />
      <BoundProperties>
        <BoundPropertyBool Name="Mute" Value="false" />
        <BoundPropertyInt Name="rotateStepNinety" Value="0" />
        <BoundPropertyFloat Name="Volume" Value="1" />
      </BoundProperties>
    </VideoClip>
    <ImageClip extentID="182" gapBefore="0" mediaItemID="118" duration="2.7999999999999998">
      <Effects />
      <Transitions />
      <BoundProperties>
        <BoundPropertyInt Name="rotateStepNinety" Value="0" />
      </BoundProperties>
    </ImageClip>
    <ImageClip extentID="183" gapBefore="0" mediaItemID="225" duration="7">
      <Effects />
      <Transitions />
      <BoundProperties>
        <BoundPropertyInt Name="rotateStepNinety" Value="0" />
      </BoundProperties>
    </ImageClip>
    <VideoClip extentID="184" gapBefore="0" mediaItemID="121" inTime="0" outTime="0" speed="1" stabilizationMode="0">
      <Effects />
      <Transitions />
      <BoundProperties>
        <BoundPropertyBool Name="Mute" Value="false" />
        <BoundPropertyInt Name="rotateStepNinety" Value="0" />
        <BoundPropertyFloat Name="Volume" Value="1" />
      </BoundProperties>
    </VideoClip>
    <ImageClip extentID="185" gapBefore="0" mediaItemID="122" duration="2.7999999999999998">
      <Effects />
      <Transitions />
      <BoundProperties>
        <BoundPropertyInt Name="rotateStepNinety" Value="0" />
      </BoundProperties>
    </ImageClip>
    <ImageClip extentID="186" gapBefore="0" mediaItemID="226" duration="7">
      <Effects />
      <Transitions />
      <BoundProperties>
        <BoundPropertyInt Name="rotateStepNinety" Value="0" />
      </BoundProperties>
    </ImageClip>
    <ImageClip extentID="187" gapBefore="0" mediaItemID="124" duration="2.7999999999999998">
      <Effects />
      <Transitions />
      <BoundProperties>
        <BoundPropertyInt Name="rotateStepNinety" Value="0" />
      </BoundProperties>
    </ImageClip>
    <ImageClip extentID="188" gapBefore="0" mediaItemID="125" duration="2.7999999999999998">
      <Effects />
      <Transitions />
      <BoundProperties>
        <BoundPropertyInt Name="rotateStepNinety" Value="0" />
      </BoundProperties>
    </ImageClip>
    <ImageClip extentID="189" gapBefore="0" mediaItemID="126" duration="2.7999999999999998">
      <Effects />
      <Transitions />
      <BoundProperties>
        <BoundPropertyInt Name="rotateStepNinety" Value="0" />
      </BoundProperties>
    </ImageClip>
    <ImageClip extentID="190" gapBefore="0" mediaItemID="227" duration="7">
      <Effects />
      <Transitions />
      <BoundProperties>
        <BoundPropertyInt Name="rotateStepNinety" Value="0" />
      </BoundProperties>
    </ImageClip>
    <VideoClip extentID="191" gapBefore="0" mediaItemID="128" inTime="0" outTime="35.620040000000358" speed="1" stabilizationMode="0">
      <Effects />
      <Transitions />
      <BoundProperties>
        <BoundPropertyBool Name="Mute" Value="false" />
        <BoundPropertyInt Name="rotateStepNinety" Value="0" />
        <BoundPropertyFloat Name="Volume" Value="1" />
      </BoundProperties>
    </VideoClip>
    <ImageClip extentID="192" gapBefore="0" mediaItemID="228" duration="7">
      <Effects />
      <Transitions />
      <BoundProperties>
        <BoundPropertyInt Name="rotateStepNinety" Value="0" />
      </BoundProperties>
    </ImageClip>
    <ImageClip extentID="193" gapBefore="0" mediaItemID="229" duration="7">
      <Effects />
      <Transitions />
      <BoundProperties>
        <BoundPropertyInt Name="rotateStepNinety" Value="0" />
      </BoundProperties>
    </ImageClip>
    <ImageClip extentID="194" gapBefore="0" mediaItemID="230" duration="7">
      <Effects />
      <Transitions />
      <BoundProperties>
        <BoundPropertyInt Name="rotateStepNinety" Value="0" />
      </BoundProperties>
    </ImageClip>
    <ImageClip extentID="195" gapBefore="0" mediaItemID="132" duration="2.7999999999999998">
      <Effects />
      <Transitions />
      <BoundProperties>
        <BoundPropertyInt Name="rotateStepNinety" Value="0" />
      </BoundProperties>
    </ImageClip>
    <ImageClip extentID="196" gapBefore="0" mediaItemID="133" duration="2.7999999999999998">
      <Effects />
      <Transitions />
      <BoundProperties>
        <BoundPropertyInt Name="rotateStepNinety" Value="0" />
      </BoundProperties>
    </ImageClip>
    <ImageClip extentID="197" gapBefore="0" mediaItemID="134" duration="2.7999999999999998">
      <Effects />
      <Transitions />
      <BoundProperties>
        <BoundPropertyInt Name="rotateStepNinety" Value="0" />
      </BoundProperties>
    </ImageClip>
    <ImageClip extentID="198" gapBefore="0" mediaItemID="231" duration="7">
      <Effects />
      <Transitions />
      <BoundProperties>
        <BoundPropertyInt Name="rotateStepNinety" Value="0" />
      </BoundProperties>
    </ImageClip>
    <ImageClip extentID="199" gapBefore="0" mediaItemID="136" duration="2.7999999999999998">
      <Effects />
      <Transitions />
      <BoundProperties>
        <BoundPropertyInt Name="rotateStepNinety" Value="0" />
      </BoundProperties>
    </ImageClip>
    <ImageClip extentID="200" gapBefore="0" mediaItemID="137" duration="2.7999999999999998">
      <Effects />
      <Transitions />
      <BoundProperties>
        <BoundPropertyInt Name="rotateStepNinety" Value="0" />
      </BoundProperties>
    </ImageClip>
    <ImageClip extentID="201" gapBefore="0" mediaItemID="138" duration="2.7999999999999998">
      <Effects />
      <Transitions />
      <BoundProperties>
        <BoundPropertyInt Name="rotateStepNinety" Value="0" />
      </BoundProperties>
    </ImageClip>
    <ImageClip extentID="202" gapBefore="0" mediaItemID="232" duration="7">
      <Effects />
      <Transitions />
      <BoundProperties>
        <BoundPropertyInt Name="rotateStepNinety" Value="0" />
      </BoundProperties>
    </ImageClip>
    <ImageClip extentID="203" gapBefore="0" mediaItemID="140" duration="2.7999999999999998">
      <Effects />
      <Transitions />
      <BoundProperties>
        <BoundPropertyInt Name="rotateStepNinety" Value="0" />
      </BoundProperties>
    </ImageClip>
    <ImageClip extentID="204" gapBefore="0" mediaItemID="141" duration="2.7999999999999998">
      <Effects />
      <Transitions />
      <BoundProperties>
        <BoundPropertyInt Name="rotateStepNinety" Value="0" />
      </BoundProperties>
    </ImageClip>
    <ImageClip extentID="205" gapBefore="0" mediaItemID="142" duration="2.7999999999999998">
      <Effects />
      <Transitions />
      <BoundProperties>
        <BoundPropertyInt Name="rotateStepNinety" Value="0" />
      </BoundProperties>
    </ImageClip>
    <ImageClip extentID="206" gapBefore="0" mediaItemID="143" duration="2.7999999999999998">
      <Effects />
      <Transitions />
      <BoundProperties>
        <BoundPropertyInt Name="rotateStepNinety" Value="0" />
      </BoundProperties>
    </ImageClip>
    <ImageClip extentID="207" gapBefore="0" mediaItemID="144" duration="2.7999999999999998">
      <Effects />
      <Transitions />
      <BoundProperties>
        <BoundPropertyInt Name="rotateStepNinety" Value="0" />
      </BoundProperties>
    </ImageClip>
    <ImageClip extentID="208" gapBefore="0" mediaItemID="145" duration="2.7999999999999998">
      <Effects />
      <Transitions />
      <BoundProperties>
        <BoundPropertyInt Name="rotateStepNinety" Value="0" />
      </BoundProperties>
    </ImageClip>
    <ImageClip extentID="209" gapBefore="0" mediaItemID="146" duration="2.7999999999999998">
      <Effects />
      <Transitions />
      <BoundProperties>
        <BoundPropertyInt Name="rotateStepNinety" Value="0" />
      </BoundProperties>
    </ImageClip>
    <ImageClip extentID="210" gapBefore="0" mediaItemID="233" duration="7">
      <Effects />
      <Transitions />
      <BoundProperties>
        <BoundPropertyInt Name="rotateStepNinety" Value="0" />
      </BoundProperties>
    </ImageClip>
    <ImageClip extentID="211" gapBefore="0" mediaItemID="234" duration="7">
      <Effects />
      <Transitions />
      <BoundProperties>
        <BoundPropertyInt Name="rotateStepNinety" Value="0" />
      </BoundProperties>
    </ImageClip>
    <ImageClip extentID="212" gapBefore="0" mediaItemID="149" duration="2.7999999999999998">
      <Effects />
      <Transitions />
      <BoundProperties>
        <BoundPropertyInt Name="rotateStepNinety" Value="0" />
      </BoundProperties>
    </ImageClip>
    <ImageClip extentID="213" gapBefore="0" mediaItemID="150" duration="2.7999999999999998">
      <Effects />
      <Transitions />
      <BoundProperties>
        <BoundPropertyInt Name="rotateStepNinety" Value="0" />
      </BoundProperties>
    </ImageClip>
    <ImageClip extentID="214" gapBefore="0" mediaItemID="151" duration="2.7999999999999998">
      <Effects />
      <Transitions />
      <BoundProperties>
        <BoundPropertyInt Name="rotateStepNinety" Value="0" />
      </BoundProperties>
    </ImageClip>
    <ImageClip extentID="215" gapBefore="0" mediaItemID="152" duration="2.7999999999999998">
      <Effects />
      <Transitions />
      <BoundProperties>
        <BoundPropertyInt Name="rotateStepNinety" Value="0" />
      </BoundProperties>
    </ImageClip>
    <ImageClip extentID="216" gapBefore="0" mediaItemID="235" duration="7">
      <Effects />
      <Transitions />
      <BoundProperties>
        <BoundPropertyInt Name="rotateStepNinety" Value="0" />
      </BoundProperties>
    </ImageClip>
    <ImageClip extentID="217" gapBefore="0" mediaItemID="154" duration="2.7999999999999998">
      <Effects />
      <Transitions />
      <BoundProperties>
        <BoundPropertyInt Name="rotateStepNinety" Value="0" />
      </BoundProperties>
    </ImageClip>
    <ImageClip extentID="218" gapBefore="0" mediaItemID="236" duration="7">
      <Effects />
      <Transitions />
      <BoundProperties>
        <BoundPropertyInt Name="rotateStepNinety" Value="0" />
      </BoundProperties>
    </ImageClip>
    <ImageClip extentID="219" gapBefore="0" mediaItemID="156" duration="2.7999999999999998">
      <Effects />
      <Transitions />
      <BoundProperties>
        <BoundPropertyInt Name="rotateStepNinety" Value="0" />
      </BoundProperties>
    </ImageClip>
    <ImageClip extentID="220" gapBefore="0" mediaItemID="237" duration="7">
      <Effects />
      <Transitions />
      <BoundProperties>
        <BoundPropertyInt Name="rotateStepNinety" Value="0" />
      </BoundProperties>
    </ImageClip>
    <ImageClip extentID="221" gapBefore="0" mediaItemID="158" duration="2.7999999999999998">
      <Effects />
      <Transitions />
      <BoundProperties>
        <BoundPropertyInt Name="rotateStepNinety" Value="0" />
      </BoundProperties>
    </ImageClip>
    <ImageClip extentID="222" gapBefore="0" mediaItemID="238" duration="7">
      <Effects />
      <Transitions />
      <BoundProperties>
        <BoundPropertyInt Name="rotateStepNinety" Value="0" />
      </BoundProperties>
    </ImageClip>
    <ImageClip extentID="223" gapBefore="0" mediaItemID="160" duration="2.7999999999999998">
      <Effects />
      <Transitions />
      <BoundProperties>
        <BoundPropertyInt Name="rotateStepNinety" Value="0" />
      </BoundProperties>
    </ImageClip>
    <ImageClip extentID="224" gapBefore="0" mediaItemID="161" duration="2.7999999999999998">
      <Effects />
      <Transitions />
      <BoundProperties>
        <BoundPropertyInt Name="rotateStepNinety" Value="0" />
      </BoundProperties>
    </ImageClip>
    <ImageClip extentID="225" gapBefore="0" mediaItemID="162" duration="2.7999999999999998">
      <Effects />
      <Transitions />
      <BoundProperties>
        <BoundPropertyInt Name="rotateStepNinety" Value="0" />
      </BoundProperties>
    </ImageClip>
    <ImageClip extentID="226" gapBefore="0" mediaItemID="163" duration="2.7999999999999998">
      <Effects />
      <Transitions />
      <BoundProperties>
        <BoundPropertyInt Name="rotateStepNinety" Value="0" />
      </BoundProperties>
    </ImageClip>
    <ImageClip extentID="227" gapBefore="0" mediaItemID="164" duration="2.7999999999999998">
      <Effects />
      <Transitions />
      <BoundProperties>
        <BoundPropertyInt Name="rotateStepNinety" Value="0" />
      </BoundProperties>
    </ImageClip>
    <ImageClip extentID="228" gapBefore="0" mediaItemID="165" duration="2.7999999999999998">
      <Effects />
      <Transitions />
      <BoundProperties>
        <BoundPropertyInt Name="rotateStepNinety" Value="0" />
      </BoundProperties>
    </ImageClip>
    <ImageClip extentID="229" gapBefore="0" mediaItemID="166" duration="2.7999999999999998">
      <Effects />
      <Transitions />
      <BoundProperties>
        <BoundPropertyInt Name="rotateStepNinety" Value="0" />
      </BoundProperties>
    </ImageClip>
    <ImageClip extentID="230" gapBefore="0" mediaItemID="167" duration="2.7999999999999998">
      <Effects />
      <Transitions />
      <BoundProperties>
        <BoundPropertyInt Name="rotateStepNinety" Value="0" />
      </BoundProperties>
    </ImageClip>
    <ImageClip extentID="231" gapBefore="0" mediaItemID="168" duration="2.7999999999999998">
      <Effects />
      <Transitions />
      <BoundProperties>
        <BoundPropertyInt Name="rotateStepNinety" Value="0" />
      </BoundProperties>
    </ImageClip>
    <ImageClip extentID="232" gapBefore="0" mediaItemID="239" duration="7">
      <Effects />
      <Transitions />
      <BoundProperties>
        <BoundPropertyInt Name="rotateStepNinety" Value="0" />
      </BoundProperties>
    </ImageClip>
    <ImageClip extentID="233" gapBefore="0" mediaItemID="240" duration="7">
      <Effects />
      <Transitions />
      <BoundProperties>
        <BoundPropertyInt Name="rotateStepNinety" Value="0" />
      </BoundProperties>
    </ImageClip>
    <ImageClip extentID="234" gapBefore="0" mediaItemID="171" duration="2.7999999999999998">
      <Effects />
      <Transitions />
      <BoundProperties>
        <BoundPropertyInt Name="rotateStepNinety" Value="0" />
      </BoundProperties>
    </ImageClip>
    <ImageClip extentID="235" gapBefore="0" mediaItemID="172" duration="2.7999999999999998">
      <Effects />
      <Transitions />
      <BoundProperties>
        <BoundPropertyInt Name="rotateStepNinety" Value="0" />
      </BoundProperties>
    </ImageClip>
    <ImageClip extentID="236" gapBefore="0" mediaItemID="173" duration="2.7999999999999998">
      <Effects />
      <Transitions />
      <BoundProperties>
        <BoundPropertyInt Name="rotateStepNinety" Value="0" />
      </BoundProperties>
    </ImageClip>
    <ImageClip extentID="237" gapBefore="0" mediaItemID="174" duration="2.7999999999999998">
      <Effects />
      <Transitions />
      <BoundProperties>
        <BoundPropertyInt Name="rotateStepNinety" Value="0" />
      </BoundProperties>
    </ImageClip>
    <ImageClip extentID="238" gapBefore="0" mediaItemID="175" duration="2.7999999999999998">
      <Effects />
      <Transitions />
      <BoundProperties>
        <BoundPropertyInt Name="rotateStepNinety" Value="0" />
      </BoundProperties>
    </ImageClip>
    <ImageClip extentID="239" gapBefore="0" mediaItemID="176" duration="2.7999999999999998">
      <Effects />
      <Transitions />
      <BoundProperties>
        <BoundPropertyInt Name="rotateStepNinety" Value="0" />
      </BoundProperties>
    </ImageClip>
    <ImageClip extentID="240" gapBefore="0" mediaItemID="177" duration="2.7999999999999998">
      <Effects />
      <Transitions />
      <BoundProperties>
        <BoundPropertyInt Name="rotateStepNinety" Value="0" />
      </BoundProperties>
    </ImageClip>
    <ImageClip extentID="241" gapBefore="0" mediaItemID="241" duration="7">
      <Effects />
      <Transitions />
      <BoundProperties>
        <BoundPropertyInt Name="rotateStepNinety" Value="0" />
      </BoundProperties>
    </ImageClip>
    <ImageClip extentID="242" gapBefore="0" mediaItemID="242" duration="7">
      <Effects />
      <Transitions />
      <BoundProperties>
        <BoundPropertyInt Name="rotateStepNinety" Value="0" />
      </BoundProperties>
    </ImageClip>
    <ImageClip extentID="243" gapBefore="0" mediaItemID="243" duration="7">
      <Effects />
      <Transitions />
      <BoundProperties>
        <BoundPropertyInt Name="rotateStepNinety" Value="0" />
      </BoundProperties>
    </ImageClip>
    <ImageClip extentID="244" gapBefore="0" mediaItemID="244" duration="7">
      <Effects />
      <Transitions />
      <BoundProperties>
        <BoundPropertyInt Name="rotateStepNinety" Value="0" />
      </BoundProperties>
    </ImageClip>
    <ImageClip extentID="245" gapBefore="0" mediaItemID="182" duration="2.7999999999999998">
      <Effects />
      <Transitions />
      <BoundProperties>
        <BoundPropertyInt Name="rotateStepNinety" Value="0" />
      </BoundProperties>
    </ImageClip>
    <ImageClip extentID="248" gapBefore="0" mediaItemID="185" duration="2.7999999999999998">
      <Effects />
      <Transitions />
      <BoundProperties>
        <BoundPropertyInt Name="rotateStepNinety" Value="0" />
      </BoundProperties>
    </ImageClip>
    <ImageClip extentID="249" gapBefore="0" mediaItemID="186" duration="2.7999999999999998">
      <Effects />
      <Transitions />
      <BoundProperties>
        <BoundPropertyInt Name="rotateStepNinety" Value="0" />
      </BoundProperties>
    </ImageClip>
    <ImageClip extentID="250" gapBefore="0" mediaItemID="187" duration="2.7999999999999998">
      <Effects />
      <Transitions />
      <BoundProperties>
        <BoundPropertyInt Name="rotateStepNinety" Value="0" />
      </BoundProperties>
    </ImageClip>
    <ImageClip extentID="251" gapBefore="0" mediaItemID="188" duration="2.7999999999999998">
      <Effects />
      <Transitions />
      <BoundProperties>
        <BoundPropertyInt Name="rotateStepNinety" Value="0" />
      </BoundProperties>
    </ImageClip>
    <ImageClip extentID="252" gapBefore="0" mediaItemID="189" duration="2.7999999999999998">
      <Effects />
      <Transitions />
      <BoundProperties>
        <BoundPropertyInt Name="rotateStepNinety" Value="0" />
      </BoundProperties>
    </ImageClip>
    <ImageClip extentID="253" gapBefore="0" mediaItemID="190" duration="2.7999999999999998">
      <Effects />
      <Transitions />
      <BoundProperties>
        <BoundPropertyInt Name="rotateStepNinety" Value="0" />
      </BoundProperties>
    </ImageClip>
    <ImageClip extentID="254" gapBefore="0" mediaItemID="191" duration="2.7999999999999998">
      <Effects />
      <Transitions />
      <BoundProperties>
        <BoundPropertyInt Name="rotateStepNinety" Value="0" />
      </BoundProperties>
    </ImageClip>
    <ImageClip extentID="255" gapBefore="0" mediaItemID="192" duration="2.7999999999999998">
      <Effects />
      <Transitions />
      <BoundProperties>
        <BoundPropertyInt Name="rotateStepNinety" Value="0" />
      </BoundProperties>
    </ImageClip>
    <ImageClip extentID="256" gapBefore="0" mediaItemID="193" duration="2.7999999999999998">
      <Effects />
      <Transitions />
      <BoundProperties>
        <BoundPropertyInt Name="rotateStepNinety" Value="0" />
      </BoundProperties>
    </ImageClip>
    <ImageClip extentID="257" gapBefore="0" mediaItemID="245" duration="7">
      <Effects />
      <Transitions />
      <BoundProperties>
        <BoundPropertyInt Name="rotateStepNinety" Value="0" />
      </BoundProperties>
    </ImageClip>
    <ImageClip extentID="258" gapBefore="0" mediaItemID="195" duration="2.7999999999999998">
      <Effects />
      <Transitions />
      <BoundProperties>
        <BoundPropertyInt Name="rotateStepNinety" Value="0" />
      </BoundProperties>
    </ImageClip>
    <ImageClip extentID="259" gapBefore="0" mediaItemID="196" duration="2.7999999999999998">
      <Effects />
      <Transitions />
      <BoundProperties>
        <BoundPropertyInt Name="rotateStepNinety" Value="0" />
      </BoundProperties>
    </ImageClip>
    <ImageClip extentID="260" gapBefore="0" mediaItemID="197" duration="2.7999999999999998">
      <Effects />
      <Transitions />
      <BoundProperties>
        <BoundPropertyInt Name="rotateStepNinety" Value="0" />
      </BoundProperties>
    </ImageClip>
    <ImageClip extentID="262" gapBefore="0" mediaItemID="199" duration="2.7999999999999998">
      <Effects />
      <Transitions />
      <BoundProperties>
        <BoundPropertyInt Name="rotateStepNinety" Value="0" />
      </BoundProperties>
    </ImageClip>
    <ImageClip extentID="263" gapBefore="0" mediaItemID="246" duration="7">
      <Effects />
      <Transitions />
      <BoundProperties>
        <BoundPropertyInt Name="rotateStepNinety" Value="0" />
      </BoundProperties>
    </ImageClip>
    <ImageClip extentID="264" gapBefore="0" mediaItemID="201" duration="2.7999999999999998">
      <Effects />
      <Transitions />
      <BoundProperties>
        <BoundPropertyInt Name="rotateStepNinety" Value="0" />
      </BoundProperties>
    </ImageClip>
    <ImageClip extentID="265" gapBefore="0" mediaItemID="202" duration="2.7999999999999998">
      <Effects />
      <Transitions />
      <BoundProperties>
        <BoundPropertyInt Name="rotateStepNinety" Value="0" />
      </BoundProperties>
    </ImageClip>
    <ImageClip extentID="266" gapBefore="0" mediaItemID="247" duration="7">
      <Effects />
      <Transitions />
      <BoundProperties>
        <BoundPropertyInt Name="rotateStepNinety" Value="0" />
      </BoundProperties>
    </ImageClip>
    <ImageClip extentID="267" gapBefore="0" mediaItemID="204" duration="2.7999999999999998">
      <Effects />
      <Transitions />
      <BoundProperties>
        <BoundPropertyInt Name="rotateStepNinety" Value="0" />
      </BoundProperties>
    </ImageClip>
    <ImageClip extentID="268" gapBefore="0" mediaItemID="248" duration="7">
      <Effects />
      <Transitions />
      <BoundProperties>
        <BoundPropertyInt Name="rotateStepNinety" Value="0" />
      </BoundProperties>
    </ImageClip>
    <ImageClip extentID="269" gapBefore="0" mediaItemID="249" duration="7">
      <Effects />
      <Transitions />
      <BoundProperties>
        <BoundPropertyInt Name="rotateStepNinety" Value="0" />
      </BoundProperties>
    </ImageClip>
    <ImageClip extentID="270" gapBefore="0" mediaItemID="250" duration="7">
      <Effects />
      <Transitions />
      <BoundProperties>
        <BoundPropertyInt Name="rotateStepNinety" Value="0" />
      </BoundProperties>
    </ImageClip>
    <ImageClip extentID="271" gapBefore="0" mediaItemID="251" duration="7">
      <Effects />
      <Transitions />
      <BoundProperties>
        <BoundPropertyInt Name="rotateStepNinety" Value="0" />
      </BoundProperties>
    </ImageClip>
    <ImageClip extentID="272" gapBefore="0" mediaItemID="252" duration="7">
      <Effects />
      <Transitions />
      <BoundProperties>
        <BoundPropertyInt Name="rotateStepNinety" Value="0" />
      </BoundProperties>
    </ImageClip>
    <ImageClip extentID="273" gapBefore="0" mediaItemID="253" duration="7">
      <Effects />
      <Transitions />
      <BoundProperties>
        <BoundPropertyInt Name="rotateStepNinety" Value="0" />
      </BoundProperties>
    </ImageClip>
    <ImageClip extentID="274" gapBefore="0" mediaItemID="254" duration="7">
      <Effects />
      <Transitions />
      <BoundProperties>
        <BoundPropertyInt Name="rotateStepNinety" Value="0" />
      </BoundProperties>
    </ImageClip>
    <ImageClip extentID="275" gapBefore="0" mediaItemID="255" duration="7">
      <Effects />
      <Transitions />
      <BoundProperties>
        <BoundPropertyInt Name="rotateStepNinety" Value="0" />
      </BoundProperties>
    </ImageClip>
    <VideoClip extentID="276" gapBefore="0" mediaItemID="256" inTime="0" outTime="0" speed="1" stabilizationMode="0">
      <Effects />
      <Transitions />
      <BoundProperties>
        <BoundPropertyBool Name="Mute" Value="false" />
        <BoundPropertyInt Name="rotateStepNinety" Value="0" />
        <BoundPropertyFloat Name="Volume" Value="1" />
      </BoundProperties>
    </VideoClip>
    <VideoClip extentID="277" gapBefore="0" mediaItemID="257" inTime="0" outTime="0" speed="1" stabilizationMode="0">
      <Effects />
      <Transitions />
      <BoundProperties>
        <BoundPropertyBool Name="Mute" Value="false" />
        <BoundPropertyInt Name="rotateStepNinety" Value="0" />
        <BoundPropertyFloat Name="Volume" Value="1" />
      </BoundProperties>
    </VideoClip>
    <ImageClip extentID="278" gapBefore="0" mediaItemID="258" duration="7">
      <Effects />
      <Transitions />
      <BoundProperties>
        <BoundPropertyInt Name="rotateStepNinety" Value="0" />
      </BoundProperties>
    </ImageClip>
    <ImageClip extentID="279" gapBefore="0" mediaItemID="259" duration="7">
      <Effects />
      <Transitions />
      <BoundProperties>
        <BoundPropertyInt Name="rotateStepNinety" Value="0" />
      </BoundProperties>
    </ImageClip>
    <ImageClip extentID="280" gapBefore="0" mediaItemID="260" duration="7">
      <Effects />
      <Transitions />
      <BoundProperties>
        <BoundPropertyInt Name="rotateStepNinety" Value="0" />
      </BoundProperties>
    </ImageClip>
    <ImageClip extentID="281" gapBefore="0" mediaItemID="261" duration="7">
      <Effects />
      <Transitions />
      <BoundProperties>
        <BoundPropertyInt Name="rotateStepNinety" Value="0" />
      </BoundProperties>
    </ImageClip>
    <ImageClip extentID="282" gapBefore="0" mediaItemID="262" duration="7">
      <Effects />
      <Transitions />
      <BoundProperties>
        <BoundPropertyInt Name="rotateStepNinety" Value="0" />
      </BoundProperties>
    </ImageClip>
    <ImageClip extentID="283" gapBefore="0" mediaItemID="263" duration="7">
      <Effects />
      <Transitions />
      <BoundProperties>
        <BoundPropertyInt Name="rotateStepNinety" Value="0" />
      </BoundProperties>
    </ImageClip>
    <ImageClip extentID="284" gapBefore="0" mediaItemID="264" duration="7">
      <Effects />
      <Transitions />
      <BoundProperties>
        <BoundPropertyInt Name="rotateStepNinety" Value="0" />
      </BoundProperties>
    </ImageClip>
    <ImageClip extentID="285" gapBefore="0" mediaItemID="265" duration="7">
      <Effects />
      <Transitions />
      <BoundProperties>
        <BoundPropertyInt Name="rotateStepNinety" Value="0" />
      </BoundProperties>
    </ImageClip>
    <ImageClip extentID="286" gapBefore="0" mediaItemID="266" duration="7">
      <Effects />
      <Transitions />
      <BoundProperties>
        <BoundPropertyInt Name="rotateStepNinety" Value="0" />
      </BoundProperties>
    </ImageClip>
    <ImageClip extentID="287" gapBefore="0" mediaItemID="267" duration="7">
      <Effects />
      <Transitions />
      <BoundProperties>
        <BoundPropertyInt Name="rotateStepNinety" Value="0" />
      </BoundProperties>
    </ImageClip>
    <ImageClip extentID="288" gapBefore="0" mediaItemID="268" duration="7">
      <Effects />
      <Transitions />
      <BoundProperties>
        <BoundPropertyInt Name="rotateStepNinety" Value="0" />
      </BoundProperties>
    </ImageClip>
    <ImageClip extentID="289" gapBefore="0" mediaItemID="269" duration="7">
      <Effects />
      <Transitions />
      <BoundProperties>
        <BoundPropertyInt Name="rotateStepNinety" Value="0" />
      </BoundProperties>
    </ImageClip>
    <ImageClip extentID="290" gapBefore="0" mediaItemID="270" duration="7">
      <Effects />
      <Transitions />
      <BoundProperties>
        <BoundPropertyInt Name="rotateStepNinety" Value="0" />
      </BoundProperties>
    </ImageClip>
    <VideoClip extentID="291" gapBefore="0" mediaItemID="271" inTime="0" outTime="0" speed="1" stabilizationMode="0">
      <Effects />
      <Transitions />
      <BoundProperties>
        <BoundPropertyBool Name="Mute" Value="false" />
        <BoundPropertyInt Name="rotateStepNinety" Value="0" />
        <BoundPropertyFloat Name="Volume" Value="1" />
      </BoundProperties>
    </VideoClip>
    <ImageClip extentID="292" gapBefore="0" mediaItemID="272" duration="7">
      <Effects />
      <Transitions />
      <BoundProperties>
        <BoundPropertyInt Name="rotateStepNinety" Value="0" />
      </BoundProperties>
    </ImageClip>
    <VideoClip extentID="293" gapBefore="0" mediaItemID="273" inTime="0" outTime="0" speed="1" stabilizationMode="0">
      <Effects />
      <Transitions />
      <BoundProperties>
        <BoundPropertyBool Name="Mute" Value="false" />
        <BoundPropertyInt Name="rotateStepNinety" Value="0" />
        <BoundPropertyFloat Name="Volume" Value="1" />
      </BoundProperties>
    </VideoClip>
    <VideoClip extentID="294" gapBefore="0" mediaItemID="274" inTime="0" outTime="0" speed="1" stabilizationMode="0">
      <Effects />
      <Transitions />
      <BoundProperties>
        <BoundPropertyBool Name="Mute" Value="false" />
        <BoundPropertyInt Name="rotateStepNinety" Value="0" />
        <BoundPropertyFloat Name="Volume" Value="1" />
      </BoundProperties>
    </VideoClip>
    <VideoClip extentID="295" gapBefore="0" mediaItemID="275" inTime="0" outTime="0" speed="1" stabilizationMode="0">
      <Effects />
      <Transitions />
      <BoundProperties>
        <BoundPropertyBool Name="Mute" Value="false" />
        <BoundPropertyInt Name="rotateStepNinety" Value="0" />
        <BoundPropertyFloat Name="Volume" Value="1" />
      </BoundProperties>
    </VideoClip>
    <VideoClip extentID="296" gapBefore="0" mediaItemID="276" inTime="0" outTime="0" speed="1" stabilizationMode="0">
      <Effects />
      <Transitions />
      <BoundProperties>
        <BoundPropertyBool Name="Mute" Value="false" />
        <BoundPropertyInt Name="rotateStepNinety" Value="0" />
        <BoundPropertyFloat Name="Volume" Value="1" />
      </BoundProperties>
    </VideoClip>
    <VideoClip extentID="297" gapBefore="0" mediaItemID="277" inTime="0" outTime="0" speed="1" stabilizationMode="0">
      <Effects />
      <Transitions />
      <BoundProperties>
        <BoundPropertyBool Name="Mute" Value="false" />
        <BoundPropertyInt Name="rotateStepNinety" Value="0" />
        <BoundPropertyFloat Name="Volume" Value="1" />
      </BoundProperties>
    </VideoClip>
    <VideoClip extentID="298" gapBefore="0" mediaItemID="278" inTime="0" outTime="0" speed="1" stabilizationMode="0">
      <Effects />
      <Transitions />
      <BoundProperties>
        <BoundPropertyBool Name="Mute" Value="false" />
        <BoundPropertyInt Name="rotateStepNinety" Value="0" />
        <BoundPropertyFloat Name="Volume" Value="1" />
      </BoundProperties>
    </VideoClip>
    <VideoClip extentID="299" gapBefore="0" mediaItemID="279" inTime="0" outTime="0" speed="1" stabilizationMode="0">
      <Effects />
      <Transitions />
      <BoundProperties>
        <BoundPropertyBool Name="Mute" Value="false" />
        <BoundPropertyInt Name="rotateStepNinety" Value="0" />
        <BoundPropertyFloat Name="Volume" Value="1" />
      </BoundProperties>
    </VideoClip>
    <VideoClip extentID="300" gapBefore="0" mediaItemID="280" inTime="0" outTime="0" speed="1" stabilizationMode="0">
      <Effects />
      <Transitions />
      <BoundProperties>
        <BoundPropertyBool Name="Mute" Value="false" />
        <BoundPropertyInt Name="rotateStepNinety" Value="0" />
        <BoundPropertyFloat Name="Volume" Value="1" />
      </BoundProperties>
    </VideoClip>
    <VideoClip extentID="301" gapBefore="0" mediaItemID="281" inTime="0" outTime="0" speed="1" stabilizationMode="0">
      <Effects />
      <Transitions />
      <BoundProperties>
        <BoundPropertyBool Name="Mute" Value="false" />
        <BoundPropertyInt Name="rotateStepNinety" Value="0" />
        <BoundPropertyFloat Name="Volume" Value="1" />
      </BoundProperties>
    </VideoClip>
    <VideoClip extentID="302" gapBefore="0" mediaItemID="282" inTime="0" outTime="0" speed="1" stabilizationMode="0">
      <Effects />
      <Transitions />
      <BoundProperties>
        <BoundPropertyBool Name="Mute" Value="false" />
        <BoundPropertyInt Name="rotateStepNinety" Value="0" />
        <BoundPropertyFloat Name="Volume" Value="1" />
      </BoundProperties>
    </VideoClip>
    <VideoClip extentID="303" gapBefore="0" mediaItemID="283" inTime="0" outTime="0" speed="1" stabilizationMode="0">
      <Effects />
      <Transitions />
      <BoundProperties>
        <BoundPropertyBool Name="Mute" Value="false" />
        <BoundPropertyInt Name="rotateStepNinety" Value="0" />
        <BoundPropertyFloat Name="Volume" Value="1" />
      </BoundProperties>
    </VideoClip>
    <ImageClip extentID="304" gapBefore="0" mediaItemID="284" duration="7">
      <Effects />
      <Transitions />
      <BoundProperties>
        <BoundPropertyInt Name="rotateStepNinety" Value="0" />
      </BoundProperties>
    </ImageClip>
    <VideoClip extentID="305" gapBefore="0" mediaItemID="285" inTime="0" outTime="0" speed="1" stabilizationMode="0">
      <Effects />
      <Transitions />
      <BoundProperties>
        <BoundPropertyBool Name="Mute" Value="false" />
        <BoundPropertyInt Name="rotateStepNinety" Value="0" />
        <BoundPropertyFloat Name="Volume" Value="1" />
      </BoundProperties>
    </VideoClip>
    <VideoClip extentID="306" gapBefore="0" mediaItemID="286" inTime="0" outTime="0" speed="1" stabilizationMode="0">
      <Effects />
      <Transitions />
      <BoundProperties>
        <BoundPropertyBool Name="Mute" Value="false" />
        <BoundPropertyInt Name="rotateStepNinety" Value="0" />
        <BoundPropertyFloat Name="Volume" Value="1" />
      </BoundProperties>
    </VideoClip>
    <ImageClip extentID="307" gapBefore="0" mediaItemID="287" duration="7">
      <Effects />
      <Transitions />
      <BoundProperties>
        <BoundPropertyInt Name="rotateStepNinety" Value="0" />
      </BoundProperties>
    </ImageClip>
    <VideoClip extentID="308" gapBefore="0" mediaItemID="288" inTime="0" outTime="0" speed="1" stabilizationMode="0">
      <Effects />
      <Transitions />
      <BoundProperties>
        <BoundPropertyBool Name="Mute" Value="false" />
        <BoundPropertyInt Name="rotateStepNinety" Value="0" />
        <BoundPropertyFloat Name="Volume" Value="1" />
      </BoundProperties>
    </VideoClip>
    <VideoClip extentID="309" gapBefore="0" mediaItemID="289" inTime="0" outTime="0" speed="1" stabilizationMode="0">
      <Effects />
      <Transitions />
      <BoundProperties>
        <BoundPropertyBool Name="Mute" Value="false" />
        <BoundPropertyInt Name="rotateStepNinety" Value="0" />
        <BoundPropertyFloat Name="Volume" Value="1" />
      </BoundProperties>
    </VideoClip>
    <VideoClip extentID="310" gapBefore="0" mediaItemID="290" inTime="0" outTime="0" speed="1" stabilizationMode="0">
      <Effects />
      <Transitions />
      <BoundProperties>
        <BoundPropertyBool Name="Mute" Value="false" />
        <BoundPropertyInt Name="rotateStepNinety" Value="0" />
        <BoundPropertyFloat Name="Volume" Value="1" />
      </BoundProperties>
    </VideoClip>
    <ImageClip extentID="311" gapBefore="0" mediaItemID="291" duration="7">
      <Effects />
      <Transitions />
      <BoundProperties>
        <BoundPropertyInt Name="rotateStepNinety" Value="0" />
      </BoundProperties>
    </ImageClip>
    <VideoClip extentID="312" gapBefore="0" mediaItemID="292" inTime="0" outTime="0" speed="1" stabilizationMode="0">
      <Effects />
      <Transitions />
      <BoundProperties>
        <BoundPropertyBool Name="Mute" Value="false" />
        <BoundPropertyInt Name="rotateStepNinety" Value="0" />
        <BoundPropertyFloat Name="Volume" Value="1" />
      </BoundProperties>
    </VideoClip>
    <ImageClip extentID="313" gapBefore="0" mediaItemID="293" duration="7">
      <Effects />
      <Transitions />
      <BoundProperties>
        <BoundPropertyInt Name="rotateStepNinety" Value="0" />
      </BoundProperties>
    </ImageClip>
    <ImageClip extentID="314" gapBefore="0" mediaItemID="294" duration="7">
      <Effects />
      <Transitions />
      <BoundProperties>
        <BoundPropertyInt Name="rotateStepNinety" Value="0" />
      </BoundProperties>
    </ImageClip>
    <VideoClip extentID="315" gapBefore="0" mediaItemID="295" inTime="0" outTime="0" speed="1" stabilizationMode="0">
      <Effects />
      <Transitions />
      <BoundProperties>
        <BoundPropertyBool Name="Mute" Value="false" />
        <BoundPropertyInt Name="rotateStepNinety" Value="0" />
        <BoundPropertyFloat Name="Volume" Value="1" />
      </BoundProperties>
    </VideoClip>
    <ImageClip extentID="316" gapBefore="0" mediaItemID="296" duration="7">
      <Effects />
      <Transitions />
      <BoundProperties>
        <BoundPropertyInt Name="rotateStepNinety" Value="0" />
      </BoundProperties>
    </ImageClip>
    <ImageClip extentID="317" gapBefore="0" mediaItemID="297" duration="7">
      <Effects />
      <Transitions />
      <BoundProperties>
        <BoundPropertyInt Name="rotateStepNinety" Value="0" />
      </BoundProperties>
    </ImageClip>
    <ImageClip extentID="318" gapBefore="0" mediaItemID="298" duration="7">
      <Effects />
      <Transitions />
      <BoundProperties>
        <BoundPropertyInt Name="rotateStepNinety" Value="0" />
      </BoundProperties>
    </ImageClip>
    <ImageClip extentID="319" gapBefore="0" mediaItemID="299" duration="7">
      <Effects />
      <Transitions />
      <BoundProperties>
        <BoundPropertyInt Name="rotateStepNinety" Value="0" />
      </BoundProperties>
    </ImageClip>
    <ImageClip extentID="320" gapBefore="0" mediaItemID="300" duration="7">
      <Effects />
      <Transitions />
      <BoundProperties>
        <BoundPropertyInt Name="rotateStepNinety" Value="0" />
      </BoundProperties>
    </ImageClip>
    <ImageClip extentID="321" gapBefore="0" mediaItemID="301" duration="7">
      <Effects />
      <Transitions />
      <BoundProperties>
        <BoundPropertyInt Name="rotateStepNinety" Value="0" />
      </BoundProperties>
    </ImageClip>
    <ImageClip extentID="322" gapBefore="0" mediaItemID="302" duration="7">
      <Effects />
      <Transitions />
      <BoundProperties>
        <BoundPropertyInt Name="rotateStepNinety" Value="0" />
      </BoundProperties>
    </ImageClip>
    <ImageClip extentID="323" gapBefore="0" mediaItemID="303" duration="7">
      <Effects />
      <Transitions />
      <BoundProperties>
        <BoundPropertyInt Name="rotateStepNinety" Value="0" />
      </BoundProperties>
    </ImageClip>
    <ImageClip extentID="324" gapBefore="0" mediaItemID="304" duration="7">
      <Effects />
      <Transitions />
      <BoundProperties>
        <BoundPropertyInt Name="rotateStepNinety" Value="0" />
      </BoundProperties>
    </ImageClip>
    <ImageClip extentID="325" gapBefore="0" mediaItemID="305" duration="7">
      <Effects />
      <Transitions />
      <BoundProperties>
        <BoundPropertyInt Name="rotateStepNinety" Value="0" />
      </BoundProperties>
    </ImageClip>
    <ImageClip extentID="326" gapBefore="0" mediaItemID="306" duration="7">
      <Effects />
      <Transitions />
      <BoundProperties>
        <BoundPropertyInt Name="rotateStepNinety" Value="0" />
      </BoundProperties>
    </ImageClip>
    <ImageClip extentID="327" gapBefore="0" mediaItemID="307" duration="7">
      <Effects />
      <Transitions />
      <BoundProperties>
        <BoundPropertyInt Name="rotateStepNinety" Value="0" />
      </BoundProperties>
    </ImageClip>
    <ImageClip extentID="328" gapBefore="0" mediaItemID="308" duration="7">
      <Effects />
      <Transitions />
      <BoundProperties>
        <BoundPropertyInt Name="rotateStepNinety" Value="0" />
      </BoundProperties>
    </ImageClip>
    <ImageClip extentID="329" gapBefore="0" mediaItemID="309" duration="7">
      <Effects />
      <Transitions />
      <BoundProperties>
        <BoundPropertyInt Name="rotateStepNinety" Value="0" />
      </BoundProperties>
    </ImageClip>
    <ImageClip extentID="330" gapBefore="0" mediaItemID="310" duration="7">
      <Effects />
      <Transitions />
      <BoundProperties>
        <BoundPropertyInt Name="rotateStepNinety" Value="0" />
      </BoundProperties>
    </ImageClip>
    <ImageClip extentID="331" gapBefore="0" mediaItemID="311" duration="7">
      <Effects />
      <Transitions />
      <BoundProperties>
        <BoundPropertyInt Name="rotateStepNinety" Value="0" />
      </BoundProperties>
    </ImageClip>
    <ImageClip extentID="332" gapBefore="0" mediaItemID="312" duration="7">
      <Effects />
      <Transitions />
      <BoundProperties>
        <BoundPropertyInt Name="rotateStepNinety" Value="0" />
      </BoundProperties>
    </ImageClip>
    <ImageClip extentID="333" gapBefore="0" mediaItemID="313" duration="7">
      <Effects />
      <Transitions />
      <BoundProperties>
        <BoundPropertyInt Name="rotateStepNinety" Value="0" />
      </BoundProperties>
    </ImageClip>
    <ImageClip extentID="334" gapBefore="0" mediaItemID="314" duration="7">
      <Effects />
      <Transitions />
      <BoundProperties>
        <BoundPropertyInt Name="rotateStepNinety" Value="0" />
      </BoundProperties>
    </ImageClip>
    <ImageClip extentID="335" gapBefore="0" mediaItemID="315" duration="7">
      <Effects />
      <Transitions />
      <BoundProperties>
        <BoundPropertyInt Name="rotateStepNinety" Value="0" />
      </BoundProperties>
    </ImageClip>
    <ImageClip extentID="336" gapBefore="0" mediaItemID="316" duration="7">
      <Effects />
      <Transitions />
      <BoundProperties>
        <BoundPropertyInt Name="rotateStepNinety" Value="0" />
      </BoundProperties>
    </ImageClip>
    <ImageClip extentID="337" gapBefore="0" mediaItemID="317" duration="7">
      <Effects />
      <Transitions />
      <BoundProperties>
        <BoundPropertyInt Name="rotateStepNinety" Value="0" />
      </BoundProperties>
    </ImageClip>
    <ImageClip extentID="338" gapBefore="0" mediaItemID="318" duration="7">
      <Effects />
      <Transitions />
      <BoundProperties>
        <BoundPropertyInt Name="rotateStepNinety" Value="0" />
      </BoundProperties>
    </ImageClip>
    <ImageClip extentID="339" gapBefore="0" mediaItemID="319" duration="7">
      <Effects />
      <Transitions />
      <BoundProperties>
        <BoundPropertyInt Name="rotateStepNinety" Value="0" />
      </BoundProperties>
    </ImageClip>
    <ImageClip extentID="340" gapBefore="0" mediaItemID="320" duration="7">
      <Effects />
      <Transitions />
      <BoundProperties>
        <BoundPropertyInt Name="rotateStepNinety" Value="0" />
      </BoundProperties>
    </ImageClip>
    <ImageClip extentID="341" gapBefore="0" mediaItemID="321" duration="7">
      <Effects />
      <Transitions />
      <BoundProperties>
        <BoundPropertyInt Name="rotateStepNinety" Value="0" />
      </BoundProperties>
    </ImageClip>
    <ImageClip extentID="342" gapBefore="0" mediaItemID="322" duration="7">
      <Effects />
      <Transitions />
      <BoundProperties>
        <BoundPropertyInt Name="rotateStepNinety" Value="0" />
      </BoundProperties>
    </ImageClip>
    <ImageClip extentID="343" gapBefore="0" mediaItemID="323" duration="7">
      <Effects />
      <Transitions />
      <BoundProperties>
        <BoundPropertyInt Name="rotateStepNinety" Value="0" />
      </BoundProperties>
    </ImageClip>
    <ImageClip extentID="344" gapBefore="0" mediaItemID="324" duration="7">
      <Effects />
      <Transitions />
      <BoundProperties>
        <BoundPropertyInt Name="rotateStepNinety" Value="0" />
      </BoundProperties>
    </ImageClip>
    <ImageClip extentID="345" gapBefore="0" mediaItemID="325" duration="7">
      <Effects />
      <Transitions />
      <BoundProperties>
        <BoundPropertyInt Name="rotateStepNinety" Value="0" />
      </BoundProperties>
    </ImageClip>
    <ImageClip extentID="346" gapBefore="0" mediaItemID="326" duration="7">
      <Effects />
      <Transitions />
      <BoundProperties>
        <BoundPropertyInt Name="rotateStepNinety" Value="0" />
      </BoundProperties>
    </ImageClip>
    <ImageClip extentID="347" gapBefore="0" mediaItemID="327" duration="7">
      <Effects />
      <Transitions />
      <BoundProperties>
        <BoundPropertyInt Name="rotateStepNinety" Value="0" />
      </BoundProperties>
    </ImageClip>
    <ImageClip extentID="348" gapBefore="0" mediaItemID="328" duration="7">
      <Effects />
      <Transitions />
      <BoundProperties>
        <BoundPropertyInt Name="rotateStepNinety" Value="0" />
      </BoundProperties>
    </ImageClip>
    <ImageClip extentID="349" gapBefore="0" mediaItemID="329" duration="7">
      <Effects />
      <Transitions />
      <BoundProperties>
        <BoundPropertyInt Name="rotateStepNinety" Value="0" />
      </BoundProperties>
    </ImageClip>
    <ImageClip extentID="350" gapBefore="0" mediaItemID="330" duration="7">
      <Effects />
      <Transitions />
      <BoundProperties>
        <BoundPropertyInt Name="rotateStepNinety" Value="0" />
      </BoundProperties>
    </ImageClip>
    <ImageClip extentID="351" gapBefore="0" mediaItemID="331" duration="7">
      <Effects />
      <Transitions />
      <BoundProperties>
        <BoundPropertyInt Name="rotateStepNinety" Value="0" />
      </BoundProperties>
    </ImageClip>
    <ImageClip extentID="352" gapBefore="0" mediaItemID="332" duration="7">
      <Effects />
      <Transitions />
      <BoundProperties>
        <BoundPropertyInt Name="rotateStepNinety" Value="0" />
      </BoundProperties>
    </ImageClip>
    <ImageClip extentID="353" gapBefore="0" mediaItemID="333" duration="7">
      <Effects />
      <Transitions />
      <BoundProperties>
        <BoundPropertyInt Name="rotateStepNinety" Value="0" />
      </BoundProperties>
    </ImageClip>
    <ImageClip extentID="354" gapBefore="0" mediaItemID="334" duration="7">
      <Effects />
      <Transitions />
      <BoundProperties>
        <BoundPropertyInt Name="rotateStepNinety" Value="0" />
      </BoundProperties>
    </ImageClip>
    <ImageClip extentID="355" gapBefore="0" mediaItemID="335" duration="7">
      <Effects />
      <Transitions />
      <BoundProperties>
        <BoundPropertyInt Name="rotateStepNinety" Value="0" />
      </BoundProperties>
    </ImageClip>
    <ImageClip extentID="356" gapBefore="0" mediaItemID="336" duration="7">
      <Effects />
      <Transitions />
      <BoundProperties>
        <BoundPropertyInt Name="rotateStepNinety" Value="0" />
      </BoundProperties>
    </ImageClip>
    <ImageClip extentID="357" gapBefore="0" mediaItemID="337" duration="7">
      <Effects />
      <Transitions />
      <BoundProperties>
        <BoundPropertyInt Name="rotateStepNinety" Value="0" />
      </BoundProperties>
    </ImageClip>
    <ImageClip extentID="358" gapBefore="0" mediaItemID="338" duration="7">
      <Effects />
      <Transitions />
      <BoundProperties>
        <BoundPropertyInt Name="rotateStepNinety" Value="0" />
      </BoundProperties>
    </ImageClip>
    <ImageClip extentID="359" gapBefore="0" mediaItemID="339" duration="7">
      <Effects />
      <Transitions />
      <BoundProperties>
        <BoundPropertyInt Name="rotateStepNinety" Value="0" />
      </BoundProperties>
    </ImageClip>
    <ImageClip extentID="360" gapBefore="0" mediaItemID="340" duration="7">
      <Effects />
      <Transitions />
      <BoundProperties>
        <BoundPropertyInt Name="rotateStepNinety" Value="0" />
      </BoundProperties>
    </ImageClip>
    <ImageClip extentID="361" gapBefore="0" mediaItemID="341" duration="7">
      <Effects />
      <Transitions />
      <BoundProperties>
        <BoundPropertyInt Name="rotateStepNinety" Value="0" />
      </BoundProperties>
    </ImageClip>
    <ImageClip extentID="362" gapBefore="0" mediaItemID="342" duration="7">
      <Effects />
      <Transitions />
      <BoundProperties>
        <BoundPropertyInt Name="rotateStepNinety" Value="0" />
      </BoundProperties>
    </ImageClip>
    <ImageClip extentID="363" gapBefore="0" mediaItemID="343" duration="7">
      <Effects />
      <Transitions />
      <BoundProperties>
        <BoundPropertyInt Name="rotateStepNinety" Value="0" />
      </BoundProperties>
    </ImageClip>
    <ImageClip extentID="364" gapBefore="0" mediaItemID="344" duration="7">
      <Effects />
      <Transitions />
      <BoundProperties>
        <BoundPropertyInt Name="rotateStepNinety" Value="0" />
      </BoundProperties>
    </ImageClip>
    <VideoClip extentID="365" gapBefore="0" mediaItemID="345" inTime="0" outTime="0" speed="1" stabilizationMode="0">
      <Effects />
      <Transitions />
      <BoundProperties>
        <BoundPropertyBool Name="Mute" Value="false" />
        <BoundPropertyInt Name="rotateStepNinety" Value="0" />
        <BoundPropertyFloat Name="Volume" Value="1" />
      </BoundProperties>
    </VideoClip>
    <ImageClip extentID="366" gapBefore="0" mediaItemID="346" duration="7">
      <Effects />
      <Transitions />
      <BoundProperties>
        <BoundPropertyInt Name="rotateStepNinety" Value="0" />
      </BoundProperties>
    </ImageClip>
    <ImageClip extentID="367" gapBefore="0" mediaItemID="347" duration="7">
      <Effects />
      <Transitions />
      <BoundProperties>
        <BoundPropertyInt Name="rotateStepNinety" Value="0" />
      </BoundProperties>
    </ImageClip>
    <ImageClip extentID="368" gapBefore="0" mediaItemID="348" duration="7">
      <Effects />
      <Transitions />
      <BoundProperties>
        <BoundPropertyInt Name="rotateStepNinety" Value="0" />
      </BoundProperties>
    </ImageClip>
    <ImageClip extentID="369" gapBefore="0" mediaItemID="349" duration="7">
      <Effects />
      <Transitions />
      <BoundProperties>
        <BoundPropertyInt Name="rotateStepNinety" Value="0" />
      </BoundProperties>
    </ImageClip>
    <ImageClip extentID="370" gapBefore="0" mediaItemID="350" duration="7">
      <Effects />
      <Transitions />
      <BoundProperties>
        <BoundPropertyInt Name="rotateStepNinety" Value="0" />
      </BoundProperties>
    </ImageClip>
    <ImageClip extentID="371" gapBefore="0" mediaItemID="351" duration="7">
      <Effects />
      <Transitions />
      <BoundProperties>
        <BoundPropertyInt Name="rotateStepNinety" Value="0" />
      </BoundProperties>
    </ImageClip>
    <ImageClip extentID="372" gapBefore="0" mediaItemID="352" duration="7">
      <Effects />
      <Transitions />
      <BoundProperties>
        <BoundPropertyInt Name="rotateStepNinety" Value="0" />
      </BoundProperties>
    </ImageClip>
    <VideoClip extentID="373" gapBefore="0" mediaItemID="353" inTime="0" outTime="0" speed="1" stabilizationMode="0">
      <Effects />
      <Transitions />
      <BoundProperties>
        <BoundPropertyBool Name="Mute" Value="false" />
        <BoundPropertyInt Name="rotateStepNinety" Value="0" />
        <BoundPropertyFloat Name="Volume" Value="1" />
      </BoundProperties>
    </VideoClip>
    <ImageClip extentID="374" gapBefore="0" mediaItemID="354" duration="7">
      <Effects />
      <Transitions />
      <BoundProperties>
        <BoundPropertyInt Name="rotateStepNinety" Value="0" />
      </BoundProperties>
    </ImageClip>
    <ImageClip extentID="375" gapBefore="0" mediaItemID="355" duration="7">
      <Effects />
      <Transitions />
      <BoundProperties>
        <BoundPropertyInt Name="rotateStepNinety" Value="0" />
      </BoundProperties>
    </ImageClip>
    <ImageClip extentID="376" gapBefore="0" mediaItemID="356" duration="7">
      <Effects />
      <Transitions />
      <BoundProperties>
        <BoundPropertyInt Name="rotateStepNinety" Value="0" />
      </BoundProperties>
    </ImageClip>
    <ImageClip extentID="377" gapBefore="0" mediaItemID="357" duration="7">
      <Effects />
      <Transitions />
      <BoundProperties>
        <BoundPropertyInt Name="rotateStepNinety" Value="0" />
      </BoundProperties>
    </ImageClip>
    <ImageClip extentID="378" gapBefore="0" mediaItemID="358" duration="7">
      <Effects />
      <Transitions />
      <BoundProperties>
        <BoundPropertyInt Name="rotateStepNinety" Value="0" />
      </BoundProperties>
    </ImageClip>
    <VideoClip extentID="379" gapBefore="0" mediaItemID="359" inTime="0" outTime="0" speed="1" stabilizationMode="0">
      <Effects />
      <Transitions />
      <BoundProperties>
        <BoundPropertyBool Name="Mute" Value="false" />
        <BoundPropertyInt Name="rotateStepNinety" Value="0" />
        <BoundPropertyFloat Name="Volume" Value="1" />
      </BoundProperties>
    </VideoClip>
    <VideoClip extentID="380" gapBefore="0" mediaItemID="360" inTime="0" outTime="0" speed="1" stabilizationMode="0">
      <Effects />
      <Transitions />
      <BoundProperties>
        <BoundPropertyBool Name="Mute" Value="false" />
        <BoundPropertyInt Name="rotateStepNinety" Value="0" />
        <BoundPropertyFloat Name="Volume" Value="1" />
      </BoundProperties>
    </VideoClip>
    <ImageClip extentID="381" gapBefore="0" mediaItemID="361" duration="7">
      <Effects />
      <Transitions />
      <BoundProperties>
        <BoundPropertyInt Name="rotateStepNinety" Value="0" />
      </BoundProperties>
    </ImageClip>
    <ImageClip extentID="382" gapBefore="0" mediaItemID="362" duration="7">
      <Effects />
      <Transitions />
      <BoundProperties>
        <BoundPropertyInt Name="rotateStepNinety" Value="0" />
      </BoundProperties>
    </ImageClip>
    <ImageClip extentID="383" gapBefore="0" mediaItemID="363" duration="7">
      <Effects />
      <Transitions />
      <BoundProperties>
        <BoundPropertyInt Name="rotateStepNinety" Value="0" />
      </BoundProperties>
    </ImageClip>
    <ImageClip extentID="384" gapBefore="0" mediaItemID="364" duration="7">
      <Effects />
      <Transitions />
      <BoundProperties>
        <BoundPropertyInt Name="rotateStepNinety" Value="0" />
      </BoundProperties>
    </ImageClip>
    <ImageClip extentID="385" gapBefore="0" mediaItemID="365" duration="7">
      <Effects />
      <Transitions />
      <BoundProperties>
        <BoundPropertyInt Name="rotateStepNinety" Value="0" />
      </BoundProperties>
    </ImageClip>
    <ImageClip extentID="386" gapBefore="0" mediaItemID="366" duration="7">
      <Effects />
      <Transitions />
      <BoundProperties>
        <BoundPropertyInt Name="rotateStepNinety" Value="0" />
      </BoundProperties>
    </ImageClip>
    <ImageClip extentID="387" gapBefore="0" mediaItemID="367" duration="7">
      <Effects />
      <Transitions />
      <BoundProperties>
        <BoundPropertyInt Name="rotateStepNinety" Value="0" />
      </BoundProperties>
    </ImageClip>
    <VideoClip extentID="388" gapBefore="0" mediaItemID="368" inTime="0" outTime="0" speed="1" stabilizationMode="0">
      <Effects />
      <Transitions />
      <BoundProperties>
        <BoundPropertyBool Name="Mute" Value="false" />
        <BoundPropertyInt Name="rotateStepNinety" Value="0" />
        <BoundPropertyFloat Name="Volume" Value="1" />
      </BoundProperties>
    </VideoClip>
    <ImageClip extentID="389" gapBefore="0" mediaItemID="369" duration="7">
      <Effects />
      <Transitions />
      <BoundProperties>
        <BoundPropertyInt Name="rotateStepNinety" Value="0" />
      </BoundProperties>
    </ImageClip>
    <ExtentSelector extentID="1" gapBefore="0" primaryTrack="true">
      <Effects />
      <Transitions />
      <BoundProperties />
      <ExtentRefs>
        <ExtentRef id="55" />
        <ExtentRef id="5" />
        <ExtentRef id="15" />
        <ExtentRef id="17" />
        <ExtentRef id="19" />
        <ExtentRef id="20" />
        <ExtentRef id="21" />
        <ExtentRef id="22" />
        <ExtentRef id="23" />
        <ExtentRef id="24" />
        <ExtentRef id="25" />
        <ExtentRef id="27" />
        <ExtentRef id="28" />
        <ExtentRef id="29" />
        <ExtentRef id="30" />
        <ExtentRef id="61" />
        <ExtentRef id="33" />
        <ExtentRef id="35" />
        <ExtentRef id="65" />
        <ExtentRef id="37" />
        <ExtentRef id="69" />
        <ExtentRef id="63" />
        <ExtentRef id="40" />
        <ExtentRef id="72" />
        <ExtentRef id="76" />
        <ExtentRef id="79" />
        <ExtentRef id="44" />
        <ExtentRef id="82" />
        <ExtentRef id="46" />
        <ExtentRef id="6" />
        <ExtentRef id="8" />
        <ExtentRef id="48" />
        <ExtentRef id="50" />
        <ExtentRef id="51" />
        <ExtentRef id="52" />
        <ExtentRef id="53" />
        <ExtentRef id="124" />
        <ExtentRef id="126" />
        <ExtentRef id="118" />
        <ExtentRef id="120" />
        <ExtentRef id="121" />
        <ExtentRef id="128" />
        <ExtentRef id="11" />
        <ExtentRef id="13" />
        <ExtentRef id="12" />
        <ExtentRef id="14" />
        <ExtentRef id="18" />
        <ExtentRef id="132" />
        <ExtentRef id="134" />
        <ExtentRef id="136" />
        <ExtentRef id="31" />
        <ExtentRef id="32" />
        <ExtentRef id="71" />
        <ExtentRef id="34" />
        <ExtentRef id="36" />
        <ExtentRef id="38" />
        <ExtentRef id="41" />
        <ExtentRef id="140" />
        <ExtentRef id="43" />
        <ExtentRef id="149" />
        <ExtentRef id="47" />
        <ExtentRef id="145" />
        <ExtentRef id="146" />
        <ExtentRef id="147" />
        <ExtentRef id="54" />
        <ExtentRef id="58" />
        <ExtentRef id="59" />
        <ExtentRef id="62" />
        <ExtentRef id="64" />
        <ExtentRef id="67" />
        <ExtentRef id="68" />
        <ExtentRef id="70" />
        <ExtentRef id="73" />
        <ExtentRef id="75" />
        <ExtentRef id="10" />
        <ExtentRef id="26" />
        <ExtentRef id="78" />
        <ExtentRef id="80" />
        <ExtentRef id="49" />
        <ExtentRef id="165" />
        <ExtentRef id="86" />
        <ExtentRef id="129" />
        <ExtentRef id="131" />
        <ExtentRef id="135" />
        <ExtentRef id="139" />
        <ExtentRef id="150" />
        <ExtentRef id="154" />
        <ExtentRef id="166" />
        <ExtentRef id="92" />
        <ExtentRef id="93" />
        <ExtentRef id="94" />
        <ExtentRef id="95" />
        <ExtentRef id="96" />
        <ExtentRef id="97" />
        <ExtentRef id="100" />
        <ExtentRef id="102" />
        <ExtentRef id="103" />
        <ExtentRef id="169" />
        <ExtentRef id="158" />
        <ExtentRef id="7" />
        <ExtentRef id="109" />
        <ExtentRef id="112" />
        <ExtentRef id="110" />
        <ExtentRef id="111" />
        <ExtentRef id="113" />
        <ExtentRef id="114" />
        <ExtentRef id="116" />
        <ExtentRef id="170" />
        <ExtentRef id="171" />
        <ExtentRef id="172" />
        <ExtentRef id="122" />
        <ExtentRef id="123" />
        <ExtentRef id="173" />
        <ExtentRef id="174" />
        <ExtentRef id="175" />
        <ExtentRef id="178" />
        <ExtentRef id="177" />
        <ExtentRef id="179" />
        <ExtentRef id="180" />
        <ExtentRef id="182" />
        <ExtentRef id="181" />
        <ExtentRef id="191" />
        <ExtentRef id="184" />
        <ExtentRef id="185" />
        <ExtentRef id="187" />
        <ExtentRef id="188" />
        <ExtentRef id="189" />
        <ExtentRef id="195" />
        <ExtentRef id="196" />
        <ExtentRef id="221" />
        <ExtentRef id="197" />
        <ExtentRef id="201" />
        <ExtentRef id="200" />
        <ExtentRef id="199" />
        <ExtentRef id="203" />
        <ExtentRef id="204" />
        <ExtentRef id="205" />
        <ExtentRef id="206" />
        <ExtentRef id="207" />
        <ExtentRef id="208" />
        <ExtentRef id="209" />
        <ExtentRef id="212" />
        <ExtentRef id="213" />
        <ExtentRef id="217" />
        <ExtentRef id="214" />
        <ExtentRef id="238" />
        <ExtentRef id="235" />
        <ExtentRef id="230" />
        <ExtentRef id="231" />
        <ExtentRef id="234" />
        <ExtentRef id="236" />
        <ExtentRef id="237" />
        <ExtentRef id="215" />
        <ExtentRef id="219" />
        <ExtentRef id="223" />
        <ExtentRef id="224" />
        <ExtentRef id="225" />
        <ExtentRef id="226" />
        <ExtentRef id="227" />
        <ExtentRef id="228" />
        <ExtentRef id="229" />
        <ExtentRef id="239" />
        <ExtentRef id="240" />
        <ExtentRef id="85" />
        <ExtentRef id="245" />
        <ExtentRef id="267" />
        <ExtentRef id="248" />
        <ExtentRef id="249" />
        <ExtentRef id="250" />
        <ExtentRef id="251" />
        <ExtentRef id="252" />
        <ExtentRef id="256" />
        <ExtentRef id="253" />
        <ExtentRef id="254" />
        <ExtentRef id="255" />
        <ExtentRef id="89" />
        <ExtentRef id="42" />
        <ExtentRef id="91" />
        <ExtentRef id="258" />
        <ExtentRef id="259" />
        <ExtentRef id="260" />
        <ExtentRef id="262" />
        <ExtentRef id="264" />
        <ExtentRef id="265" />
        <ExtentRef id="45" />
        <ExtentRef id="87" />
        <ExtentRef id="90" />
        <ExtentRef id="98" />
        <ExtentRef id="99" />
        <ExtentRef id="101" />
        <ExtentRef id="104" />
        <ExtentRef id="105" />
        <ExtentRef id="106" />
        <ExtentRef id="107" />
        <ExtentRef id="108" />
        <ExtentRef id="115" />
        <ExtentRef id="117" />
        <ExtentRef id="119" />
        <ExtentRef id="127" />
        <ExtentRef id="133" />
        <ExtentRef id="137" />
        <ExtentRef id="148" />
        <ExtentRef id="155" />
        <ExtentRef id="157" />
        <ExtentRef id="159" />
        <ExtentRef id="160" />
        <ExtentRef id="162" />
        <ExtentRef id="163" />
        <ExtentRef id="164" />
        <ExtentRef id="168" />
        <ExtentRef id="176" />
        <ExtentRef id="183" />
        <ExtentRef id="186" />
        <ExtentRef id="190" />
        <ExtentRef id="192" />
        <ExtentRef id="193" />
        <ExtentRef id="194" />
        <ExtentRef id="198" />
        <ExtentRef id="202" />
        <ExtentRef id="210" />
        <ExtentRef id="211" />
        <ExtentRef id="216" />
        <ExtentRef id="218" />
        <ExtentRef id="220" />
        <ExtentRef id="222" />
        <ExtentRef id="232" />
        <ExtentRef id="233" />
        <ExtentRef id="241" />
        <ExtentRef id="242" />
        <ExtentRef id="243" />
        <ExtentRef id="244" />
        <ExtentRef id="257" />
        <ExtentRef id="263" />
        <ExtentRef id="266" />
        <ExtentRef id="268" />
        <ExtentRef id="269" />
        <ExtentRef id="270" />
        <ExtentRef id="271" />
        <ExtentRef id="272" />
        <ExtentRef id="273" />
        <ExtentRef id="274" />
        <ExtentRef id="275" />
        <ExtentRef id="276" />
        <ExtentRef id="277" />
        <ExtentRef id="278" />
        <ExtentRef id="279" />
        <ExtentRef id="280" />
        <ExtentRef id="281" />
        <ExtentRef id="282" />
        <ExtentRef id="283" />
        <ExtentRef id="284" />
        <ExtentRef id="285" />
        <ExtentRef id="286" />
        <ExtentRef id="287" />
        <ExtentRef id="288" />
        <ExtentRef id="289" />
        <ExtentRef id="290" />
        <ExtentRef id="291" />
        <ExtentRef id="292" />
        <ExtentRef id="293" />
        <ExtentRef id="294" />
        <ExtentRef id="295" />
        <ExtentRef id="296" />
        <ExtentRef id="297" />
        <ExtentRef id="298" />
        <ExtentRef id="299" />
        <ExtentRef id="300" />
        <ExtentRef id="301" />
        <ExtentRef id="302" />
        <ExtentRef id="303" />
        <ExtentRef id="304" />
        <ExtentRef id="305" />
        <ExtentRef id="306" />
        <ExtentRef id="307" />
        <ExtentRef id="308" />
        <ExtentRef id="309" />
        <ExtentRef id="310" />
        <ExtentRef id="311" />
        <ExtentRef id="312" />
        <ExtentRef id="313" />
        <ExtentRef id="314" />
        <ExtentRef id="315" />
        <ExtentRef id="316" />
        <ExtentRef id="317" />
        <ExtentRef id="318" />
        <ExtentRef id="319" />
        <ExtentRef id="320" />
        <ExtentRef id="321" />
        <ExtentRef id="322" />
        <ExtentRef id="323" />
        <ExtentRef id="324" />
        <ExtentRef id="325" />
        <ExtentRef id="326" />
        <ExtentRef id="327" />
        <ExtentRef id="328" />
        <ExtentRef id="329" />
        <ExtentRef id="330" />
        <ExtentRef id="331" />
        <ExtentRef id="332" />
        <ExtentRef id="333" />
        <ExtentRef id="334" />
        <ExtentRef id="335" />
        <ExtentRef id="336" />
        <ExtentRef id="337" />
        <ExtentRef id="338" />
        <ExtentRef id="339" />
        <ExtentRef id="340" />
        <ExtentRef id="341" />
        <ExtentRef id="342" />
        <ExtentRef id="343" />
        <ExtentRef id="344" />
        <ExtentRef id="345" />
        <ExtentRef id="346" />
        <ExtentRef id="347" />
        <ExtentRef id="348" />
        <ExtentRef id="349" />
        <ExtentRef id="350" />
        <ExtentRef id="351" />
        <ExtentRef id="352" />
        <ExtentRef id="353" />
        <ExtentRef id="354" />
        <ExtentRef id="355" />
        <ExtentRef id="356" />
        <ExtentRef id="357" />
        <ExtentRef id="358" />
        <ExtentRef id="359" />
        <ExtentRef id="360" />
        <ExtentRef id="361" />
        <ExtentRef id="362" />
        <ExtentRef id="363" />
        <ExtentRef id="364" />
        <ExtentRef id="365" />
        <ExtentRef id="366" />
        <ExtentRef id="367" />
        <ExtentRef id="368" />
        <ExtentRef id="369" />
        <ExtentRef id="370" />
        <ExtentRef id="371" />
        <ExtentRef id="372" />
        <ExtentRef id="373" />
        <ExtentRef id="374" />
        <ExtentRef id="375" />
        <ExtentRef id="376" />
        <ExtentRef id="377" />
        <ExtentRef id="378" />
        <ExtentRef id="379" />
        <ExtentRef id="380" />
        <ExtentRef id="381" />
        <ExtentRef id="382" />
        <ExtentRef id="383" />
        <ExtentRef id="384" />
        <ExtentRef id="385" />
        <ExtentRef id="386" />
        <ExtentRef id="387" />
        <ExtentRef id="388" />
        <ExtentRef id="389" />
      </ExtentRefs>
    </ExtentSelector>
    <ExtentSelector extentID="2" gapBefore="0" primaryTrack="false">
      <Effects />
      <Transitions />
      <BoundProperties />
      <ExtentRefs />
    </ExtentSelector>
    <ExtentSelector extentID="3" gapBefore="0" primaryTrack="false">
      <Effects />
      <Transitions />
      <BoundProperties />
      <ExtentRefs />
    </ExtentSelector>
    <ExtentSelector extentID="4" gapBefore="0" primaryTrack="false">
      <Effects />
      <Transitions />
      <BoundProperties />
      <ExtentRefs>
        <ExtentRef id="56" />
        <ExtentRef id="57" />
        <ExtentRef id="60" />
        <ExtentRef id="125" />
        <ExtentRef id="130" />
        <ExtentRef id="138" />
        <ExtentRef id="156" />
        <ExtentRef id="141" />
        <ExtentRef id="143" />
        <ExtentRef id="142" />
        <ExtentRef id="144" />
        <ExtentRef id="151" />
        <ExtentRef id="152" />
        <ExtentRef id="153" />
        <ExtentRef id="167" />
        <ExtentRef id="16" />
        <ExtentRef id="161" />
        <ExtentRef id="39" />
        <ExtentRef id="66" />
        <ExtentRef id="83" />
        <ExtentRef id="81" />
        <ExtentRef id="77" />
        <ExtentRef id="74" />
        <ExtentRef id="88" />
        <ExtentRef id="84" />
      </ExtentRefs>
    </ExtentSelector>
  </Extents>
  <BoundPlaceholders>
    <BoundPlaceholder placeholderID="SingleExtentView" extentID="0" />
    <BoundPlaceholder placeholderID="Main" extentID="1" />
    <BoundPlaceholder placeholderID="SoundTrack" extentID="2" />
    <BoundPlaceholder placeholderID="Narration" extentID="3" />
    <BoundPlaceholder placeholderID="Text" extentID="4" />
  </BoundPlaceholders>
  <BoundProperties>
    <BoundPropertyFloatSet Name="AspectRatio">
      <BoundPropertyFloatElement Value="1.7777776718139648" />
    </BoundPropertyFloatSet>
    <BoundPropertyFloat Name="DuckedNarrationAndSoundTrackMix" Value="0.5" />
    <BoundPropertyFloat Name="DuckedVideoAndNarrationMix" Value="0" />
    <BoundPropertyFloat Name="DuckedVideoAndSoundTrackMix" Value="0" />
    <BoundPropertyFloat Name="SoundTrackMix" Value="0" />
  </BoundProperties>
  <ThemeOperationLog themeID="0">
    <MonolithicThemeOperations />
  </ThemeOperationLog>
  <AudioDuckingProperties emphasisPlaceholderID="Narration" />
</Project>